<?xml version="1.0" encoding="UTF-8"?>
<svg class="icon" width="800" height="132" p-id="1137" t="1592727113403" version="1.1" viewBox="0 0 8192.1 1351.7" xmlns="http://www.w3.org/2000/svg" xmlns:cc="http://creativecommons.org/ns#" xmlns:dc="http://purl.org/dc/elements/1.1/" xmlns:rdf="http://www.w3.org/1999/02/22-rdf-syntax-ns#">
 <metadata>
  <rdf:RDF>
   <cc:Work rdf:about="">
    <dc:format>image/svg+xml</dc:format>
    <dc:type rdf:resource="http://purl.org/dc/dcmitype/StillImage"/>
    <dc:title/>
   </cc:Work>
  </rdf:RDF>
 </metadata>
 <defs>
  <style type="text/css"></style>
 </defs>
 <g transform="matrix(1.3423 0 0 1.3423 3408.8 -11.383)" stroke-width=".74503">
  <g transform="rotate(240 512 512)" stroke-width=".74503">
   <g stroke-width=".74503">
    <path transform="matrix(0 .38073 -.38073 0 -252.57 -1747.9)" d="m6920.2-1439.8c-386.49 669.43-211.46 568.37-984.45 568.37-772.99-1e-5 -597.96 101.05-984.45-568.37-386.49-669.43-386.49-467.32-1e-4 -1136.7 386.49-669.43 211.46-568.37 984.45-568.37s597.96-101.05 984.45 568.37c386.49 669.43 386.49 467.32 0 1136.7z" color="#000000" fill="#5c940d" fill-rule="evenodd" stroke-width="1211.8"/>
   </g>
  </g>
  <path transform="scale(10.24)" d="m37.387 21.994a6 6 0 0 0-2.9746 0.80469 6 6 0 0 0-2.1973 8.1953l10.996 19.047-10.996 19.047a6 6 0 0 0 2.1973 8.1953 6 6 0 0 0 8.1953-2.1953l10.996-19.047h21.15a6 6 0 0 0 6-6 6 6 0 0 0-6-6h-21.15l-10.996-19.047a6 6 0 0 0-5.2207-3z" color="#000000" color-rendering="auto" dominant-baseline="auto" fill="#fff" fill-rule="evenodd" image-rendering="auto" shape-rendering="auto" solid-color="#000000" stop-color="#000000" style="font-feature-settings:normal;font-variant-alternates:normal;font-variant-caps:normal;font-variant-east-asian:normal;font-variant-ligatures:normal;font-variant-numeric:normal;font-variant-position:normal;font-variation-settings:normal;inline-size:0;isolation:auto;mix-blend-mode:normal;shape-margin:0;shape-padding:0;text-decoration-color:#000000;text-decoration-line:none;text-decoration-style:solid;text-indent:0;text-orientation:mixed;text-transform:none;white-space:normal"/>
 </g>
</svg>
