<?xml version="1.0" encoding="UTF-8"?>
<svg class="icon" width="800" height="132" p-id="1137" t="1592727113403" version="1.1" viewBox="0 0 8192 1351.7" xmlns="http://www.w3.org/2000/svg" xmlns:cc="http://creativecommons.org/ns#" xmlns:dc="http://purl.org/dc/elements/1.1/" xmlns:rdf="http://www.w3.org/1999/02/22-rdf-syntax-ns#">
 <metadata>
  <rdf:RDF>
   <cc:Work rdf:about="">
    <dc:format>image/svg+xml</dc:format>
    <dc:type rdf:resource="http://purl.org/dc/dcmitype/StillImage"/>
    <dc:title/>
   </cc:Work>
  </rdf:RDF>
 </metadata>
 <defs>
  <style type="text/css"></style>
 </defs>
 <g transform="matrix(1.3473 0 0 1.3473 -5006.6 1381.2)" stroke-width=".74223">
  <g transform="rotate(240 3335.1 -1808.3)" stroke-width=".74223">
   <path transform="matrix(0 .38073 -.38073 0 -252.57 -1747.9)" d="m6920.2-1439.8c-386.49 669.43-211.46 568.37-984.45 568.37-772.99-1e-5 -597.96 101.05-984.45-568.37-386.49-669.43-386.49-467.32-1e-4 -1136.7 386.49-669.43 211.46-568.37 984.45-568.37s597.96-101.05 984.45 568.37c386.49 669.43 386.49 467.32 0 1136.7z" color="#000000" fill="#364fc4" fill-rule="evenodd" stroke-width="1207.2"/>
  </g>
  <g transform="matrix(.96504 0 0 .96504 228.7 -5.3852)" fill="#fff">
   <g stroke-width="7.8757">
    <rect class="cls-1" x="6653.1" y="-846.79" width="87.194" height="161.77"/>
    <rect class="cls-1" x="6653.1" y="-494.17" width="87.194" height="123.12"/>
    <rect class="cls-2" x="6653.1" y="-632.18" width="87.194" height="85.42"/>
    <rect class="cls-1" x="6513" y="-703.06" width="87.194" height="387.76"/>
    <rect class="cls-1" x="6790.2" y="-371.05" width="87.194" height="144.09"/>
    <rect class="cls-1" x="6790.2" y="-743.24" width="87.194" height="181.05"/>
    <rect class="cls-3" x="6790.2" y="-509.35" width="87.194" height="85.42"/>
   </g>
   <rect class="cls-1" x="6927.4" y="-835.16" width="87.194" height="464.01" stroke-width="7.8756"/>
  </g>
 </g>
</svg>
