<?xml version="1.0" encoding="UTF-8"?>
<svg class="icon" width="800" height="132" p-id="1137" t="1592727113403" version="1.1" viewBox="0 0 8192.1 1351.7" xmlns="http://www.w3.org/2000/svg" xmlns:cc="http://creativecommons.org/ns#" xmlns:dc="http://purl.org/dc/elements/1.1/" xmlns:rdf="http://www.w3.org/1999/02/22-rdf-syntax-ns#">
 <metadata>
  <rdf:RDF>
   <cc:Work rdf:about="">
    <dc:format>image/svg+xml</dc:format>
    <dc:type rdf:resource="http://purl.org/dc/dcmitype/StillImage"/>
    <dc:title/>
   </cc:Work>
  </rdf:RDF>
 </metadata>
 <defs>
  <style type="text/css"></style>
 </defs>
 <g transform="matrix(1.3423 0 0 1.3423 1337.2 -1509.6)" stroke-width=".74503">
  <g transform="rotate(240 1605.9 624.56)">
   <path transform="matrix(0 .38073 -.38073 0 -252.57 -1747.9)" d="m6920.2-1439.8c-386.49 669.43-211.46 568.37-984.45 568.37-772.99-1e-5 -597.96 101.05-984.45-568.37-386.49-669.43-386.49-467.32-1e-4 -1136.7 386.49-669.43 211.46-568.37 984.45-568.37s597.96-101.05 984.45 568.37c386.49 669.43 386.49 467.32 0 1136.7z" color="#000000" fill="#a61e4d" fill-rule="evenodd" stroke-width="1211.8"/>
  </g>
  <g fill="#fff" fill-rule="evenodd">
   <circle transform="rotate(-30)" cx="1008.4" cy="2435" r="77.855" color="#000000"/>
   <circle transform="rotate(-30)" cx="1260.9" cy="2435" r="93.427" color="#000000"/>
   <circle transform="rotate(-30)" cx="787.1" cy="2435" r="62.284" color="#000000"/>
   <circle transform="rotate(-30)" cx="909.04" cy="2215.1" r="77.855" color="#000000"/>
   <circle transform="rotate(-30)" cx="1128.4" cy="2215.1" r="93.427" color="#000000"/>
   <circle transform="rotate(-30)" cx="720.8" cy="2215.1" r="62.284" color="#000000"/>
   <circle transform="rotate(-30)" cx="909.04" cy="2654.9" r="77.855" color="#000000"/>
   <circle transform="rotate(-30)" cx="1128.4" cy="2654.9" r="93.427" color="#000000"/>
   <circle transform="rotate(-30)" cx="720.8" cy="2654.9" r="62.284" color="#000000"/>
  </g>
 </g>
</svg>
