<?xml version="1.0" encoding="UTF-8"?>
<svg class="icon" width="132" height="132" p-id="1137" t="1592727113403" version="1.1" viewBox="0 0 1351.7 1351.7" xmlns="http://www.w3.org/2000/svg" xmlns:cc="http://creativecommons.org/ns#" xmlns:dc="http://purl.org/dc/elements/1.1/" xmlns:rdf="http://www.w3.org/1999/02/22-rdf-syntax-ns#">
 <metadata>
  <rdf:RDF>
   <cc:Work rdf:about="">
    <dc:format>image/svg+xml</dc:format>
    <dc:type rdf:resource="http://purl.org/dc/dcmitype/StillImage"/>
    <dc:title/>
   </cc:Work>
  </rdf:RDF>
 </metadata>
 <defs>
  <style type="text/css"></style>
 </defs>
 <g transform="matrix(1.287 0 0 1.287 16.937 16.948)" fill-rule="evenodd">
  <path transform="matrix(0 .39708 -.39708 0 -285.42 -1845)" d="m6920.2-1439.8c-386.49 669.43-211.46 568.37-984.45 568.37-772.99-1e-5 -597.96 101.05-984.45-568.37-386.49-669.43-386.49-467.32-1e-4 -1136.7 386.49-669.43 211.46-568.37 984.45-568.37s597.96-101.05 984.45 568.37c386.49 669.43 386.49 467.32 0 1136.7z" color="#000000" fill="#099268" stroke-width="1211.8"/>
  <path d="m511.45 107.83-223.83 129.29 0.065 258.48 96.782 55.843 0.0121-61.021-43.937-25.352-0.0461-197.44 170.97-98.766 171.02 98.679 0.0102 46.739 52.871 30.491-0.0291-107.77zm-122.33 209.45-22.164 12.803-0.0102 61.059 22.186-12.816 70.002 40.39-48.222 27.858 0.058 258.48 21.908 12.642 52.837-30.543-21.887-12.629-0.017-77.286 47.758 27.557 223.83-129.29-4e-3 -28.614-52.875-30.496 6e-3 28.599-69.5 40.148-0.0135-58.675c-36.425-19.069-223.89-129.19-223.89-129.19zm245.61 0-96.415 55.697 52.89 30.501 43.543-25.151 171.01 98.679 0.0444 197.45-170.97 98.758-43.585-25.151-52.842 30.543 96.45 55.655 223.82-129.29-0.0628-258.48zm-373.45 73.847-95.986 55.448 0.065 258.48 223.88 129.2 223.82-129.29-0.0222-108.24-52.86 30.557 0.0102 47.174-170.97 98.758-171.01-98.679-0.0529-197.45 43.102-24.899zm250.73 58.1 48.138 27.776 0.0135 58.678-48.607 28.078-47.76-27.557-0.0135-59.116z" color="#000000" color-rendering="auto" dominant-baseline="auto" fill="#fff" image-rendering="auto" shape-rendering="auto" solid-color="#000000" stop-color="#000000" stroke-width="7.9566" style="font-feature-settings:normal;font-variant-alternates:normal;font-variant-caps:normal;font-variant-east-asian:normal;font-variant-ligatures:normal;font-variant-numeric:normal;font-variant-position:normal;font-variation-settings:normal;inline-size:0;isolation:auto;mix-blend-mode:normal;shape-margin:0;shape-padding:0;text-decoration-color:#000000;text-decoration-line:none;text-decoration-style:solid;text-indent:0;text-orientation:mixed;text-transform:none;white-space:normal"/>
 </g>
</svg>
