<?xml version="1.0" encoding="UTF-8" standalone="no"?>
<svg
   xmlns:dc="http://purl.org/dc/elements/1.1/"
   xmlns:cc="http://creativecommons.org/ns#"
   xmlns:rdf="http://www.w3.org/1999/02/22-rdf-syntax-ns#"
   xmlns:svg="http://www.w3.org/2000/svg"
   xmlns="http://www.w3.org/2000/svg"
   xmlns:sodipodi="http://sodipodi.sourceforge.net/DTD/sodipodi-0.dtd"
   xmlns:inkscape="http://www.inkscape.org/namespaces/inkscape"
   class="icon"
   width="100"
   height="100"
   p-id="1137"
   t="1592727113403"
   version="1.1"
   viewBox="0 0 1024 1024"
   id="svg42"
   sodipodi:docname="ferris.svg"
   inkscape:export-filename="/home/Substrate/material/pages/dudochkin-victor.github.io/public/ferris.png"
   inkscape:export-xdpi="57.599998"
   inkscape:export-ydpi="57.599998"
   inkscape:version="1.0.2 (e86c870879, 2021-01-15)">
  <defs
     id="defs46" />
  <sodipodi:namedview
     pagecolor="#ffffff"
     bordercolor="#666666"
     borderopacity="1"
     objecttolerance="10"
     gridtolerance="10"
     guidetolerance="10"
     inkscape:pageopacity="0"
     inkscape:pageshadow="2"
     inkscape:window-width="1920"
     inkscape:window-height="1015"
     id="namedview44"
     showgrid="false"
     inkscape:zoom="4.235"
     inkscape:cx="138.05863"
     inkscape:cy="30.575576"
     inkscape:window-x="0"
     inkscape:window-y="0"
     inkscape:window-maximized="1"
     inkscape:current-layer="svg42" />
  <metadata
     id="metadata2">
    <rdf:RDF>
      <cc:Work
         rdf:about="">
        <dc:format>image/svg+xml</dc:format>
        <dc:type
           rdf:resource="http://purl.org/dc/dcmitype/StillImage" />
        <dc:title></dc:title>
      </cc:Work>
    </rdf:RDF>
  </metadata>
  <g
     id="g125">
    <g
       transform="matrix(0.85201,0,0,0.85201,862.05039,605.52378)"
       id="g6"
       style="clip-rule:evenodd;fill-rule:evenodd;stroke-linejoin:round;stroke-miterlimit:1.4142">
      <path
         d="m 0,-7.203 -12.072,-25.006 c 0.063,-0.947 0.111,-1.898 0.111,-2.853 0,-28.346 -29.478,-54.471 -79.069,-75.389 v 17.393 c -4.836,-1.919 -9.871,-3.787 -15.117,-5.593 v -8.108 c -70.874,-25.56 -176.38,-41.778 -294.24,-41.778 -102.97,0 -196.53,12.38 -265.79,32.554 v 28.246 h -0.002 v -34.188 c -70.96,22.55 -114.95,53.877 -114.95,88.515 0,5.46 1.101,10.838 3.217,16.113 l -7.228,12.867 c 0,0 -5.792,7.512 4.406,23.362 8.994,13.977 54.048,68.685 77.827,97.335 10.214,14.687 17.141,23.734 17.746,22.859 0.955,-1.386 -6.351,-28.961 -26.635,-60.423 -9.466,-16.895 -20.768,-39.283 -27.554,-55.819 18.942,11.99 130.23,68.029 357.23,67.801 C -150.13,90.453 -47,17.834 -35.69,7.948 c -3.955,15.889 -17.468,48.033 -28.245,70.638 -17.706,32.331 -24.12,60.478 -23.296,61.87 0.524,0.878 6.565,-8.441 15.476,-23.543 C -51.024,87.37 -11.738,30.974 -3.888,16.613 5.008,0.328 0.001,-7.198 0.001,-7.198"
         fill="#a52b00"
         fill-rule="nonzero"
         stroke-width="12.019"
         id="path4" />
    </g>
    <g
       transform="matrix(0.85201,0,0,0.85201,921.7763,425.34071)"
       id="g10"
       style="clip-rule:evenodd;fill-rule:evenodd;stroke-linejoin:round;stroke-miterlimit:1.4142">
      <path
         d="m 0,204.14 -79.343,-58.446 c -0.745,-2.6 -1.49,-5.201 -2.26,-7.781 l 26.062,-37.754 c 2.66,-3.84 3.196,-8.832 1.469,-13.211 -1.731,-4.358 -5.515,-7.482 -9.99,-8.247 l -44.066,-7.479 c -1.709,-3.485 -3.498,-6.916 -5.294,-10.319 l 18.515,-42.388 c 1.903,-4.317 1.505,-9.335 -1.022,-13.254 -2.517,-3.937 -6.786,-6.237 -11.338,-6.058 l -44.724,1.625 c -2.315,-3.016 -4.667,-6.003 -7.067,-8.937 l 10.278,-45.432 c 1.042,-4.612 -0.274,-9.443 -3.487,-12.794 -3.195,-3.339 -7.838,-4.722 -12.253,-3.639 l -43.562,10.709 c -2.82,-2.493 -5.688,-4.953 -8.588,-7.365 l 1.567,-46.641 c 0.168,-4.721 -2.033,-9.208 -5.812,-11.829 -3.777,-2.636 -8.57,-3.032 -12.701,-1.074 l -40.638,19.321 c -3.273,-1.878 -6.565,-3.737 -9.892,-5.537 l -7.181,-45.961 c -0.729,-4.656 -3.724,-8.612 -7.919,-10.418 -4.185,-1.817 -8.976,-1.228 -12.648,1.536 l -36.232,27.185 c -3.569,-1.185 -7.153,-2.32 -10.779,-3.407 l -15.617,-43.585 c -1.588,-4.443 -5.25,-7.706 -9.716,-8.624 -4.45,-0.909 -9.028,0.632 -12.114,4.08 l -30.499,34.119 c -3.685,-0.423 -7.377,-0.81 -11.076,-1.131 l -23.549,-39.676 c -2.384,-4.018 -6.597,-6.464 -11.139,-6.464 -4.529,0 -8.75,2.446 -11.118,6.464 l -23.555,39.676 c -3.701,0.321 -7.408,0.708 -11.088,1.131 l -30.499,-34.119 c -3.09,-3.448 -7.684,-4.989 -12.122,-4.08 -4.46,0.93 -8.128,4.181 -9.707,8.624 l -15.629,43.585 c -3.621,1.087 -7.205,2.23 -10.78,3.407 l -36.22,-27.185 c -3.683,-2.774 -8.478,-3.361 -12.668,-1.536 -4.181,1.806 -7.188,5.762 -7.913,10.418 l -7.186,45.961 c -3.322,1.8 -6.614,3.649 -9.895,5.537 l -40.634,-19.321 c -4.127,-1.966 -8.945,-1.562 -12.704,1.074 -3.773,2.621 -5.98,7.108 -5.81,11.829 l 1.562,46.641 c -2.894,2.412 -5.756,4.872 -8.591,7.365 l -43.554,-10.709 c -4.423,-1.074 -9.062,0.3 -12.265,3.639 -3.221,3.351 -4.526,8.182 -3.491,12.794 l 10.257,45.432 c -2.378,2.945 -4.733,5.921 -7.042,8.937 l -44.724,-1.625 c -4.513,-0.135 -8.821,2.121 -11.343,6.058 -2.527,3.919 -2.91,8.937 -1.029,13.254 l 18.528,42.388 c -1.799,3.403 -3.586,6.834 -5.309,10.319 l -44.063,7.479 c -4.479,0.754 -8.252,3.876 -9.994,8.247 -1.728,4.379 -1.167,9.371 1.474,13.211 l 26.066,37.754 c -0.201,0.667 -0.387,1.339 -0.587,2.008 l -73.696,78.285 c 0,0 -11.296,8.851 5.147,29.654 14.5,18.351 88.951,91.096 128.27,129.2 16.606,19.348 27.984,31.329 29.172,30.293 1.876,-1.645 -7.972,-36.847 -40.682,-78.149 -25.216,-37.056 -57.941,-94.049 -50.267,-100.62 0,0 8.729,-11.081 26.242,-19.057 0.641,0.512 -0.662,-0.507 0,0 0,0 369.6,170.49 712.43,2.884 39.164,-7.025 62.873,13.955 62.873,13.955 8.176,4.74 -12.996,63.344 -30.407,102.14 -23.679,44.05 -27.151,78.422 -25.144,79.614 1.268,0.757 9.883,-12.353 22.172,-33.217 C -67.814,332.65 -10.492,252.103 0,232.533 11.895,210.351 0,204.134 0,204.134"
         fill="#f74c00"
         fill-rule="nonzero"
         stroke-width="12.019"
         id="path8" />
    </g>
    <g
       transform="matrix(0.85201,0,0,0.85201,784.09148,382.56981)"
       id="g14"
       style="clip-rule:evenodd;fill-rule:evenodd;stroke-linejoin:round;stroke-miterlimit:1.4142">
      <path
         d="m 0,232.47 c 0,0 53.179,-2.466 123.03,-73.462 l 9.898,-21.979 c 0,0 -108.42,-107.85 60.118,-182.29 0,0 -14.755,24.112 -10.426,117.27 0,0 50.815,-17.649 65.714,-99.94 0,0 74.12,97.724 -80.502,189.38 0,0 -72.54,116.29 -174.8,105.15 z"
         fill="#f74c00"
         fill-rule="nonzero"
         stroke-width="12.019"
         id="path12" />
    </g>
    <g
       transform="matrix(0.85201,0,0,0.85201,578.84227,590.1876)"
       id="g18"
       style="clip-rule:evenodd;fill-rule:evenodd;stroke-linejoin:round;stroke-miterlimit:1.4142">
      <path
         d="m 0,-78.192 c 0,0 36.935,-40.443 73.871,0 0,0 29.022,53.927 0,80.887 0,0 -47.487,37.748 -73.871,0 0,0 -31.658,-29.659 0,-80.887"
         fill-rule="nonzero"
         stroke-width="12.019"
         id="path16" />
    </g>
    <g
       transform="matrix(0.85201,0,0,0.85201,615.27422,536.34909)"
       id="g22"
       style="clip-rule:evenodd;fill-rule:evenodd;stroke-linejoin:round;stroke-miterlimit:1.4142">
      <path
         d="m 0,0.004 c 0,15.746 -9.282,28.514 -20.732,28.514 -11.448,0 -20.73,-12.768 -20.73,-28.514 0,-15.75 9.282,-28.518 20.73,-28.518 C -9.282,-28.514 0,-15.746 0,0.004"
         fill="#ffffff"
         fill-rule="nonzero"
         stroke-width="12.019"
         id="path20" />
    </g>
    <g
       transform="matrix(0.85201,0,0,0.85201,438.38842,585.39931)"
       id="g26"
       style="clip-rule:evenodd;fill-rule:evenodd;stroke-linejoin:round;stroke-miterlimit:1.4142">
      <path
         d="m 0,-83.609 c 0,0 63.355,-28.052 80.648,34.562 0,0 18.114,72.98 -52.03,77.099 0,0 -89.444,-17.228 -28.618,-111.66"
         fill-rule="nonzero"
         stroke-width="12.019"
         id="path24" />
    </g>
    <g
       transform="matrix(0.85201,0,0,0.85201,465.49938,537.22666)"
       id="g30"
       style="clip-rule:evenodd;fill-rule:evenodd;stroke-linejoin:round;stroke-miterlimit:1.4142">
      <path
         d="m 0,0.002 c 0,16.239 -9.572,29.409 -21.381,29.409 -11.804,0 -21.379,-13.17 -21.379,-29.409 0,-16.244 9.575,-29.411 21.379,-29.411 C -9.572,-29.409 0,-16.242 0,0.002"
         fill="#ffffff"
         fill-rule="nonzero"
         stroke-width="12.019"
         id="path28" />
    </g>
    <g
       transform="matrix(0.85201,0,0,0.85201,507.54607,665.34341)"
       id="g34"
       style="clip-rule:evenodd;fill-rule:evenodd;stroke-linejoin:round;stroke-miterlimit:1.4142">
      <path
         d="m 0,-40.271 80.796,-6.484 c 0,0 -2.738,13.006 -13.279,22.769 0,0 -27.79,30.47 -59.673,-2.533 0,0 -5.217,-5.629 -7.844,-13.752"
         fill-rule="nonzero"
         stroke-width="12.019"
         id="path32" />
    </g>
    <g
       transform="matrix(0.85201,0,0,0.85201,231.9038,404.80727)"
       id="g38"
       style="clip-rule:evenodd;fill-rule:evenodd;stroke-linejoin:round;stroke-miterlimit:1.4142">
      <path
         d="m 0,190.74 c -0.667,0 -1.321,0.049 -1.973,0.101 -26.234,-5.971 -99.973,-25.185 -119.46,-56.363 0,0 99.227,-112.87 -55.86,-185.02 l 18.057,124.88 c 0,0 -47.809,-31.949 -58.126,-101.35 0,0 -116.42,84.494 51.384,165.47 0,0 15.22,57.187 161.35,102.82 l 0.107,-0.435 c 1.471,0.272 2.977,0.435 4.526,0.435 13.808,0 25.003,-11.312 25.003,-25.271 0,-13.956 -11.195,-25.269 -25.003,-25.269"
         fill="#f74c00"
         fill-rule="nonzero"
         stroke-width="12.019"
         id="path36" />
    </g>
  </g>
</svg>
