<?xml version="1.0" encoding="UTF-8"?>
<svg class="icon" width="800" height="132" p-id="1137" t="1592727113403" version="1.1" viewBox="0 0 8192 1351.7" xmlns="http://www.w3.org/2000/svg" xmlns:cc="http://creativecommons.org/ns#" xmlns:dc="http://purl.org/dc/elements/1.1/" xmlns:rdf="http://www.w3.org/1999/02/22-rdf-syntax-ns#">
 <metadata>
  <rdf:RDF>
   <cc:Work rdf:about="">
    <dc:format>image/svg+xml</dc:format>
    <dc:type rdf:resource="http://purl.org/dc/dcmitype/StillImage"/>
    <dc:title/>
   </cc:Work>
  </rdf:RDF>
 </metadata>
 <defs>
  <style type="text/css"></style>
 </defs>
 <g transform="matrix(.13232 .13232 -.13232 .13232 4096.7 5267)" fill-rule="evenodd" stroke-width="5.344">
  <path d="m-19821-19816c655.24-655.24 1543.4-1023.1 2470.1-1023.1 926.65 0 1814.8 367.9 2470.1 1023.1 655.24 655.24 1023.1 1543.4 1023.1 2470.1 0 926.64-367.9 1814.8-1023.1 2470.1-655.24 655.24-1543.4 1023.1-2470.1 1023.1-926.65 0-1814.8-367.9-2470.1-1023.1-655.24-655.24-1023.1-1543.4-1023.1-2470.1 0-926.65 367.9-1814.8 1023.1-2470.1z" color="#000000" color-rendering="auto" dominant-baseline="auto" fill="#ffc057" image-rendering="auto" shape-rendering="auto" solid-color="#000000" stop-color="#000000" style="font-feature-settings:normal;font-variant-alternates:normal;font-variant-caps:normal;font-variant-east-asian:normal;font-variant-ligatures:normal;font-variant-numeric:normal;font-variant-position:normal;font-variation-settings:normal;inline-size:0;isolation:auto;mix-blend-mode:normal;shape-margin:0;shape-padding:0;text-decoration-color:#000000;text-decoration-line:none;text-decoration-style:solid;text-indent:0;text-orientation:mixed;text-transform:none;white-space:normal"/>
  <path transform="scale(10.24)" d="m-1710.3-1948.6 30 507.14h215.3c4.0004-3.6367 7.925-7.3742 11.766-11.215 63.988-63.988 99.916-150.72 99.916-241.22-1e-4 -90.493-35.928-177.23-99.916-241.22-4.647-4.647-9.4172-9.1422-14.297-13.49z" color="#000000" fill="#be9042"/>
  <path transform="rotate(-45)" d="m-1529.7-26581h3052.3c141.82 0 256 114.18 256 256v3566.6c0 141.82-114.18 256-256 256h-3052.3c-141.82 0-256-114.18-256-256v-3566.6c0-141.82 114.18-256 256-256z" color="#000000" fill="#386895"/>
  <path d="m-19877-17714c-100.28 100.28-100.28 261.75 0 362.04l468.54 468.54 2520.3-2520.3-468.54-468.54c-100.28-100.28-261.75-100.28-362.04 0z" color="#000000" fill="#273b7a"/>
  <path d="m-18796-18795 2884 2884 1076.9-1076.9c100.28-100.28 100.28-261.75 0-362.04l-2521.9-2521.9c-100.28-100.28-261.75-100.28-362.04 0z" color="#000000" fill="#273b7a"/>
  <path d="m-18796-18795 649.56 649.56 1257.9-1257.9-468.54-468.54c-100.28-100.28-261.75-100.28-362.04 0z" color="#000000" fill="#121149"/>
  <g transform="rotate(-45 -17351 -17346)" fill="#fff" stroke-width="5.344">
   <circle cx="-15988" cy="-18915" r="205.98" color="#000000"/>
   <circle cx="-16520" cy="-18915" r="205.98" color="#000000"/>
  </g>
  <path d="m-17888-17883c-214.01 214.01-334.3 504.41-334.3 807.07 0 302.66 120.29 593.06 334.3 807.07s504.41 334.3 807.07 334.3c302.66 0 593.06-120.29 807.07-334.3 214.01-214.01 334.3-504.41 334.3-807.07 0-301.59-119.47-590.98-332.06-804.78l-0.02-0.01a128 128 0 0 0-2.218-2.275 128 128 0 0 0-2.253-2.196c-213.8-212.62-503.21-332.1-804.82-332.1-302.66 0-593.06 120.29-807.07 334.3zm181.02 181.02c166.07-166.07 391.19-259.32 626.05-259.32s459.98 93.245 626.05 259.32c166.07 166.07 259.32 391.19 259.32 626.05 0 234.86-93.246 459.98-259.32 626.05-166.07 166.07-391.19 259.32-626.05 259.32s-459.98-93.245-626.05-259.32c-166.07-166.07-259.32-391.19-259.32-626.05 0-234.86 93.245-459.98 259.32-626.05z" color="#000000" color-rendering="auto" dominant-baseline="auto" fill="#162138" image-rendering="auto" shape-rendering="auto" solid-color="#000000" stop-color="#000000" style="font-feature-settings:normal;font-variant-alternates:normal;font-variant-caps:normal;font-variant-east-asian:normal;font-variant-ligatures:normal;font-variant-numeric:normal;font-variant-position:normal;font-variation-settings:normal;inline-size:0;isolation:auto;mix-blend-mode:normal;shape-margin:0;shape-padding:0;text-decoration-color:#000000;text-decoration-line:none;text-decoration-style:solid;text-indent:0;text-orientation:mixed;text-transform:none;white-space:normal"/>
  <path d="m-17707-17702c166.07-166.07 391.19-259.32 626.05-259.32s459.98 93.245 626.05 259.32c166.07 166.07 259.32 391.19 259.32 626.05 0 234.86-93.246 459.98-259.32 626.05-166.07 166.07-391.19 259.32-626.05 259.32s-459.98-93.245-626.05-259.32c-166.07-166.07-259.32-391.19-259.32-626.05 0-234.86 93.245-459.98 259.32-626.05z" color="#000000" color-rendering="auto" dominant-baseline="auto" fill="#7dced2" image-rendering="auto" shape-rendering="auto" solid-color="#000000" stop-color="#000000" style="font-feature-settings:normal;font-variant-alternates:normal;font-variant-caps:normal;font-variant-east-asian:normal;font-variant-ligatures:normal;font-variant-numeric:normal;font-variant-position:normal;font-variation-settings:normal;inline-size:0;isolation:auto;mix-blend-mode:normal;shape-margin:0;shape-padding:0;text-decoration-color:#000000;text-decoration-line:none;text-decoration-style:solid;text-indent:0;text-orientation:mixed;text-transform:none;white-space:normal"/>
  <path d="m-17704-17704 1252 1252c164.68-165.85 257.1-389.97 257.1-623.78 0-234.86-93.237-459.97-259.31-626.04-166.08-166.07-391.19-259.32-626.06-259.32-233.81 0-457.93 92.429-623.78 257.1z" color="#000000" fill="#41b1b5"/>
  <path d="m-17707-17702c-30.474 30.474-58.476 62.953-83.919 97.099l462.14 462.14c-23.905 88.682 1.394 183.38 66.341 248.32-55.727 210.29-112.32 421.01-168.8 631.56 78.406 33.78 161.64 56.217 247.23 66.242l169.15-631.29c43.654-11.627 83.466-34.57 115.41-66.51 31.945-31.944 54.883-71.76 66.511-115.41l631.29-169.15c-10.03-85.628-32.481-168.9-66.285-247.33l-631.52 168.9c-64.945-64.945-159.64-90.246-248.32-66.341l-462.14-462.14c-34.146 25.443-66.625 53.445-97.1 83.92z" color="#000000" color-rendering="auto" dominant-baseline="auto" fill="#fff" image-rendering="auto" shape-rendering="auto" solid-color="#000000" stop-color="#000000" style="font-feature-settings:normal;font-variant-alternates:normal;font-variant-caps:normal;font-variant-east-asian:normal;font-variant-ligatures:normal;font-variant-numeric:normal;font-variant-position:normal;font-variation-settings:normal;inline-size:0;isolation:auto;mix-blend-mode:normal;shape-margin:0;shape-padding:0;text-decoration-color:#000000;text-decoration-line:none;text-decoration-style:solid;text-indent:0;text-orientation:mixed;text-transform:none;white-space:normal"/>
  <path d="m-17704-17704 807.45 807.45c30.785-31.554 52.99-70.476 64.346-113.11l631.29-169.15c-10.029-85.628-32.48-168.9-66.284-247.33l-631.52 168.9c-64.945-64.946-159.64-90.246-248.32-66.341l-462.14-462.14c-33.309 24.82-64.999 52.117-94.823 81.727z" color="#000000" color-rendering="auto" dominant-baseline="auto" fill="#e2e4e5" image-rendering="auto" shape-rendering="auto" solid-color="#000000" stop-color="#000000" style="font-feature-settings:normal;font-variant-alternates:normal;font-variant-caps:normal;font-variant-east-asian:normal;font-variant-ligatures:normal;font-variant-numeric:normal;font-variant-position:normal;font-variation-settings:normal;inline-size:0;isolation:auto;mix-blend-mode:normal;shape-margin:0;shape-padding:0;text-decoration-color:#000000;text-decoration-line:none;text-decoration-style:solid;text-indent:0;text-orientation:mixed;text-transform:none;white-space:normal"/>
 </g>
</svg>
