<?xml version="1.0" encoding="UTF-8"?>
<svg class="icon" width="132" height="132" p-id="1137" t="1592727113403" version="1.1" viewBox="0 0 1351.7 1351.7" xmlns="http://www.w3.org/2000/svg" xmlns:cc="http://creativecommons.org/ns#" xmlns:dc="http://purl.org/dc/elements/1.1/" xmlns:rdf="http://www.w3.org/1999/02/22-rdf-syntax-ns#">
 <metadata>
  <rdf:RDF>
   <cc:Work rdf:about="">
    <dc:format>image/svg+xml</dc:format>
    <dc:type rdf:resource="http://purl.org/dc/dcmitype/StillImage"/>
    <dc:title/>
   </cc:Work>
  </rdf:RDF>
 </metadata>
 <defs>
  <style type="text/css"></style>
 </defs>
 <g transform="matrix(1.345 0 0 1.345 -12.783 -12.783)">
  <g transform="rotate(240 512 512)" stroke-width=".74351">
   <path transform="matrix(0 .38073 -.38073 0 -252.57 -1747.9)" d="m6920.2-1439.8c-386.49 669.43-211.46 568.37-984.45 568.37-772.99-1e-5 -597.96 101.05-984.45-568.37-386.49-669.43-386.49-467.32-1e-4 -1136.7 386.49-669.43 211.46-568.37 984.45-568.37s597.96-101.05 984.45 568.37c386.49 669.43 386.49 467.32 0 1136.7z" color="#000000" fill="#862e9c" fill-rule="evenodd" stroke-width="1209.3"/>
  </g>
  <path d="m341.28 347.28c-90.973 1e-4 -164.71 73.74-164.71 164.71 0 90.972 73.739 164.73 164.71 164.73 56.26 0 125.79-62.963 170.72-111.04 44.924 48.076 114.46 111.04 170.72 111.04 90.973-1e-4 164.73-73.758 164.73-164.73 0-90.973-73.755-164.71-164.73-164.71-56.26-1e-4 -125.79 62.963-170.72 111.04-44.924-48.076-114.46-111.04-170.72-111.04zm0 80.065c46.754-1e-4 119.4 84.647 119.4 84.647s-72.649 84.663-119.4 84.663-84.644-37.908-84.644-84.663 37.893-84.647 84.644-84.647zm341.44 0c46.755 0 84.663 37.893 84.663 84.647s-37.908 84.663-84.663 84.663c-46.754 1e-4 -119.39-84.663-119.39-84.663s72.634-84.647 119.39-84.647z" color="#000000" fill="#fff" fill-rule="evenodd" stroke-width="23.225"/>
 </g>
</svg>
