<?xml version="1.0" encoding="UTF-8"?>
<svg width="850" height="265" version="1.1" viewBox="0 0 224.9 70.115" xmlns="http://www.w3.org/2000/svg" xmlns:cc="http://creativecommons.org/ns#" xmlns:dc="http://purl.org/dc/elements/1.1/" xmlns:rdf="http://www.w3.org/1999/02/22-rdf-syntax-ns#">
 <metadata>
  <rdf:RDF>
   <cc:Work rdf:about="">
    <dc:format>image/svg+xml</dc:format>
    <dc:type rdf:resource="http://purl.org/dc/dcmitype/StillImage"/>
    <dc:title/>
   </cc:Work>
  </rdf:RDF>
 </metadata>
 <path d="m4.246-4.3677e-4h216.41c2.3523 0 4.246 1.8937 4.246 4.246v61.577c0 2.3523-1.8937 4.246-4.246 4.246h-216.41c-2.3523 0-4.246-1.8937-4.246-4.246v-61.577c0-2.3523 1.8937-4.246 4.246-4.246z" color="#000000" fill="#254356" fill-rule="evenodd"/>
 <g transform="matrix(1.0615 0 0 1.0615 .11188 -.20755)" fill="#1488c6" fill-rule="evenodd" stroke-width=".88878">
  <path transform="scale(.26458)" d="m17.084 79.125c-4.1877 0-7.5586 3.3709-7.5586 7.5586v145.69c0 4.1877 3.3709 7.5586 7.5586 7.5586h172.5c4.1877 0 7.5586-3.3709 7.5586-7.5586v-145.69c0-4.1877-3.3709-7.5586-7.5586-7.5586h-66.621l-20.008 18.861-19.506-18.861h-66.369z" color="#000000"/>
  <path transform="scale(.26458)" d="m214.6 79.125c-4.1877 0-7.5586 3.3709-7.5586 7.5586v145.69c0 4.1877 3.3709 7.5586 7.5586 7.5586h172.5c4.1877 0 7.5605-3.3709 7.5605-7.5586v-145.69c0-4.1877-3.3728-7.5586-7.5605-7.5586h-66.619l-20.008 18.861-19.508-18.861h-66.369z" color="#000000"/>
  <path transform="scale(.26458)" d="m412.12 79.125c-4.1877 0-7.5586 3.3709-7.5586 7.5586v145.69c0 4.1877 3.3709 7.5586 7.5586 7.5586h172.5c4.1877 0 7.5586-3.3709 7.5586-7.5586v-145.69c0-4.1877-3.3709-7.5586-7.5586-7.5586h-66.619l-20.008 18.861-19.508-18.861h-66.369z" color="#000000"/>
  <path transform="scale(.26458)" d="m609.63 79.125c-4.1877 0-7.5586 3.3709-7.5586 7.5586v145.69c0 4.1877 3.3709 7.5586 7.5586 7.5586h172.5c4.1877 0 7.5586-3.3709 7.5586-7.5586v-145.69c0-4.1877-3.3709-7.5586-7.5586-7.5586h-66.621l-20.008 18.861-19.506-18.861h-66.369z" color="#000000"/>
 </g>
 <g fill="#fff">
  <g transform="matrix(1.0615 0 0 1.0615 .11188 -.76428)" stroke-width=".94207">
   <g transform="matrix(.029276 0 0 .029276 57.856 43.711)" stroke-width="21.898">
    <polygon points="1113.5 323.6 1106.2 323.6 1106.2 342.7 1099.8 342.7 1099.8 323.6 1092.4 323.6 1092.4 318.1 1113.5 318.1"/>
    <polygon points="1116.4 342.7 1116.4 318.1 1125.8 318.1 1130.1 334.5 1134.4 318.1 1143.8 318.1 1143.8 342.7 1137.8 342.7 1137.8 324 1137.7 324 1132.6 342.7 1127.7 342.7 1122.5 324 1122.4 324 1122.4 342.7"/>
    <path d="m859.4 341.3c-9 3.8-18 5.7-27.1 5.7-14.4 0-27.4-2.5-38.9-7.5s-21.2-11.9-29.1-20.7-14-19.1-18.2-31-6.3-24.7-6.3-38.4c0-14.1 2.1-27.1 6.3-39.2s10.2-22.6 18.1-31.5c7.9-9 17.6-16 29.1-21.1s24.4-7.7 38.9-7.7c9.7 0 19 1.5 28 4.4s17.2 7.2 24.5 12.8 13.3 12.6 18 20.9 7.6 17.8 8.7 28.5h-39.4c-2.5-10.5-7.2-18.4-14.2-23.7s-15.5-7.9-25.6-7.9c-9.3 0-17.2 1.8-23.7 5.4s-11.8 8.4-15.8 14.5-7 13-8.8 20.7-2.8 15.7-2.8 24c0 7.9 0.9 15.6 2.8 23.1 1.8 7.5 4.8 14.2 8.8 20.2s9.3 10.8 15.8 14.4 14.4 5.4 23.7 5.4c13.7 0 24.3-3.5 31.8-10.4s11.8-16.9 13.1-30.1h-41.6v-31.1h78.9v101.7h-26.3l-4.2-21.3c-7.3 9.5-15.5 16.1-24.5 19.9z"/>
    <path d="m981.5 154.6v153.1h91.7v34.9h-133v-188z"/>
    <path d="m786.3 366c-63.1 38.4-157.7 60.2-263.2 60.2-190.1 0-344.1-79.1-344.1-176.8 0-97.6 154.1-176.8 344.1-176.8 105.9 0 200.8 22.3 263.9 60.9-68.8-64.7-192.4-110.1-333.6-110.2-216.4 0-391.8 101.2-391.8 226.1s175.4 226.2 391.7 226.2c140.7 0 263.9-45.3 333-109.6z"/>
    <polygon points="326.3 139.9 282.5 296.9 246.2 139.9 211.9 139.9 265.7 344.6 297.9 344.6 343.2 183.8 387.9 344.6 420.2 344.6 475.9 139.9 439.6 139.9 403.3 296.9 359.5 139.9"/>
    <path d="m566.5 226.1c-5-7.1-11.3-12.5-18.7-16.2-7.6-3.8-16.4-5.7-26.2-5.7-11 0-20.9 2-29.5 5.9-8.1 3.7-15 9.2-20.6 16.3-10.3 13.1-15.7 31.6-15.7 53.5 0 9.7 1.4 18.9 4.1 27.1 2.7 8.3 6.8 15.6 12 21.7 11 12.8 26.7 19.6 45.4 19.6 9.8 0 17.8-1 24.5-3.1 5.8-1.8 9.7-4.2 12.9-6.3 4.1-2.7 7.8-6 11.2-9.8 2.8-3.3 5.3-6.9 7.5-10.8 3.8-7 5.7-13.6 6.1-17l0.3-2.3h-26.7l-0.1 1.9c-0.7 8.7-12.1 24.2-32.4 24.2-29 0-35.9-21-36.4-39.5h97.2v-2.1c0-11.9-1.2-22.8-3.6-32.3-2.7-9.9-6.4-18.3-11.3-25.1zm-48 2.1c21.5 0 33 11.6 35.1 35.4h-69.6c1.1-19.3 16.4-35.4 34.5-35.4z"/>
    <path d="m715.7 245.7c-2.6-8.3-6.4-15.6-11.3-21.7-5.1-6.3-11.3-11.2-18.4-14.6-7.4-3.5-15.7-5.3-24.7-5.3-8.3 0.1-15.8 1.9-22.4 5.4-5.5 2.8-10.4 6.8-14.6 11.8v-62.8h-26.6v186h25.3v-12.7c2.2 2.9 5.1 6 8.9 8.7 7.2 5.2 16.1 7.8 26.4 7.8 11.1 0 21.1-2.5 29.5-7.4 7.5-4.4 13.9-10.7 18.9-18.7 4.4-7 7.7-15.3 9.9-24.6 1.9-8 2.9-16.8 2.9-25.4 0.1-9.3-1.2-18.3-3.8-26.5zm-23.9 30.2c0 14.6-2.9 26.8-8.5 35.4-5.9 9.1-14.5 13.7-25.5 13.7-15.9 0-34.5-11.1-34.5-42.5 0-15 1.9-26.6 5.7-35.4 5.5-12.7 14.8-18.8 28.3-18.8 14.4 0 24.1 5.6 29.5 17.3 4.4 9.6 5 21.3 5 30.3z"/>
   </g>
   <g transform="matrix(.035845 0 0 .035845 55.991 24.535)">
    <g stroke-width="17.885">
     <path d="m724.1 385.06h-40.57v-129.66c12.96 7.22 30.09 20.54 40.57 33.32z"/>
     <path d="m381.75 385.06h-50.58l-66.01-204.03h46.01l45.44 143.45h0.57l46-143.45h46.29z"/>
     <path d="m585.51 385.06h-38.58v-20.57h-0.85c-5.15 8.58-11.81 14.77-20.01 18.58-8.19 3.81-16.57 5.71-25.15 5.71-10.86 0-19.76-1.43-26.72-4.28-6.95-2.85-12.43-6.91-16.43-12.14-4.01-5.24-6.82-11.62-8.44-19.15-1.61-7.52-2.42-15.86-2.42-25v-90.88h40.58v83.44c0 12.19 1.91 21.29 5.72 27.29 3.81 6.01 10.57 9 20.29 9 11.05 0 19.05-3.28 24-9.86 4.96-6.58 7.43-17.39 7.43-32.44v-77.44h40.59v147.74z"/>
     <polygon points="836.19 385.06 787.04 385.06 730.84 296.19 730.74 290.47 781.89 237.33 829.91 237.33 774.18 291.62"/>
     <path d="m843.62 282.76c0.57-9.52 2.96-17.43 7.15-23.72s9.52-11.33 16-15.14 13.77-6.53 21.87-8.14c8.09-1.62 16.24-2.43 24.43-2.43 7.43 0 14.95 0.52 22.57 1.57 7.63 1.05 14.57 3.1 20.86 6.15 6.28 3.05 11.43 7.29 15.44 12.71 4 5.43 6 12.62 6 21.58v76.87c0 6.67 0.38 13.06 1.14 19.15 0.76 6.1 2.1 10.67 4.01 13.72h-41.15c-0.76-2.28-1.38-4.62-1.86-7-0.47-2.38-0.81-4.8-1-7.29-6.48 6.68-14.11 11.34-22.87 14.01-8.76 2.66-17.72 4-26.86 4-7.05 0-13.63-0.86-19.71-2.57-6.1-1.71-11.44-4.38-16-8-4.58-3.62-8.16-8.19-10.72-13.72-2.57-5.52-3.86-12.09-3.86-19.71 0-8.38 1.48-15.29 4.43-20.72 2.96-5.43 6.76-9.76 11.44-13 4.67-3.24 10-5.67 16-7.29s12.05-2.91 18.14-3.86c6.1-0.94 12.1-1.71 18.01-2.28s11.14-1.43 15.71-2.57c4.58-1.15 8.19-2.81 10.86-5.01 2.67-2.19 3.91-5.38 3.72-9.57 0-4.38-0.72-7.86-2.15-10.43s-3.33-4.57-5.71-6-5.14-2.38-8.29-2.86-6.52-0.72-10.14-0.72c-8 0-14.29 1.71-18.86 5.15-4.57 3.43-7.24 9.14-8 17.15h-40.6zm93.73 30.01c-1.72 1.53-3.86 2.71-6.43 3.57-2.57 0.87-5.33 1.58-8.29 2.15-2.95 0.57-6.05 1.05-9.28 1.43-3.24 0.38-6.48 0.85-9.72 1.43-3.05 0.57-6.05 1.34-9 2.28-2.95 0.96-5.53 2.24-7.72 3.86s-3.95 3.67-5.29 6.14c-1.33 2.48-2 5.62-2 9.43 0 3.62 0.67 6.67 2 9.14 1.34 2.48 3.15 4.43 5.43 5.86 2.29 1.43 4.95 2.43 8 3s6.19 0.85 9.43 0.85c8 0 14.2-1.33 18.58-3.99 4.38-2.67 7.63-5.86 9.71-9.58 2.09-3.71 3.39-7.47 3.85-11.28 0.48-3.81 0.71-6.86 0.72-9.14v-15.15z"/>
     <path d="m1004.2 237.33h38.59v20.57h0.85c5.14-8.57 11.81-14.81 20-18.71 8.19-3.91 16.58-5.86 25.14-5.86 10.87 0 19.77 1.48 26.73 4.43 6.95 2.96 12.42 7.05 16.43 12.29 4 5.24 6.81 11.62 8.43 19.14 1.62 7.53 2.43 15.86 2.43 25.01v90.87h-40.57v-83.44c0-12.2-1.91-21.29-5.71-27.29-3.82-6-10.58-9-20.3-9-11.05 0-19.04 3.29-24 9.86-4.96 6.56-7.43 17.38-7.43 32.43v77.44h-40.58v-147.74z"/>
    </g>
    <g stroke-width="6.9538">
     <path d="m612.37 211.84v173.23h40.58v-150.86c-13.02-7.98-26.59-15.47-40.58-22.37z" fill="#fff" stroke-width="17.885"/>
    </g>
    <path d="m198.43 219.21c23.52-68.89 164.15-94.16 314.15-56.43 89.97 22.62 163.49 66.5 211.51 109.89-21.79-57.55-127.44-139.59-272.91-167.71-164.48-31.8-326.71-3.85-346.79 69.14-14.5 52.73 49.18 114.5 147.66 156.74-44.24-35.82-65.76-76.06-53.62-111.63z" stroke-width="17.885"/>
    <g stroke-width="6.9538">
     <path d="m724.16 247.62v-66.59h-40.59v20.22c17.31 15.46 31.04 31.2 40.59 46.37z" fill="#fff" stroke-width="17.885"/>
    </g>
    <path d="m1215 363.43c0 12.26-9.63 21.89-22.15 21.89-12.4 0-22.29-9.63-22.29-21.89 0-12 9.89-21.63 22.29-21.63 12.52 0 22.15 9.63 22.15 21.63zm-38.9 0c0 9.63 7.12 17.27 16.88 17.27 9.49 0 16.48-7.65 16.48-17.14 0-9.63-6.99-17.41-16.62-17.41-9.62 0.01-16.74 7.79-16.74 17.28zm13.31 11.34h-5.01v-21.63c1.98-0.4 4.75-0.66 8.31-0.66 4.09 0 5.93 0.66 7.52 1.58 1.19 0.92 2.11 2.64 2.11 4.75 0 2.37-1.85 4.22-4.48 5.01v0.26c2.11 0.79 3.3 2.37 3.96 5.27 0.66 3.3 1.05 4.62 1.58 5.41h-5.41c-0.66-0.79-1.05-2.77-1.71-5.27-0.4-2.37-1.71-3.43-4.48-3.43h-2.37v8.71zm0.14-12.26h2.37c2.77 0 5.01-0.92 5.01-3.17 0-1.98-1.45-3.3-4.62-3.3-1.32 0-2.24 0.13-2.77 0.26v6.21z" fill="#fff" stroke-width="17.885"/>
   </g>
  </g>
  <g transform="matrix(1.0615 0 0 1.0615 .11188 -.1212)" stroke-width=".94207">
   <g transform="matrix(.029276 0 0 .029276 4.9664 43.695)">
    <g stroke-width="21.898">
     <path d="m182.04 212.31c3.851-11.769 9.633-22.192 17.334-31.26 7.701-9.067 17.29-16.309 28.753-21.711 11.464-5.404 24.814-8.111 40.046-8.111 15.226 0 28.577 2.708 40.04 8.111 11.463 5.402 21.052 12.644 28.753 21.711s13.483 19.491 17.333 31.26c3.851 11.768 5.782 24.018 5.782 36.749s-1.931 24.986-5.782 36.754c-3.85 11.769-9.632 22.192-17.333 31.261-7.701 9.066-17.29 16.264-28.753 21.581-11.463 5.311-24.814 7.976-40.04 7.976-15.231 0-28.582-2.664-40.046-7.976-11.463-5.317-21.052-12.515-28.753-21.581-7.701-9.068-13.483-19.492-17.334-31.261-3.851-11.768-5.776-24.023-5.776-36.754s1.926-24.981 5.776-36.749zm23.438 64.702c2.513 9.165 6.459 17.412 11.842 24.741 5.379 7.332 12.284 13.223 20.718 17.677 8.427 4.452 18.47 6.673 30.135 6.673 11.66 0 21.702-2.221 30.136-6.673 8.427-4.454 15.333-10.345 20.717-17.677 5.378-7.329 9.323-15.576 11.835-24.741 2.512-9.166 3.769-18.461 3.769-27.886s-1.257-18.713-3.769-27.879-6.458-17.412-11.835-24.747c-5.385-7.328-12.29-13.218-20.717-17.671-8.434-4.453-18.477-6.68-30.136-6.68-11.665 0-21.707 2.227-30.135 6.68-8.434 4.454-15.339 10.344-20.718 17.671-5.384 7.335-9.329 15.581-11.842 24.747-2.512 9.165-3.762 18.454-3.762 27.879s1.25 18.72 3.762 27.886z"/>
     <path d="m397.94 223.48v16.135h0.404c3.296-6.606 8.478-11.411 15.548-14.409 7.07-2.997 14.84-4.496 23.324-4.496 9.419 0 17.625 1.69 24.618 5.07 6.988 3.38 12.795 7.945 17.429 13.699 4.633 5.761 8.124 12.398 10.485 19.918 2.355 7.523 3.535 15.506 3.535 23.949 0 8.444-1.143 16.426-3.416 23.951-2.279 7.523-5.731 14.087-10.365 19.688-4.633 5.601-10.447 10.017-17.435 13.236-6.995 3.221-15.118 4.835-24.385 4.835-2.986 0-6.325-0.307-10.012-0.919-3.692-0.621-7.341-1.614-10.952-2.996-3.61-1.382-7.032-3.271-10.251-5.65-3.219-2.381-5.927-5.335-8.124-8.876h-0.404v61.471h-20.2v-164.61zm71.697 42.337c-1.49-5.292-3.755-10.011-6.81-14.156-3.056-4.144-6.975-7.444-11.754-9.898-4.785-2.455-10.383-3.683-16.803-3.683-6.742 0-12.46 1.308-17.157 3.917-4.703 2.609-8.54 6.02-11.52 10.239-2.979 4.219-5.132 9.018-6.464 14.391-1.332 5.371-1.995 10.818-1.995 16.338 0 5.835 0.7 11.474 2.115 16.919 1.407 5.454 3.642 10.245 6.698 14.391 3.054 4.145 7.006 7.482 11.867 10.012 4.86 2.533 10.738 3.798 17.63 3.798 6.893 0 12.65-1.301 17.271-3.91s8.346-6.062 11.167-10.362c2.816-4.293 4.854-9.202 6.11-14.729 1.25-5.527 1.881-11.202 1.881-17.036-2e-3 -5.524-0.747-10.933-2.236-16.231z"/>
     <path d="m596.31 334.93c-9.129 6.748-20.61 10.121-34.461 10.121-9.759 0-18.224-1.534-25.382-4.6-7.165-3.071-13.186-7.371-18.066-12.898-4.879-5.526-8.54-12.125-10.977-19.804-2.436-7.675-3.812-16.045-4.128-25.099 0-9.055 1.414-17.344 4.254-24.87 2.834-7.524 6.811-14.05 11.931-19.577 5.119-5.527 11.185-9.819 18.192-12.891 7.007-3.071 14.689-4.607 23.041-4.607 10.87 0 19.884 2.195 27.054 6.575 7.172 4.385 12.922 9.961 17.252 16.728 4.331 6.772 7.329 14.155 8.983 22.148 1.654 8 2.323 15.612 2.008 22.841h-91.303c-0.158 5.212 0.467 10.153 1.881 14.828s3.687 8.814 6.83 12.417c3.144 3.601 7.146 6.469 12.019 8.615 4.867 2.147 10.599 3.22 17.195 3.22 8.477 0 15.428-1.917 20.844-5.761 5.416-3.843 8.988-9.683 10.718-17.529h19.821c-2.677 13.348-8.578 23.395-17.706 30.143zm-4.894-76.403c-1.803-4.133-4.234-7.698-7.289-10.683-3.062-2.985-6.672-5.36-10.827-7.124-4.16-1.764-8.749-2.646-13.767-2.646-5.176 0-9.847 0.882-14.001 2.646-4.16 1.764-7.726 4.176-10.706 7.235-2.98 3.065-5.334 6.631-7.058 10.689-1.729 4.059-2.746 8.388-3.061 12.983h69.893c-0.317-4.595-1.377-8.962-3.184-13.1z"/>
     <path d="m648.39 223.48v18.905h0.379c8.369-14.446 21.645-21.675 39.818-21.675 8.055 0 14.769 1.079 20.148 3.232 5.371 2.153 9.715 5.15 13.035 8.994 3.32 3.842 5.65 8.413 6.994 13.717 1.338 5.305 2.014 11.184 2.014 17.641v78.395h-20.199v-80.647c0-7.371-2.211-13.206-6.623-17.511-4.418-4.3-10.484-6.453-18.205-6.453-6.146 0-11.469 0.926-15.963 2.77-4.494 1.845-8.238 4.453-11.23 7.833-2.99 3.38-5.238 7.334-6.734 11.861-1.502 4.533-2.248 9.486-2.248 14.865v67.279h-20.199v-119.21z"/>
     <path d="m870.41 341.39c-9.121 3.757-18.332 5.639-27.623 5.639-14.67 0-27.857-2.5-39.572-7.483-11.717-4.989-21.594-11.86-29.643-20.619-8.049-8.752-14.217-19.04-18.51-30.858-4.291-11.817-6.437-24.561-6.437-38.217 0-14.001 2.141-27.004 6.42-39 4.281-11.991 10.434-22.451 18.463-31.383 8.031-8.932 17.897-15.932 29.605-21.015 11.709-5.076 24.896-7.617 39.566-7.617 9.834 0 19.354 1.449 28.562 4.343 9.211 2.898 17.525 7.154 24.949 12.767 7.422 5.613 13.545 12.533 18.373 20.755 4.83 8.228 7.785 17.665 8.857 28.323h-40.234c-2.506-10.479-7.336-18.344-14.488-23.586-7.158-5.243-15.83-7.864-26.02-7.864-9.48 0-17.529 1.794-24.144 5.384s-11.982 8.408-16.098 14.446c-4.115 6.044-7.107 12.915-8.98 20.619-1.883 7.704-2.816 15.667-2.816 23.895 0 7.883 0.939 15.543 2.82 22.982 1.883 7.438 4.881 14.136 8.996 20.089 4.115 5.951 9.488 10.719 16.115 14.309 6.623 3.59 14.682 5.385 24.178 5.385 13.963 0 24.744-3.44 32.355-10.325 7.613-6.883 12.045-16.863 13.301-29.939h-42.381v-30.791h80.357v101.2h-26.738l-4.281-21.23c-7.511 9.436-15.831 16.036-24.952 19.792z"/>
     <path d="m994.68 155.57v152.37h93.354v34.737h-135.37v-187.11z"/>
     <path d="m795.98 365.94c-64.285 38.205-160.57 59.951-268 59.951-193.55 0-350.45-78.75-350.45-175.9s156.9-175.9 350.45-175.9c107.82 0 204.5 22.149 268.78 60.593-70.17-64.413-195.98-109.67-339.84-109.7-220.32-0.035-398.94 100.68-398.96 224.94-0.019 124.26 178.57 225.03 398.89 225.06 143.28 0.024 268.77-45.092 339.12-109.06z"/>
    </g>
    <g stroke-width="8.514">
     <path d="m1143.8 325.43c0 3.141-0.786 6.067-2.356 8.779s-3.711 4.85-6.423 6.412c-2.712 1.563-5.639 2.345-8.779 2.345-3.126 0-6.045-0.781-8.757-2.345-2.712-1.562-4.854-3.7-6.424-6.412-1.571-2.712-2.355-5.639-2.355-8.779 0-3.126 0.784-6.048 2.355-8.769 1.57-2.72 3.712-4.86 6.424-6.424 2.712-1.562 5.631-2.344 8.757-2.344 3.141 0 6.067 0.781 8.779 2.344 2.712 1.564 4.853 3.704 6.423 6.424 1.57 2.721 2.356 5.643 2.356 8.769zm-3.402 0c0-3.907-1.383-7.244-4.148-10.01-2.767-2.766-6.103-4.148-10.009-4.148-3.907 0-7.244 1.383-10.01 4.148-2.766 2.766-4.148 6.103-4.148 10.01s1.383 7.243 4.148 10.009c2.766 2.766 6.103 4.148 10.01 4.148 3.906 0 7.242-1.383 10.009-4.148 2.765-2.766 4.148-6.102 4.148-10.009zm-22.11-9.377h8.39c2.374 0 4.095 0.478 5.159 1.436 1.064 0.957 1.598 2.24 1.598 3.85 0 1.256-0.406 2.344-1.218 3.264-0.812 0.919-2.092 1.586-3.839 1.999 0.72 0.276 1.249 0.567 1.586 0.873 0.475 0.43 0.973 1.065 1.494 1.908 0.03 0.061 1.041 1.87 3.034 5.424h-5.517c-1.792-3.569-2.995-5.704-3.607-6.401-0.614-0.696-1.227-1.046-1.84-1.046-0.138 0-0.33 0.023-0.574 0.069v7.378h-4.666zm4.666 7.951h2.022c1.348 0 2.299-0.218 2.851-0.654 0.551-0.438 0.827-1 0.827-1.69 0-0.689-0.265-1.253-0.793-1.689-0.529-0.437-1.43-0.654-2.701-0.654h-2.206z" fill="#fff" stroke-width="21.898"/>
    </g>
   </g>
   <g transform="matrix(.028879 0 0 .028879 5.6816 25.932)">
    <g stroke-width="8.631">
     <g fill="#fff">
      <g stroke-width="27.148">
       <path d="m155.2 212.3c3.8-11.8 9.4-22.2 16.9-31.3s16.9-16.3 28.1-21.7 24.2-8.1 39.1-8.1 27.9 2.7 39.1 8.1 20.6 12.6 28.1 21.7 13.2 19.5 16.9 31.3c3.8 11.8 5.7 24 5.7 36.7s-1.9 25-5.7 36.8-9.4 22.2-16.9 31.3-16.9 16.3-28.1 21.6-24.2 8-39.1 8-27.9-2.7-39.1-8-20.6-12.5-28.1-21.6-13.2-19.5-16.9-31.3c-3.8-11.8-5.6-24-5.6-36.8 0-12.7 1.8-24.9 5.6-36.7zm22.9 64.7c2.5 9.2 6.3 17.4 11.6 24.7s12 13.2 20.2 17.7 18 6.7 29.4 6.7 21.2-2.2 29.4-6.7 15-10.3 20.2-17.7c5.3-7.3 9.1-15.6 11.6-24.7 2.5-9.2 3.7-18.5 3.7-27.9s-1.2-18.7-3.7-27.9-6.3-17.4-11.6-24.7-12-13.2-20.2-17.7-18.1-6.7-29.4-6.7c-11.4 0-21.2 2.2-29.4 6.7s-15 10.3-20.2 17.7c-5.3 7.3-9.1 15.6-11.6 24.7-2.5 9.2-3.7 18.5-3.7 27.9 0 9.5 1.2 18.8 3.7 27.9z"/>
       <path d="m366.2 223.5v16.1h0.4c3.2-6.6 8.3-11.4 15.2-14.4s14.5-4.5 22.8-4.5c9.2 0 17.2 1.7 24.1 5.1 6.8 3.4 12.5 7.9 17 13.7s7.9 12.4 10.2 19.9 3.5 15.5 3.5 23.9-1.1 16.4-3.3 24c-2.2 7.5-5.6 14.1-10.1 19.7s-10.2 10-17 13.2-14.8 4.8-23.8 4.8c-2.9 0-6.2-0.3-9.8-0.9s-7.2-1.6-10.7-3-6.9-3.3-10-5.7-5.8-5.3-7.9-8.9h-0.4v61.5h-19.7v-164.5zm70 42.3c-1.5-5.3-3.7-10-6.7-14.2-3-4.1-6.8-7.4-11.5-9.9s-10.1-3.7-16.4-3.7c-6.6 0-12.2 1.3-16.8 3.9s-8.3 6-11.3 10.2c-2.9 4.2-5 9-6.3 14.4s-1.9 10.8-1.9 16.3c0 5.8 0.7 11.5 2.1 16.9 1.4 5.5 3.6 10.2 6.5 14.4 3 4.1 6.8 7.5 11.6 10s10.5 3.8 17.2 3.8 12.4-1.3 16.9-3.9 8.2-6.1 10.9-10.4c2.8-4.3 4.7-9.2 6-14.7 1.2-5.5 1.8-11.2 1.8-17 0.1-5.4-0.6-10.8-2.1-16.1z"/>
       <path d="m560 334.9c-8.9 6.7-20.1 10.1-33.7 10.1-9.5 0-17.8-1.5-24.8-4.6s-12.9-7.4-17.7-12.9-8.3-12.1-10.7-19.8-3.7-16-4-25.1c0-9.1 1.4-17.3 4.2-24.9 2.8-7.5 6.7-14 11.7-19.6 5-5.5 10.9-9.8 17.8-12.9 6.8-3.1 14.4-4.6 22.5-4.6 10.6 0 19.4 2.2 26.4 6.6s12.6 10 16.9 16.7c4.2 6.8 7.2 14.2 8.8 22.1 1.6 8 2.3 15.6 2 22.8h-89.4c-0.2 5.2 0.5 10.2 1.8 14.8 1.4 4.7 3.6 8.8 6.7 12.4s7 6.5 11.7 8.6c4.8 2.1 10.4 3.2 16.8 3.2 8.3 0 15.1-1.9 20.4-5.8 5.3-3.8 8.8-9.7 10.5-17.5h19.4c-2.6 13.6-8.4 23.7-17.3 30.4zm-4.8-76.4c-1.8-4.1-4.1-7.7-7.1-10.7s-6.5-5.4-10.6-7.1c-4.1-1.8-8.5-2.6-13.5-2.6-5.1 0-9.6 0.9-13.7 2.6-4.1 1.8-7.5 4.2-10.5 7.2-2.9 3.1-5.2 6.6-6.9 10.7s-2.7 8.4-3 13h68.3c-0.2-4.6-1.2-8.9-3-13.1z"/>
       <path d="m610.9 223.5v18.9h0.4c8.2-14.4 21.1-21.7 38.9-21.7 7.9 0 14.4 1.1 19.7 3.2 5.2 2.2 9.5 5.1 12.7 9 3.2 3.8 5.5 8.4 6.8 13.7s2 11.2 2 17.6v78.4h-19.7v-80.6c0-7.4-2.2-13.2-6.5-17.5s-10.2-6.5-17.8-6.5c-6 0-11.2 0.9-15.6 2.8-4.4 1.8-8.1 4.5-11 7.8-2.9 3.4-5.1 7.3-6.6 11.9-1.5 4.5-2.2 9.5-2.2 14.9v67.3h-19.7v-119.2z"/>
       <path d="m827.8 341.4c-8.9 3.8-17.9 5.6-27 5.6-14.3 0-27.2-2.5-38.7-7.5-11.4-5-21.1-11.9-29-20.6-7.9-8.8-13.9-19-18.1-30.9-4.2-11.8-6.3-24.6-6.3-38.2 0-14 2.1-27 6.3-39s10.2-22.5 18-31.4 17.5-15.9 28.9-21 24.3-7.6 38.7-7.6c9.6 0 18.9 1.5 27.9 4.3 9 2.9 17.1 7.2 24.4 12.8s13.2 12.5 18 20.8c4.7 8.2 7.6 17.7 8.7 28.3h-39.3c-2.4-10.5-7.2-18.3-14.2-23.6-7-5.2-15.5-7.9-25.4-7.9-9.3 0-17.1 1.8-23.6 5.4s-11.7 8.4-15.7 14.4-6.9 12.9-8.8 20.6c-1.8 7.7-2.8 15.7-2.8 23.9 0 7.9 0.9 15.5 2.8 23s4.8 14.1 8.8 20.1 9.3 10.7 15.7 14.3c6.5 3.6 14.3 5.4 23.6 5.4 13.6 0 24.2-3.4 31.6-10.3s11.8-16.9 13-29.9h-41.3v-30.8h78.5v101.2h-26.1l-4.2-21.2c-7.3 9.4-15.5 16-24.4 19.8z"/>
       <polygon points="1040.5 342.7 908.2 342.7 908.2 155.6 949.3 155.6 949.3 307.9 1040.5 307.9"/>
       <path d="m755.1 365.9c-62.8 38.2-156.9 59.9-261.9 59.9-189.1 0-342.4-78.8-342.4-175.9s153.3-175.9 342.4-175.9c105.4 0 199.8 22.1 262.6 60.6-68.5-64.3-191.4-109.6-332-109.6-215.3 0-389.8 100.7-389.8 224.9 0 124.3 174.5 225.1 389.7 225.1 140 0 262.7-45.1 331.4-109.1z"/>
       <polygon points="1244.8 307.8 1244.8 342.4 1102.8 342.4 1102.8 155.2 1242.7 155.2 1242.7 189.8 1143.9 189.8 1143.9 229.9 1234.6 229.9 1234.6 261.9 1143.9 261.9 1143.9 307.8"/>
       <path d="m1292.8 280.2c0 24.9 19.4 34.6 41.4 34.6 14.4 0 36.4-4.2 36.4-23.3 0-20.2-28-23.6-55.6-30.9-27.8-7.3-55.8-18.1-55.8-53.2 0-38.3 36.2-56.6 70-56.6 39.1 0 75 17 75 60.3h-39.8c-1.3-22.5-17.3-28.3-37-28.3-13.1 0-28.3 5.5-28.3 21.2 0 14.4 8.9 16.3 55.8 28.3 13.6 3.4 55.6 12.1 55.6 54.5 0 34.3-27 60-77.8 60-41.4 0-80.2-20.4-79.7-66.6z"/>
      </g>
      <g shape-rendering="auto" stroke-width="8.1428">
       <path d="m1070.5 102.9v293.6" color="#000000" color-rendering="auto" dominant-baseline="auto" image-rendering="auto" solid-color="#000000" stop-color="#000000" style="font-feature-settings:normal;font-variant-alternates:normal;font-variant-caps:normal;font-variant-east-asian:normal;font-variant-ligatures:normal;font-variant-numeric:normal;font-variant-position:normal;font-variation-settings:normal;inline-size:0;isolation:auto;mix-blend-mode:normal;shape-margin:0;shape-padding:0;text-decoration-color:#000000;text-decoration-line:none;text-decoration-style:solid;text-indent:0;text-orientation:mixed;text-transform:none;white-space:normal"/>
       <path d="m1070.5 97.078a5.8225 5.8225 0 0 0-5.8223 5.8223v293.6a5.8225 5.8225 0 0 0 5.8223 5.8223 5.8225 5.8225 0 0 0 5.8223-5.8223v-293.6a5.8225 5.8225 0 0 0-5.8223-5.8223z" color="#000000" color-rendering="auto" dominant-baseline="auto" image-rendering="auto" solid-color="#000000" stop-color="#000000" style="font-feature-settings:normal;font-variant-alternates:normal;font-variant-caps:normal;font-variant-east-asian:normal;font-variant-ligatures:normal;font-variant-numeric:normal;font-variant-position:normal;font-variation-settings:normal;inline-size:0;isolation:auto;mix-blend-mode:normal;shape-margin:0;shape-padding:0;text-decoration-color:#000000;text-decoration-line:none;text-decoration-style:solid;text-indent:0;text-orientation:mixed;text-transform:none;white-space:normal"/>
      </g>
     </g>
    </g>
    <g stroke-width="27.148">
     <path d="m1436 160.6h-7.3v18.9h-6.3v-18.9h-7.3v-5.5h20.9z"/>
     <path d="m1438.9 155.2h9.3l4.2 16.2h0.1l4.2-16.2h9.3v24.4h-6v-18.6h-0.1l-5.1 18.5h-4.8l-5.1-18.5h-0.1v18.5h-6v-24.3z"/>
    </g>
    <g stroke-width="8.631">
     <path d="m1003.8 172.5c0 3.1-0.8 6.1-2.4 8.8s-3.7 4.9-6.4 6.4c-2.7 1.6-5.6 2.3-8.8 2.3-3.1 0-6-0.8-8.8-2.3-2.7-1.6-4.9-3.7-6.4-6.4-1.6-2.7-2.4-5.6-2.4-8.8 0-3.1 0.8-6 2.4-8.8 1.6-2.7 3.7-4.9 6.4-6.4 2.7-1.6 5.6-2.3 8.8-2.3 3.1 0 6.1 0.8 8.8 2.3 2.7 1.6 4.9 3.7 6.4 6.4 1.6 2.8 2.4 5.7 2.4 8.8zm-3.4 0c0-3.9-1.4-7.2-4.1-10-2.8-2.8-6.1-4.1-10-4.1s-7.2 1.4-10 4.1c-2.8 2.8-4.1 6.1-4.1 10s1.4 7.2 4.1 10c2.8 2.8 6.1 4.1 10 4.1s7.2-1.4 10-4.1c2.7-2.7 4.1-6.1 4.1-10zm-22.1-9.3h8.4c2.4 0 4.1 0.5 5.2 1.4 1.1 1 1.6 2.2 1.6 3.9 0 1.3-0.4 2.3-1.2 3.3-0.8 0.9-2.1 1.6-3.8 2 0.7 0.3 1.2 0.6 1.6 0.9 0.5 0.4 1 1.1 1.5 1.9 0 0.1 1 1.9 3 5.4h-5.6c-1.8-3.6-3-5.7-3.6-6.4s-1.2-1-1.8-1c-0.1 0-0.3 0-0.6 0.1v7.4h-4.7zm4.7 7.9h2c1.3 0 2.3-0.2 2.9-0.7 0.6-0.4 0.8-1 0.8-1.7s-0.3-1.3-0.8-1.7-1.4-0.7-2.7-0.7h-2.2z" fill="#fff" stroke-width="27.148"/>
    </g>
   </g>
  </g>
  <g transform="matrix(1.0559 0 0 1.0671 .11188 -.20755)" stroke-width=".24925px" aria-label="CANVAS">
   <path d="m121.81 58.076 8e-3 0.02421q0.0161 0.86338-0.56483 1.3798-0.58097 0.51642-1.525 0.51642-0.98039 0-1.5815-0.70604-0.60114-0.71007-0.60114-1.8357v-0.95618q0-1.1216 0.60114-1.8317 0.60114-0.71411 1.5815-0.71411 0.95618 0 1.5291 0.50431 0.57694 0.50431 0.5608 1.3879l-8e-3 0.02421h-0.45186q0-0.71007-0.43573-1.1055-0.43169-0.39942-1.1942-0.39942-0.77059 0-1.2386 0.59711-0.46397 0.59711-0.46397 1.5291v0.96425q0 0.94407 0.46397 1.5412 0.468 0.59307 1.2386 0.59307 0.76252 0 1.1942-0.38731 0.43573-0.38731 0.43573-1.1256z"/>
   <path d="m126.13 58.273h-2.578l-0.59308 1.638h-0.50027l2.1585-5.8742h0.45589l2.1423 5.8742h-0.50027zm-2.4247-0.43169h2.2674l-1.1135-3.1146h-0.0242z"/>
   <path d="m132.45 59.911h-0.48414l-3.3365-5.027-0.0242 4e-3v5.023h-0.48414v-5.8742h0.48414l3.3365 5.0149 0.0242-4e-3v-5.0109h0.48414z"/>
   <path d="m135.6 58.883 0.117 0.41152h0.0242l0.117-0.41152 1.7671-4.8454h0.52045l-2.1867 5.8742h-0.45993l-2.1867-5.8742h0.52449z"/>
   <path d="m141.78 58.273h-2.578l-0.59307 1.638h-0.50028l2.1585-5.8742h0.4559l2.1423 5.8742h-0.50028zm-2.4247-0.43169h2.2674l-1.1135-3.1146h-0.0242z"/>
   <path d="m147.09 58.483q0-0.45186-0.35907-0.74638t-1.2184-0.55273q-0.94004-0.25821-1.4322-0.64149-0.48817-0.38731-0.48817-1.049 0-0.67376 0.54869-1.1055 0.54869-0.43573 1.4-0.43573 0.89566 0 1.4403 0.49221 0.54466 0.48817 0.52852 1.2426l-8e-3 0.02421h-0.45186q0-0.58097-0.42363-0.96425-0.41958-0.38328-1.0853-0.38328-0.68586 0-1.0772 0.32679-0.38731 0.32276-0.38731 0.7948 0 0.44783 0.351 0.73831 0.35504 0.28645 1.2467 0.53659 0.92794 0.27031 1.4161 0.66569 0.48818 0.39538 0.48818 1.049 0 0.68587-0.5729 1.1055-0.56887 0.41555-1.4363 0.41555-0.86741 0-1.5129-0.43976-0.64552-0.4438-0.62535-1.291l8e-3 -0.02421h0.44783q0 0.68183 0.51238 1.0167 0.51238 0.33083 1.17 0.33083 0.67377 0 1.0974-0.30662 0.42362-0.31066 0.42362-0.79883z"/>
  </g>
  <g transform="matrix(1.0559 0 0 1.0671 .11188 -.20755)" stroke-width=".24925px" aria-label="DOM">
   <path d="m176.72 59.911v-5.8742h1.7913q1.0772 0 1.7792 0.71814 0.70604 0.71814 0.70604 1.8438v0.75445q0 1.1256-0.70604 1.8438-0.702 0.71411-1.7792 0.71411zm0.48414-5.4627v5.0552h1.3072q0.87145 0 1.4363-0.60921 0.56483-0.60921 0.56483-1.5412v-0.76656q0-0.91987-0.56887-1.5291-0.56483-0.60921-1.4322-0.60921z"/>
   <path d="m186.6 57.454q0 1.1377-0.62535 1.8397-0.62131 0.702-1.6703 0.702-1.0328 0-1.6501-0.702-0.61325-0.702-0.61325-1.8397v-0.95618q0-1.1337 0.61325-1.8397 0.61324-0.70604 1.6461-0.70604 1.049 0 1.6743 0.70604 0.62535 0.70604 0.62535 1.8397zm-0.48011-0.96425q0-0.95214-0.48414-1.5331-0.4801-0.58097-1.3354-0.58097-0.83917 0-1.3072 0.58097-0.468 0.58097-0.468 1.5331v0.96425q0 0.96021 0.468 1.5412 0.47204 0.58097 1.3112 0.58097 0.85935 0 1.3354-0.57693 0.4801-0.58097 0.4801-1.5452z"/>
   <path d="m190.68 59.209h0.0242l2.1867-5.1722h0.58904v5.8742h-0.48414v-4.9342l-0.0242-4e-3 -2.106 4.9382h-0.34697l-2.1544-5.0593-0.0242 4e-3v5.0552h-0.48415v-5.8742h0.64552z"/>
  </g>
  <g transform="matrix(.053229 0 0 .053229 126.45 28.019)">
   <g stroke-width="21.968">
    <path d="m119.39 20.312h21.298v21.045h19.485v-21.045h21.303v63.727h-21.303v-21.339h-19.485v21.338h-21.298z"/>
    <path d="m209.48 41.444h-18.754v-21.132h58.812v21.133h-18.759v42.594h-21.3v-42.595z"/>
    <path d="m258.88 20.312h22.21l13.661 22.392 13.648-22.392h22.219v63.727h-21.212v-31.586l-14.655 22.658h-0.366l-14.665-22.658v31.585h-20.84z"/>
    <path d="m341.22 20.312h21.308v42.664h29.955v21.062h-51.263z"/>
    <path d="m200.66 266.68h55.338v-42.92h-59.169zm-111.98-154.69 30.47 341.74 136.76 37.966 136.89-37.948 30.507-341.76h-334.63zm278.01 320-110.69 30.687v-43.494l-0.067 0.02-85.858-23.835-6.004-67.298h42.075l3.116 34.914 46.68 12.607 0.059-0.019v-66.973h-93.669l-11.306-126.75h104.97v-41.914h136.77z"/>
    <path d="m307.59 308.59h-51.592v66.974l46.728-12.613zm-51.592-168.66v41.914h104.98l-3.754 41.915h-101.22v42.92h97.406l-11.499 128.68-85.907 23.815v43.494l110.69-30.687 26.071-292.06h-136.76z" opacity=".8"/>
   </g>
   <g opacity=".2" stroke-width="57.603">
    <polygon points="256 181.84 151.02 181.84 162.33 308.59 256 308.59 256 266.68 200.66 266.68 196.83 223.76 256 223.76"/>
    <polygon points="256 375.56 255.94 375.58 209.26 362.98 206.15 328.06 164.07 328.06 170.07 395.36 255.93 419.19 256 419.17"/>
   </g>
  </g>
  <g transform="matrix(.053229 0 0 .053229 181.93 28.019)">
   <g stroke-width="21.968">
    <path d="m119.39 20.312h21.298v21.045h19.485v-21.045h21.303v63.727h-21.303v-21.339h-19.485v21.338h-21.298z"/>
    <path d="m209.48 41.444h-18.754v-21.132h58.812v21.133h-18.759v42.594h-21.3v-42.595z"/>
    <path d="m258.88 20.312h22.21l13.661 22.392 13.648-22.392h22.219v63.727h-21.212v-31.586l-14.655 22.658h-0.366l-14.665-22.658v31.585h-20.84z"/>
    <path d="m341.22 20.312h21.308v42.664h29.955v21.062h-51.263z"/>
    <path d="m200.66 266.68h55.338v-42.92h-59.169zm-111.98-154.69 30.47 341.74 136.76 37.966 136.89-37.948 30.507-341.76h-334.63zm278.01 320-110.69 30.687v-43.494l-0.067 0.02-85.858-23.835-6.004-67.298h42.075l3.116 34.914 46.68 12.607 0.059-0.019v-66.973h-93.669l-11.306-126.75h104.97v-41.914h136.77z"/>
    <path d="m307.59 308.59h-51.592v66.974l46.728-12.613zm-51.592-168.66v41.914h104.98l-3.754 41.915h-101.22v42.92h97.406l-11.499 128.68-85.907 23.815v43.494l110.69-30.687 26.071-292.06h-136.76z" opacity=".8"/>
   </g>
   <g opacity=".2" stroke-width="57.603">
    <polygon points="196.83 223.76 256 223.76 256 181.84 151.02 181.84 162.33 308.59 256 308.59 256 266.68 200.66 266.68"/>
    <polygon points="255.93 419.19 256 419.17 256 375.56 255.94 375.58 209.26 362.98 206.15 328.06 164.07 328.06 170.07 395.36"/>
   </g>
  </g>
 </g>
 <path d="m5.2335 3.0135c-1.1761 0-2.1228 0.94672-2.1228 2.1228v11.802c0 1.1761 0.94672 2.1228 2.1228 2.1228h19.214l1.6741 1.7515 2.9554 2.8579 3.0116-2.8386 1.7372-1.7707h46.093l1.6741 1.7515 2.9554 2.8579 3.0116-2.8386 1.7372-1.7707h46.093l1.6741 1.7515 2.9554 2.8579 3.0116-2.8386 1.7372-1.7707h46.093l1.6741 1.7515 2.9554 2.8579 3.0116-2.8386 1.7372-1.7707h19.253c1.1761 0 2.1228-0.94672 2.1228-2.1228v-11.802c0-1.1761-0.94669-2.1228-2.1228-2.1228h-214.26z" color="#000000" fill="#19afff" fill-rule="evenodd" stroke-width=".26458"/>
 <g transform="matrix(1.0615 0 0 1.0615 6.3247 -.20755)" fill="#fff">
  <g stroke-width=".24925px" aria-label="UX Components">
   <path d="m73.923 6.6878v4.9971q0 1.2402-0.75964 1.9379-0.75964 0.69763-1.9534 0.69763-1.1782 0-1.9275-0.69763-0.74414-0.7028-0.74414-1.9379v-4.9971h0.62012v4.9971q0 0.97151 0.57361 1.5451 0.57877 0.56844 1.4779 0.56844 0.91984 0 1.5089-0.56844t0.58911-1.5451v-4.9971z"/>
   <path d="m78.031 9.9021 2.1239-3.2143h0.74931l-2.5011 3.7104 2.5838 3.8137h-0.73897l-2.2066-3.3176-2.2014 3.3176h-0.7493l2.5838-3.8137-2.5063-3.7104h0.74931z"/>
   <path d="m90.005 11.861 0.01033 0.03101q0.02067 1.1059-0.72347 1.7673t-1.9534 0.66146q-1.2557 0-2.0257-0.90434-0.76998-0.9095-0.76998-2.3513v-1.2247q0-1.4366 0.76998-2.3461 0.76998-0.91467 2.0257-0.91467 1.2247 0 1.9585 0.64595 0.73897 0.64595 0.7183 1.7777l-0.01033 0.031006h-0.57878q0-0.9095-0.5581-1.4159-0.55294-0.5116-1.5296-0.5116-0.98702 0-1.5865 0.76481-0.59428 0.76481-0.59428 1.9585v1.2351q0 1.2092 0.59428 1.974 0.59944 0.75964 1.5865 0.75964 0.97668 0 1.5296-0.49609 0.5581-0.49609 0.5581-1.4418z"/>
   <path d="m91.111 11.334q0-1.2351 0.67696-2.0257 0.67696-0.79065 1.7932-0.79065 1.1214 0 1.7983 0.79065 0.67696 0.79065 0.67696 2.0257v0.17053q0 1.2402-0.67696 2.0309-0.67179 0.78548-1.788 0.78548-1.1265 0-1.8035-0.78548-0.67696-0.79065-0.67696-2.0309zm0.62012 0.17053q0 0.97151 0.49092 1.633 0.49092 0.66146 1.3694 0.66146 0.86299 0 1.3539-0.66146 0.49609-0.66146 0.49609-1.633v-0.17053q0-0.95601-0.49609-1.6226t-1.3643-0.66662q-0.86816 0-1.3591 0.66662-0.49092 0.66662-0.49092 1.6226z"/>
   <path d="m97.875 8.6205 0.05684 0.91984q0.26872-0.48576 0.71313-0.75447 0.44958-0.26872 1.0645-0.26872 0.64079 0 1.0697 0.31006 0.42892 0.30489 0.61495 0.93534 0.25321-0.58394 0.7183-0.91467 0.47025-0.33073 1.1317-0.33073 0.894 0 1.3798 0.59428 0.49092 0.59428 0.49092 1.8397v3.2608h-0.62011v-3.2711q0-1.0335-0.36691-1.4573-0.3669-0.42891-1.0128-0.42891-0.70797 0-1.0955 0.43408-0.38757 0.42891-0.49092 1.111 0 0.05684 0 0.11369 5e-3 0.05684 5e-3 0.14469v3.3538h-0.62529v-3.2711q0-1.0129-0.37207-1.4469-0.3669-0.43925-1.0129-0.43925-0.65112 0-1.0387 0.33073-0.3824 0.32556-0.53743 0.88366v3.9429h-0.61994v-5.5914z"/>
   <path d="m111.23 11.571q0 1.2557-0.56844 2.005-0.56844 0.74414-1.5658 0.74414-0.58394 0-1.0284-0.22221-0.43925-0.22221-0.7183-0.63045v2.8939h-0.62011v-7.7411h0.47542l0.11369 0.87333q0.27905-0.46509 0.72346-0.7183 0.44442-0.25838 1.0439-0.25838 1.0077 0 1.5761 0.80615 0.56844 0.80098 0.56844 2.1394zm-0.62012-0.10852q0-1.0645-0.42374-1.7363-0.42375-0.67179-1.2402-0.67179-0.61495 0-1.0077 0.29455-0.38757 0.29455-0.58911 0.76481v2.7078q0.21704 0.45475 0.61495 0.7183 0.39791 0.25838 0.99218 0.25838 0.81132 0 1.2299-0.60978 0.42374-0.60978 0.42374-1.6175z"/>
   <path d="m112.28 11.334q0-1.2351 0.67696-2.0257 0.67696-0.79065 1.7932-0.79065 1.1214 0 1.7983 0.79065 0.67696 0.79065 0.67696 2.0257v0.17053q0 1.2402-0.67696 2.0309-0.67179 0.78548-1.788 0.78548-1.1265 0-1.8035-0.78548-0.67696-0.79065-0.67696-2.0309zm0.62012 0.17053q0 0.97151 0.49092 1.633 0.49092 0.66146 1.3694 0.66146 0.86299 0 1.3539-0.66146 0.49609-0.66146 0.49609-1.633v-0.17053q0-0.95601-0.49609-1.6226t-1.3642-0.66662q-0.86817 0-1.3591 0.66662t-0.49092 1.6226z"/>
   <path d="m119.06 8.6205 0.0568 0.97151q0.27389-0.5116 0.72864-0.79065 0.45475-0.28422 1.08-0.28422 0.9095 0 1.3849 0.5581 0.47543 0.55294 0.47543 1.7312v3.4055h-0.62012v-3.4003q0-0.96118-0.36173-1.3591-0.35657-0.39791-1.018-0.39791-0.66145 0-1.0697 0.32556-0.40308 0.32556-0.58395 0.87333v3.9584h-0.62011v-5.5914z"/>
   <path d="m126.53 14.32q-1.0852 0-1.7622-0.76481-0.67696-0.76998-0.67696-1.974v-0.28422q0-1.2092 0.68212-1.9947 0.6873-0.78548 1.7002-0.78548 1.018 0 1.571 0.65629 0.55811 0.65112 0.55811 1.757v0.48059h-3.8912v0.17053q0 0.95601 0.48059 1.5865 0.48576 0.63045 1.3384 0.63045 0.51159 0 0.94051-0.16536 0.42891-0.17053 0.71313-0.45475l0.26355 0.42374q-0.29456 0.31006-0.77515 0.51676-0.47542 0.20154-1.142 0.20154zm-0.0568-5.2761q-0.71313 0-1.173 0.5116-0.45992 0.51159-0.53743 1.2971l0.0155 0.03101h3.2039v-0.12919q0-0.74414-0.39274-1.2247-0.38757-0.48576-1.1162-0.48576z"/>
   <path d="m130.41 8.6205 0.0568 0.97151q0.27388-0.5116 0.72863-0.79065 0.45475-0.28422 1.08-0.28422 0.9095 0 1.3849 0.5581 0.47542 0.55294 0.47542 1.7312v3.4055h-0.62011v-3.4003q0-0.96118-0.36174-1.3591-0.35656-0.39791-1.018-0.39791-0.66145 0-1.0697 0.32556-0.40307 0.32556-0.58394 0.87333v3.9584h-0.62006v-5.5914z"/>
   <path d="m136.72 7.1891v1.4314h1.2299v0.50643h-1.2299v3.6432q0 0.54777 0.19637 0.78031 0.20154 0.22738 0.53227 0.22738 0.11368 0 0.21704-0.01033 0.10852-0.0155 0.25321-0.04651l0.093 0.45992q-0.12403 0.06201-0.31006 0.09818-0.18087 0.04134-0.36174 0.04134-0.5891 0-0.91983-0.37207-0.32556-0.37207-0.32556-1.1782v-3.6432h-0.96635v-0.50643h0.96635v-1.4314z"/>
   <path d="m142.51 12.78q0-0.39274-0.32556-0.68213-0.32039-0.29456-1.1627-0.48059-0.99219-0.2067-1.4779-0.56327-0.48059-0.36173-0.48059-1.0077 0-0.64079 0.53743-1.0852 0.5426-0.44442 1.4314-0.44442 0.93534 0 1.4934 0.47542 0.5581 0.47025 0.53226 1.1627l-0.0103 0.03101h-0.57361q0-0.45992-0.39791-0.80098-0.39274-0.34106-1.0439-0.34106-0.67179 0-1.0128 0.29455-0.34106 0.29455-0.34106 0.68729 0 0.3824 0.28938 0.63562 0.29456 0.24805 1.1679 0.43925 0.98185 0.21704 1.4831 0.60461 0.50642 0.38757 0.50642 1.0439 0 0.69763-0.56844 1.1369-0.56327 0.43408-1.4934 0.43408-1.018 0-1.602-0.48576-0.57878-0.48576-0.54777-1.1575l0.0103-0.03101h0.56844q0.0362 0.60461 0.49093 0.8785 0.45991 0.27388 1.08 0.27388 0.67179 0 1.0594-0.29972 0.38757-0.29972 0.38757-0.7183z"/>
  </g>
  <path d="m59.25 9.0852c-0.8782 9e-7 -1.59 0.71185-1.59 1.5901 0 0.8782 0.71184 1.5902 1.59 1.5902 0.5431 0 1.2143-0.60782 1.648-1.0719 0.43368 0.4641 1.1049 1.0719 1.648 1.0719 0.87821-3e-6 1.5902-0.71203 1.5902-1.5902 0-0.87821-0.712-1.5901-1.5902-1.5901-0.5431-1e-6 -1.2143 0.60781-1.648 1.0719-0.43368-0.4641-1.1049-1.0719-1.648-1.0719zm0 0.77291c0.45135-1.4e-6 1.1527 0.81714 1.1527 0.81714s-0.70132 0.8173-1.1527 0.8173c-0.45134 0-0.81711-0.36595-0.81711-0.8173 0-0.45134 0.3658-0.81714 0.81711-0.81714zm3.2961 0c0.45135 0 0.8173 0.3658 0.8173 0.81714 0 0.45135-0.36595 0.8173-0.8173 0.8173-0.45134 1e-6 -1.1525-0.8173-1.1525-0.8173s0.70117-0.81714 1.1525-0.81714zm2.5299 0.81722c1e-6 2.841 0.37141 2.1977-2.089 3.6182-2.4604 1.4205-1.7176 1.4205-4.1779 1e-6 -2.4604-1.4205-2.089-0.7772-2.089-3.6182-1e-6 -2.841-0.37141-2.1977 2.089-3.6182 2.4604-1.4205 1.7176-1.4205 4.1779-9e-7 2.4604 1.4205 2.089 0.7772 2.089 3.6182z" stroke-width=".76033"/>
 </g>
</svg>
