<?xml version="1.0" encoding="UTF-8"?>
<svg class="icon" width="800" height="132" p-id="1137" t="1592727113403" version="1.1" viewBox="0 0 8192 1351.7" xmlns="http://www.w3.org/2000/svg" xmlns:cc="http://creativecommons.org/ns#" xmlns:dc="http://purl.org/dc/elements/1.1/" xmlns:rdf="http://www.w3.org/1999/02/22-rdf-syntax-ns#">
 <metadata>
  <rdf:RDF>
   <cc:Work rdf:about="">
    <dc:format>image/svg+xml</dc:format>
    <dc:type rdf:resource="http://purl.org/dc/dcmitype/StillImage"/>
    <dc:title/>
   </cc:Work>
  </rdf:RDF>
 </metadata>
 <defs>
  <style type="text/css"></style>
 </defs>
 <g transform="matrix(19.29 0 0 19.29 -772.45 -1171.6)">
  <g transform="matrix(1.2125,0,0,1.2125,129.1,-55.831)" stroke-width="12.95">
   <polygon class="cls-1" transform="matrix(.26458 0 0 .26458 77.173 99.799)" points="171.3 156.1 185.6 33.3 92.4 0 0 33.3 14 156.1 92.4 200" fill="#dd1b16"/>
   <polygon class="cls-2" transform="matrix(.26458 0 0 .26458 77.173 99.799)" points="185.6 33.3 92.4 0 92.4 22.2 92.4 123.2 92.4 200 171.3 156.1" fill="#a6120d"/>
  </g>
  <path d="m252.31 62.038-31.465 11.235 0.13251 1.1617 4.5959 40.205 26.738 14.864 26.77-14.862 4.834-41.369zm2e-3 3.133 28.392 10.091-4.3858 37.536-24.006 13.328-23.973-13.326-4.2906-37.538z" color="#000000" color-rendering="auto" dominant-baseline="auto" fill="#b3b3b3" image-rendering="auto" shape-rendering="auto" solid-color="#000000" stop-color="#000000" stroke-width="30.377" style="font-feature-settings:normal;font-variant-alternates:normal;font-variant-caps:normal;font-variant-east-asian:normal;font-variant-ligatures:normal;font-variant-numeric:normal;font-variant-position:normal;font-variation-settings:normal;inline-size:0;isolation:auto;mix-blend-mode:normal;shape-margin:0;shape-padding:0;text-decoration-color:#000000;text-decoration-line:none;text-decoration-style:solid;text-indent:0;text-orientation:mixed;text-transform:none;white-space:normal"/>
  <g transform="translate(-12.075,-44.045)" fill="#f2f2f2" stroke-width="30.377" style="font-variant-caps:normal;font-variant-east-asian:normal;font-variant-ligatures:normal;font-variant-numeric:normal" aria-label="R">
   <path d="m258.07 126.13v10.558h15.357v-10.558zm3.7242 16.317h-3.7242v16.317h-5.759v-32.635h-3.8394v-5.759h30.715v22.076h-9.8672l11.672 16.317h-7.5252z" fill="#f2f2f2" stroke-width=".53087px" style="font-variant-caps:normal;font-variant-east-asian:normal;font-variant-ligatures:normal;font-variant-numeric:normal"/>
  </g>
  <path transform="scale(.26458)" d="m953.63 288.46v21.766h34.17v39.906h-34.17v35.463l34.316 47.975h28.441l-44.113-61.672h37.293v-83.438z" fill="#b3b3b3" stroke-width="2.0064"/>
 </g>
</svg>
