<?xml version="1.0" encoding="UTF-8"?>
<svg class="icon" width="850" height="430" p-id="1137" t="1592727113403" version="1.1" viewBox="0 0 8704 4403.3" xmlns="http://www.w3.org/2000/svg" xmlns:cc="http://creativecommons.org/ns#" xmlns:dc="http://purl.org/dc/elements/1.1/" xmlns:rdf="http://www.w3.org/1999/02/22-rdf-syntax-ns#">
 <metadata>
  <rdf:RDF>
   <cc:Work rdf:about="">
    <dc:format>image/svg+xml</dc:format>
    <dc:type rdf:resource="http://purl.org/dc/dcmitype/StillImage"/>
    <dc:title/>
   </cc:Work>
  </rdf:RDF>
 </metadata>
 <defs>
  <style type="text/css">@import url('https://fonts.googleapis.com/css?family=Roboto:400,100,100italic,300,300italic,400italic,500,500italic,700,700italic,900,900italic');</style>
 </defs>
 <rect x="-.098837" width="8704.2" height="4403.3" rx="40.961" color="#000000" fill="#edf2ff" fill-rule="evenodd" stroke-width="0"/>
 <g transform="matrix(32.132 0 0 32.132 -419.57 -1183.7)">
  <g transform="translate(-6.2102 -3.3273)" stroke-width="1.2045">
   <g fill-rule="evenodd" shape-rendering="auto">
    <path d="m115.68 65.453c-1.9451 0-3.4695 0.76338-4.8865 1.5637-1.417 0.80035-2.9758 1.8087-5.316 3.1616-2.0476 1.1838-3.568 1.9808-4.8545 2.7166-0.18379 0.10512-0.36287 0.20905-0.53795 0.31264-1.4007 0.82864-2.8231 1.7688-3.7956 3.4556-0.97256 1.6868-1.0746 3.3898-1.0909 5.0188-0.01632 1.629 0.077 3.4851 0.077 6.1908 3e-6 2.7057-0.09331 4.5618-0.077 6.1908 0.0163 1.629 0.11833 3.3326 1.0909 5.0193 0.97256 1.6868 2.3949 2.627 3.7956 3.4556 1.4007 0.82864 3.0523 1.6759 5.3924 3.0288s3.8989 2.3617 5.316 3.1621c1.417 0.80034 2.9414 1.5637 4.8865 1.5637s3.4695-0.76339 4.8865-1.5637c2.6842-1.5685 4.4711-2.7028 6.8983-4.0607l-0.99116-8.6687-10.794 6.2399-12.426-7.1835s0.0133-5.1766 0.0155-7.1835c0.13614-2.3936-0.0155-7.1835-0.0155-7.1835l12.426-7.1835 12.426 7.1835v10.097l7.9794-2.8494c-2e-5 -0.02294-5.3e-4 -0.04102-5.3e-4 -0.06408 0-2.7058 0.0933-4.5618 0.077-6.1908s-0.11834-3.332-1.0909-5.0188-2.3949-2.627-3.7956-3.4556-3.0528-1.6764-5.393-3.0293-3.8984-2.3612-5.3154-3.1616c-1.417-0.80035-2.9414-1.5637-4.8865-1.5637z" color="#000000" color-rendering="auto" dominant-baseline="auto" fill="#4475ac" image-rendering="auto" solid-color="#000000" stop-color="#000000" style="font-feature-settings:normal;font-variant-alternates:normal;font-variant-caps:normal;font-variant-east-asian:normal;font-variant-ligatures:normal;font-variant-numeric:normal;font-variant-position:normal;font-variation-settings:normal;inline-size:0;isolation:auto;mix-blend-mode:normal;shape-margin:0;shape-padding:0;text-decoration-color:#000000;text-decoration-line:none;text-decoration-style:solid;text-indent:0;text-orientation:mixed;text-transform:none;white-space:normal"/>
    <path d="m115.68 103.38c-1.9451 0-3.4695 0.76338-4.8865 1.5637s-2.9758 1.8092-5.316 3.1621c-2.0476 1.1838-3.568 1.9803-4.8545 2.7161-0.18379 0.10512-0.36287 0.20906-0.53795 0.31264-1.4007 0.82864-2.8231 1.7688-3.7956 3.4556-0.97256 1.6868-1.0746 3.3903-1.0909 5.0193-0.01632 1.629 0.07699 3.4851 0.077 6.1908 3e-6 2.7058-0.09331 4.5618-0.077 6.1908 0.0163 1.629 0.11833 3.3326 1.0909 5.0193 0.97256 1.6868 2.3949 2.6264 3.7956 3.4551 1.4007 0.82865 3.0523 1.6764 5.3924 3.0293s3.8989 2.3617 5.316 3.1621c1.417 0.80035 2.9414 1.5637 4.8865 1.5637s3.4695-0.76338 4.8865-1.5637c1.417-0.80035 2.9758-1.8092 5.316-3.1621 2.3401-1.3529 3.9917-2.2006 5.3924-3.0293 1.4007-0.82865 2.8231-1.7683 3.7956-3.4551s1.0741-3.3903 1.0904-5.0193-0.0765-3.4851-0.0765-6.1908c0-0.35496 5e-3 -0.65939 8e-3 -0.9865l-6.7536-3.7543-1.3446-11.761c-0.64524-0.3577-1.3291-0.74004-2.112-1.1927-2.3401-1.3529-3.8984-2.3617-5.3154-3.1621-1.417-0.80035-2.9414-1.5637-4.8865-1.5637zm0 8.0533 12.426 7.1835v14.367l-12.426 7.1835-12.426-7.1835v-14.367z" color="#000000" color-rendering="auto" dominant-baseline="auto" fill="#00a49b" image-rendering="auto" solid-color="#000000" stop-color="#000000" style="font-feature-settings:normal;font-variant-alternates:normal;font-variant-caps:normal;font-variant-east-asian:normal;font-variant-ligatures:normal;font-variant-numeric:normal;font-variant-position:normal;font-variation-settings:normal;inline-size:0;isolation:auto;mix-blend-mode:normal;shape-margin:0;shape-padding:0;text-decoration-color:#000000;text-decoration-line:none;text-decoration-style:solid;text-indent:0;text-orientation:mixed;text-transform:none;white-space:normal"/>
    <path d="m181.32 65.601c-1.9451 0-3.469 0.76338-4.886 1.5637-1.417 0.80035-2.9758 1.8087-5.316 3.1616-2.0476 1.1838-3.5685 1.9808-4.855 2.7166-0.18379 0.10512-0.36287 0.20906-0.53795 0.31264-1.4007 0.82864-2.8231 1.7688-3.7956 3.4556-0.97256 1.6868-1.0741 3.3898-1.0904 5.0188-0.0162 1.6197 0.0749 3.4672 0.076 6.1479l7.9794 2.836v-9.9767l12.426-7.1835 12.426 7.1835v14.367l-12.426 7.1835-10.885-6.2926-1.0113 8.6589c0.52441 0.29269 1.0837 0.60836 1.694 0.96118 2.3401 1.3529 3.8989 2.3617 5.316 3.1621 1.417 0.80035 2.9409 1.5637 4.886 1.5637s3.4695-0.76338 4.8865-1.5637c1.417-0.80035 2.9758-1.8092 5.316-3.1621 2.3401-1.3529 3.9917-2.2001 5.3924-3.0288 1.4007-0.82865 2.8231-1.7688 3.7956-3.4556 0.97255-1.6868 1.0746-3.3898 1.0909-5.0188s-0.077-3.4856-0.077-6.1914 0.0933-4.5618 0.077-6.1908-0.11833-3.332-1.0909-5.0188c-0.97256-1.6868-2.3949-2.627-3.7956-3.4556-1.4007-0.82864-3.0523-1.6764-5.3924-3.0293s-3.8989-2.3612-5.316-3.1616c-1.417-0.80035-2.9414-1.5637-4.8865-1.5637z" color="#000000" color-rendering="auto" dominant-baseline="auto" fill="#1990ac" image-rendering="auto" solid-color="#000000" stop-color="#000000" style="font-feature-settings:normal;font-variant-alternates:normal;font-variant-caps:normal;font-variant-east-asian:normal;font-variant-ligatures:normal;font-variant-numeric:normal;font-variant-position:normal;font-variation-settings:normal;inline-size:0;isolation:auto;mix-blend-mode:normal;shape-margin:0;shape-padding:0;text-decoration-color:#000000;text-decoration-line:none;text-decoration-style:solid;text-indent:0;text-orientation:mixed;text-transform:none;white-space:normal"/>
    <path d="m181.32 103.53c-1.9451 0-3.469 0.76338-4.886 1.5637-1.417 0.80035-2.9758 1.8092-5.316 3.1621-0.83797 0.48445-1.57 0.89252-2.2516 1.2697l-1.3482 11.538-6.612 3.6706c4e-3 0.39587 9e-3 0.77877 9e-3 1.2165 0 2.7058-0.0928 4.5618-0.0765 6.1908s0.11781 3.3326 1.0904 5.0193c0.97255 1.6868 2.3949 2.627 3.7956 3.4556 1.4007 0.82865 3.0528 1.6759 5.393 3.0288 2.3401 1.3529 3.8989 2.3617 5.316 3.1621 1.417 0.80035 2.9409 1.5637 4.886 1.5637s3.4695-0.76338 4.8865-1.5637c1.417-0.80035 2.9758-1.8092 5.316-3.1621 2.3401-1.3529 3.9917-2.2001 5.3924-3.0288 1.4007-0.82864 2.8231-1.7688 3.7956-3.4556 0.97255-1.6868 1.0746-3.3903 1.0909-5.0193s-0.077-3.4851-0.077-6.1908 0.0933-4.5618 0.077-6.1908-0.11833-3.3326-1.0909-5.0193c-0.97256-1.6868-2.3949-2.627-3.7956-3.4556-1.4007-0.82864-3.0523-1.6759-5.3924-3.0288s-3.8989-2.3617-5.316-3.1621-2.9414-1.5637-4.8865-1.5637zm0 8.0532 12.426 7.1835v14.367l-12.426 7.1835-12.426-7.1835v-14.367z" color="#000000" color-rendering="auto" dominant-baseline="auto" fill="#4575ac" image-rendering="auto" solid-color="#000000" stop-color="#000000" style="font-feature-settings:normal;font-variant-alternates:normal;font-variant-caps:normal;font-variant-east-asian:normal;font-variant-ligatures:normal;font-variant-numeric:normal;font-variant-position:normal;font-variation-settings:normal;inline-size:0;isolation:auto;mix-blend-mode:normal;shape-margin:0;shape-padding:0;text-decoration-color:#000000;text-decoration-line:none;text-decoration-style:solid;text-indent:0;text-orientation:mixed;text-transform:none;white-space:normal"/>
    <path d="m148.43 46.629c-1.9451 0-3.469 0.76338-4.886 1.5637-1.417 0.80035-2.9759 1.8092-5.316 3.1621-2.0476 1.1838-3.5685 1.9808-4.855 2.7166-0.18379 0.10511-0.36286 0.20906-0.53795 0.31264-1.4007 0.82864-2.8226 1.7683-3.7951 3.4551-0.97256 1.6868-1.0746 3.3903-1.0909 5.0193s0.0765 3.4851 0.0765 6.1908c0 2.7058-0.0928 4.5618-0.0765 6.1908s0.11833 3.3326 1.0909 5.0193c0.97256 1.6868 2.3944 2.627 3.7951 3.4556 1.4007 0.82864 3.0528 1.6759 5.393 3.0288 0.16475 0.09525 0.29856 0.17632 0.45579 0.2682l9.7348-3.4763 9.7658 3.4716c0.15466-0.09037 0.2861-0.16993 0.44803-0.26355 2.3401-1.3529 3.9917-2.2001 5.3924-3.0288 1.4007-0.82864 2.8231-1.7688 3.7956-3.4556 0.97255-1.6868 1.0746-3.3903 1.0909-5.0193s-0.0765-3.4851-0.0765-6.1908c0-2.7058 0.0928-4.5618 0.0765-6.1908s-0.11833-3.3326-1.0909-5.0193c-0.97256-1.6868-2.3949-2.6264-3.7956-3.4551-1.4007-0.82864-3.0523-1.6764-5.3924-3.0293s-3.8989-2.3617-5.316-3.1621c-1.417-0.80035-2.9414-1.5637-4.8865-1.5637zm0 8.0533 12.426 7.1835v14.367l-12.426 7.1835-12.426-7.1835v-14.367z" color="#000000" color-rendering="auto" dominant-baseline="auto" fill="#00a39b" image-rendering="auto" solid-color="#000000" stop-color="#000000" style="font-feature-settings:normal;font-variant-alternates:normal;font-variant-caps:normal;font-variant-east-asian:normal;font-variant-ligatures:normal;font-variant-numeric:normal;font-variant-position:normal;font-variation-settings:normal;inline-size:0;isolation:auto;mix-blend-mode:normal;shape-margin:0;shape-padding:0;text-decoration-color:#000000;text-decoration-line:none;text-decoration-style:solid;text-indent:0;text-orientation:mixed;text-transform:none;white-space:normal"/>
    <path d="m157.79 126.46-8.1483 4.5238 11.21 6.4808v14.367l-12.426 7.1835-12.426-7.1835v-14.367l11.201-6.4756-8.1426-4.5263c-0.27708 0.16327-0.5329 0.31652-0.83458 0.49093-2.0476 1.1838-3.5685 1.9808-4.855 2.7166-0.18379 0.10512-0.36286 0.20906-0.53795 0.31264-1.4007 0.82864-2.8226 1.7688-3.7951 3.4556-0.97256 1.6868-1.0746 3.3898-1.0909 5.0188s0.0765 3.4851 0.0765 6.1908-0.0928 4.5624-0.0765 6.1914 0.11833 3.332 1.0909 5.0188c0.97256 1.6868 2.3944 2.627 3.7951 3.4556 1.4007 0.82864 3.0528 1.6759 5.393 3.0288 2.3401 1.3529 3.8989 2.3617 5.316 3.1621 1.417 0.80034 2.9414 1.5637 4.8865 1.5637s3.469-0.76339 4.886-1.5637c1.417-0.80035 2.9758-1.8092 5.316-3.1621 2.3401-1.3529 3.9917-2.2001 5.3924-3.0288s2.8231-1.7688 3.7956-3.4556c0.97255-1.6868 1.0746-3.3898 1.0909-5.0188s-0.0765-3.4856-0.0765-6.1914 0.0928-4.5618 0.0765-6.1908-0.11833-3.332-1.0909-5.0188-2.3949-2.627-3.7956-3.4556-3.0523-1.6764-5.3924-3.0293c-0.3032-0.17529-0.56035-0.32948-0.83871-0.49351z" color="#000000" color-rendering="auto" dominant-baseline="auto" fill="#5768a2" image-rendering="auto" solid-color="#000000" stop-color="#000000" style="font-feature-settings:normal;font-variant-alternates:normal;font-variant-caps:normal;font-variant-east-asian:normal;font-variant-ligatures:normal;font-variant-numeric:normal;font-variant-position:normal;font-variation-settings:normal;inline-size:0;isolation:auto;mix-blend-mode:normal;shape-margin:0;shape-padding:0;text-decoration-color:#000000;text-decoration-line:none;text-decoration-style:solid;text-indent:0;text-orientation:mixed;text-transform:none;white-space:normal"/>
    <path d="m171.29 79.363-10.41 5.9722c0.0152 0.79539 0.0285 1.6493 0.0289 2.6427l7.9794 2.836v-9.9767l2.3885-1.3808z" color="#000000" color-rendering="auto" dominant-baseline="auto" fill="#3b699c" image-rendering="auto" solid-color="#000000" stop-color="#000000" style="font-feature-settings:normal;font-variant-alternates:normal;font-variant-caps:normal;font-variant-east-asian:normal;font-variant-ligatures:normal;font-variant-numeric:normal;font-variant-position:normal;font-variation-settings:normal;inline-size:0;isolation:auto;mix-blend-mode:normal;shape-margin:0;shape-padding:0;text-decoration-color:#000000;text-decoration-line:none;text-decoration-style:solid;text-indent:0;text-orientation:mixed;text-transform:none;white-space:normal"/>
   </g>
   <path d="m148.42 83.536-22.448 8.0153 0.0945 0.82878 3.2788 28.683 19.075 10.604 19.098-10.603 3.4487-29.514zm2e-3 2.2352 20.255 7.1991-3.1289 26.779-17.126 9.5085-17.103-9.5071-3.061-26.78z" color="#000000" color-rendering="auto" dominant-baseline="auto" fill="#fff" image-rendering="auto" shape-rendering="auto" solid-color="#000000" stop-color="#000000" stroke-width=".34147" style="font-feature-settings:normal;font-variant-alternates:normal;font-variant-caps:normal;font-variant-east-asian:normal;font-variant-ligatures:normal;font-variant-numeric:normal;font-variant-position:normal;font-variation-settings:normal;inline-size:0;isolation:auto;mix-blend-mode:normal;shape-margin:0;shape-padding:0;text-decoration-color:#000000;text-decoration-line:none;text-decoration-style:solid;text-indent:0;text-orientation:mixed;text-transform:none;white-space:normal"/>
   <g fill-rule="evenodd">
    <path d="m136.1 76.288c2.5e-4 3.0847 6e-5 6.1695 0 9.2542 0.64953 0.35996 1.3382 0.74464 2.1275 1.201 0.16475 0.09525 0.29856 0.17632 0.45579 0.2682l9.7348-3.4763 7e-3 0.0026 5.3e-4 -0.12402z" fill="#17829e"/>
    <path d="m115.68 65.453v8.0527l12.426 7.1835v-9.2568c-0.67576-0.3741-1.3946-0.7749-2.2236-1.2542-2.3401-1.3529-3.8984-2.3612-5.3154-3.1616-1.417-0.80035-2.9414-1.5637-4.8865-1.5637z" color="#000000" color-rendering="auto" dominant-baseline="auto" fill="#3b699c" image-rendering="auto" shape-rendering="auto" solid-color="#000000" stop-color="#000000" style="font-feature-settings:normal;font-variant-alternates:normal;font-variant-caps:normal;font-variant-east-asian:normal;font-variant-ligatures:normal;font-variant-numeric:normal;font-variant-position:normal;font-variation-settings:normal;inline-size:0;isolation:auto;mix-blend-mode:normal;shape-margin:0;shape-padding:0;text-decoration-color:#000000;text-decoration-line:none;text-decoration-style:solid;text-indent:0;text-orientation:mixed;text-transform:none;white-space:normal"/>
    <path d="m126.48 96-10.794 6.2399 7.9618 4.5971 3.8189-2.2045z" fill="#00938e"/>
    <path d="m128.11 118.62v14.418l8.0067-4.6224c-0.0148-0.78804-0.0279-1.6296-0.0279-2.6117 0-0.35496 5e-3 -0.65939 8e-3 -0.9865l-6.7536-3.7543-0.21188-1.8542z" fill="#3b699c"/>
    <path d="m136 137.56-8.0042 4.6214c0.0136 0.75025 0.0253 1.5477 0.0253 2.4712 0 0.99544-0.0134 1.8472-0.0284 2.6438l8.1034 4.6788v-0.0832l-0.0961-0.0558z" fill="#4d5c94"/>
    <path d="m193.74 95.204-12.365 7.1484 7.9623 4.6535c0.65692-0.3962 1.3577-0.81566 2.1797-1.2909 0.82894-0.47923 1.5475-0.8802 2.2231-1.2542z" fill="#17829e"/>
    <path d="m173.28 106.97c-0.65416 0.39449-1.3517 0.81198-2.1694 1.2847-0.83797 0.48445-1.57 0.89252-2.2516 1.2697l-1.1612 9.9379 1.1891-0.68833v-8e-3l12.426-7.1836z" fill="#4d5c94"/>
    <path d="m168.89 133.13v9.2568c0.67575 0.37402 1.3946 0.77491 2.2236 1.2542 2.3401 1.3529 3.8989 2.3617 5.316 3.1621 1.417 0.80035 2.9409 1.5637 4.886 1.5637v-8.0533z" color="#000000" fill="#3b699c" style="paint-order:normal"/>
    <path d="m107.67 106.81c-0.6601 0.39818-1.3646 0.81998-2.1916 1.2981-0.82273 0.47564-1.5418 0.87672-2.2133 1.2485l-0.01 9.2625 12.424-7.1851z" fill="#00938d"/>
    <path d="m160.85 61.833v14.399l8.0057-4.6679c-0.014-0.76239-0.0264-1.5735-0.0264-2.5156 0-0.97418 0.0133-1.8097 0.0279-2.5926z" fill="#00938e"/>
   </g>
  </g>
  <g font-family="Roboto" letter-spacing="0px" stroke="#000" stroke-width="0" word-spacing="0px">
   <g fill="none" font-size="9.8778px" font-weight="300">
    <text x="75.829834" y="51.507198" style="line-height:125%" xml:space="preserve"><tspan x="75.829834" y="51.507198" fill="#000000" font-size="9.8778px" stroke-width="0" text-align="end" text-anchor="end">UX Primitives</tspan></text>
    <text x="75.670654" y="95.349335" style="line-height:125%" xml:space="preserve"><tspan x="75.670654" y="95.349335" fill="#000000" font-size="9.8778px" stroke-width="0" text-align="end" text-anchor="end">UX Animate</tspan></text>
    <text x="75.829834" y="139.0383" style="line-height:125%" xml:space="preserve"><tspan x="75.829834" y="139.0383" fill="#000000" font-size="9.8778px" stroke-width="0" text-align="end" text-anchor="end">UX Charts</tspan></text>
    <text x="208.27069" y="95.171097" style="line-height:125%" xml:space="preserve"><tspan x="208.27069" y="95.171097" fill="#000000" font-size="9.8778px" stroke-width="0">Cargo UX</tspan></text>
    <text x="208.00714" y="51.487175" style="line-height:125%" xml:space="preserve"><tspan x="208.00714" y="51.487175" fill="#000000" font-size="9.8778px" stroke-width="0">RUEX</tspan></text>
    <text x="208.08984" y="139.04231" style="line-height:125%" xml:space="preserve"><tspan x="208.08984" y="139.04231" fill="#000000" font-size="9.8778px" stroke-width="0">UX Components</tspan></text>
   </g>
   <g fill="#404040" font-size="3.5278px" font-weight="500">
    <text x="208.7468" y="66.184486" style="line-height:125%" xml:space="preserve"><tspan x="208.7468" y="66.184486">Use best Rust Experience, </tspan><tspan x="208.7468" y="70.5942">design patterns, </tspan><tspan x="208.7468" y="75.003914">and procedural macros </tspan><tspan x="208.7468" y="79.413628">to create better code.</tspan></text>
    <text x="208.7468" y="109.91548" style="line-height:125%" xml:space="preserve"><tspan x="208.7468" y="109.91548">Improve your development process </tspan><tspan x="208.7468" y="114.3252">by speeding up component creation, </tspan><tspan x="208.7468" y="118.73491">declarative development, </tspan><tspan x="208.7468" y="123.14462">and hot module reloading.</tspan></text>
    <text x="208.7468" y="153.43333" style="line-height:125%" xml:space="preserve"><tspan x="208.7468" y="153.43333">Don't think about specific platforms </tspan><tspan x="208.7468" y="157.84305">like Windows, Linux, Android, </tspan><tspan x="208.7468" y="162.25276">iOS, MacOS, or even the Web. </tspan><tspan x="208.7468" y="166.66248">Just develop your solution.</tspan></text>
    <g text-anchor="end">
     <text x="76.241547" y="66.184486" style="line-height:125%" xml:space="preserve"><tspan x="76.241547" y="66.184486" text-align="end">Start your application </tspan><tspan x="76.241547" y="70.5942" text-align="end">with color design. </tspan><tspan x="76.241547" y="75.003914" text-align="end">Use your imagination </tspan><tspan x="76.241547" y="79.413628" text-align="end">to show your sense of taste.</tspan></text>
     <text x="76.241547" y="109.91548" style="line-height:125%" xml:space="preserve"><tspan x="76.241547" y="109.91548" text-align="end">Breathe life into </tspan><tspan x="76.241547" y="114.3252" text-align="end">your app with animations. </tspan><tspan x="76.241547" y="118.73491" text-align="end">Everything from motion </tspan><tspan x="76.241547" y="123.14462" text-align="end">tweens to behavioral models.</tspan></text>
     <text x="76.241547" y="153.43333" style="line-height:125%" xml:space="preserve"><tspan x="76.241547" y="153.43333" text-align="end">Take the data and present it </tspan><tspan x="76.241547" y="157.84305" text-align="end">to the user in the form of charts. </tspan><tspan x="76.241547" y="162.25276" text-align="end">Bring your data to life with </tspan><tspan x="77.123489" y="166.66248" text-align="end">perfect colors and animations. </tspan></text>
    </g>
   </g>
   <g fill="#00a39b" font-size="5.6444px" font-weight="300">
    <text x="75.50116" y="59.210636" style="line-height:125%" xml:space="preserve"><tspan x="75.50116" y="59.210636" fill="#00a39b" font-family="Roboto" font-size="5.6444px" font-weight="500" stroke-width="0" text-align="end" text-anchor="end">Color</tspan></text>
    <text x="75.50116" y="146.62561" style="line-height:125%" xml:space="preserve"><tspan x="76.91227" y="146.62561" fill="#00a39b" font-family="Roboto" font-size="5.6444px" font-weight="500" stroke-width="0" text-align="end" text-anchor="end">Visualization </tspan></text>
    <text x="208.98544" y="59.210636" style="line-height:125%" xml:space="preserve"><tspan x="208.98544" y="59.210636" fill="#00a39b" font-family="Roboto" font-size="5.6444px" font-weight="500" stroke-width="0">Code structure </tspan></text>
    <text x="208.98544" y="102.95493" style="line-height:125%" xml:space="preserve"><tspan x="208.98544" y="102.95493" fill="#00a39b" font-family="Roboto" font-size="5.6444px" font-weight="500" stroke-width="0">Workflow</tspan></text>
    <text x="208.98544" y="146.62561" style="line-height:125%" xml:space="preserve"><tspan x="208.98544" y="146.62561" fill="#00a39b" font-family="Roboto" font-size="5.6444px" font-weight="500" stroke-width="0">User Interface</tspan></text>
    <text x="75.50116" y="103.19312" style="line-height:125%" xml:space="preserve"><tspan x="75.50116" y="103.19312" fill="#00a39b" font-family="Roboto" font-size="5.6444px" font-weight="500" stroke-width="0" text-align="end" text-anchor="end">Motion</tspan></text>
   </g>
  </g>
  <g transform="translate(-6.2102 -3.3273)" stroke-width="1.2045">
   <g transform="translate(.47958 .052153)">
    <path d="m147.94 85.719 20.255 7.1991-3.1289 26.779-17.126 9.5085-17.103-9.5071-3.061-26.78z" fill="#dd1b16" stroke-width=".34147" style="font-feature-settings:normal;font-variant-alternates:normal;font-variant-caps:normal;font-variant-east-asian:normal;font-variant-ligatures:normal;font-variant-numeric:normal;font-variant-position:normal;font-variation-settings:normal;inline-size:0;isolation:auto;mix-blend-mode:normal;shape-margin:0;shape-padding:0;text-decoration-color:#000000;text-decoration-line:none;text-decoration-style:solid;text-indent:0;text-orientation:mixed;text-transform:none;white-space:normal"/>
    <path transform="scale(.26458)" d="m559.17 323.99v164.33l64.695-35.922 11.826-101.21z" color="#000000" fill="#a6120d" fill-rule="evenodd" stroke-width="0" style="paint-order:normal"/>
    <g transform="matrix(.71342 0 0 .71342 -40.682 7.8016)" fill="#f2f2f2" stroke-width=".47864" style="font-variant-caps:normal;font-variant-east-asian:normal;font-variant-ligatures:normal;font-variant-numeric:normal" aria-label="R">
     <path d="m258.07 126.13v10.558h15.357v-10.558zm3.7242 16.317h-3.7242v16.317h-5.759v-32.635h-3.8394v-5.759h30.715v22.076h-9.8672l11.672 16.317h-7.5252z" fill="#f2f2f2" stroke-width=".44673px" style="font-variant-caps:normal;font-variant-east-asian:normal;font-variant-ligatures:normal;font-variant-numeric:normal"/>
    </g>
    <path d="m147.94 93.673v4.1085h6.4498v7.5325h-6.4498v6.6939l6.4774 9.0556h5.3684l-8.3266-11.641h7.0393v-15.75z" fill="#b3b3b3" stroke-width=".090348"/>
   </g>
   <g transform="matrix(.0242 0 0 .0242 136.05 56.583)" fill-rule="evenodd">
    <path transform="matrix(0 .39708 -.39708 0 -285.42 -1845)" d="m6920.2-1439.8c-386.49 669.43-211.46 568.37-984.45 568.37-772.99-1e-5 -597.96 101.05-984.45-568.37-386.49-669.43-386.49-467.32-1e-4 -1136.7 386.49-669.43 211.46-568.37 984.45-568.37s597.96-101.05 984.45 568.37c386.49 669.43 386.49 467.32 0 1136.7z" color="#000000" fill="#087f5b" stroke-width="2005.5"/>
    <path d="m511.45 107.83-223.83 129.29 0.065 258.48 96.782 55.843 0.0121-61.021-43.937-25.352-0.0461-197.44 170.97-98.766 171.02 98.679 0.0102 46.739 52.871 30.491-0.0291-107.77zm-122.33 209.45-22.164 12.803-0.0102 61.059 22.186-12.816 70.002 40.39-48.222 27.858 0.058 258.48 21.908 12.642 52.837-30.543-21.887-12.629-0.017-77.286 47.758 27.557 223.83-129.29-4e-3 -28.614-52.875-30.496 6e-3 28.599-69.5 40.148-0.0135-58.675c-36.425-19.069-223.89-129.19-223.89-129.19zm245.61 0-96.415 55.697 52.89 30.501 43.543-25.151 171.01 98.679 0.0444 197.45-170.97 98.758-43.585-25.151-52.842 30.543 96.45 55.655 223.82-129.29-0.0628-258.48zm-373.45 73.847-95.986 55.448 0.065 258.48 223.88 129.2 223.82-129.29-0.0222-108.24-52.86 30.557 0.0102 47.174-170.97 98.758-171.01-98.679-0.0529-197.45 43.102-24.899zm250.73 58.1 48.138 27.776 0.0135 58.678-48.607 28.078-47.76-27.557-0.0135-59.116z" color="#000000" color-rendering="auto" dominant-baseline="auto" fill="#fff" image-rendering="auto" shape-rendering="auto" solid-color="#000000" stop-color="#000000" stroke-width="13.169" style="font-feature-settings:normal;font-variant-alternates:normal;font-variant-caps:normal;font-variant-east-asian:normal;font-variant-ligatures:normal;font-variant-numeric:normal;font-variant-position:normal;font-variation-settings:normal;inline-size:0;isolation:auto;mix-blend-mode:normal;shape-margin:0;shape-padding:0;text-decoration-color:#000000;text-decoration-line:none;text-decoration-style:solid;text-indent:0;text-orientation:mixed;text-transform:none;white-space:normal"/>
   </g>
   <g stroke-width="1.233">
    <g transform="matrix(.02524 0 0 .02524 41.535 75.405)" fill-rule="evenodd">
     <path transform="matrix(.32972 -.19036 .19036 .32972 1360.7 2284.3)" d="m6920.2-1439.8c-386.49 669.43-211.46 568.37-984.45 568.37-772.99-1e-5 -597.96 101.05-984.45-568.37-386.49-669.43-386.49-467.32-1e-4 -1136.7 386.49-669.43 211.46-568.37 984.45-568.37s597.96-101.05 984.45 568.37c386.49 669.43 386.49 467.32 0 1136.7z" color="#000000" fill="#5f3dc4" stroke-width="2005.5"/>
     <g transform="matrix(-.3577 -.61956 .61956 -.3577 2805.5 1004.1)" fill="#fff" stroke-width="1067.3">
      <circle cx="293.73" cy="662.63" r="154.91" color="#000000"/>
      <circle cx="751.23" cy="641.67" r="154.91" color="#000000"/>
      <circle cx="540.63" cy="238.91" r="154.91" color="#000000"/>
     </g>
    </g>
    <g transform="matrix(.02524 0 0 .02524 102.71 112.92)">
     <g transform="rotate(240 512 512)" fill="#c92a2a" stroke-width="1.233">
      <path transform="matrix(0 .38073 -.38073 0 -252.57 -1747.9)" d="m6920.2-1439.8c-386.49 669.43-211.46 568.37-984.45 568.37-772.99-1e-5 -597.96 101.05-984.45-568.37-386.49-669.43-386.49-467.32-1e-4 -1136.7 386.49-669.43 211.46-568.37 984.45-568.37s597.96-101.05 984.45 568.37c386.49 669.43 386.49 467.32 0 1136.7z" color="#000000" fill="#c92a2a" fill-rule="evenodd" stroke-width="2005.5"/>
     </g>
     <path d="m509.83 197.92a314.09 314.09 0 0 0-2.5801 0.0399c24.767 11.964 50 27.314 75.24 47.06 14.621 11.438 30.295 19.918 46.14 26.28-2.7814-20.761-6.2889-38.901-9.9-54.68a314.09 314.09 0 0 0-106.72-18.7 314.09 314.09 0 0 0-2.18 0zm-85.32 12.42a314.09 314.09 0 0 0-202.84 181.86c25.076-6.4759 53.264-13.071 84.16-18.84 53.17-9.928 113.23-17.598 174.1-17.66 52.184-0.0529 104.93 5.5377 154.42 20.04 0.45435-20.913-5e-3 -40.658-1.18-59.08-25.558-7.9997-51.618-20.384-75.9-39.38-46.037-36.015-91.287-56.327-132.76-66.94zm239.78 26.98c2.5514 14.274 4.9495 29.405 6.78 46.2 22.438 4.2377 43.593 5.0782 61.2 4.58a314.09 314.09 0 0 0-67.98-50.78zm10 88.88c0.98611 20.013 1.1707 41.264 0.34007 63.7 72.218 30.154 120.45 77.684 151.46 119.52a314.09 314.09 0 0 0-60.34-182.52c-20.668 2.7418-53.823 5.0505-91.46-0.70001zm-201.56 70.9c-55.086 0.54897-110.18 7.3288-159.4 16.52-40.929 7.6424-77.323 16.734-106.7 24.96a314.09 314.09 0 0 0-8.72 73.42 314.09 314.09 0 0 0 25.98 125.06c33.518-20.25 79.565-46.355 130.24-70.18 50.937-23.948 106.6-45.704 160-56.84 20.023-4.1761 39.832-6.9466 59.02-7.6 16.062-0.54702 31.68 0.39895 46.6 3.22 1.542-7.4608 2.9894-15.024 4.3-22.7 3.8572-22.59 6.3603-44.197 8.04-64.98-49.19-15.747-104.27-21.429-159.36-20.88zm198.98 36.26c-1.7383 18.303-3.9734 37.018-7.3 56.5-1.6655 9.7542-3.5608 19.29-5.58 28.72 0.98713 0.48753 2.003 0.90777 2.9799 1.42 26.296 13.786 40.474 40.786 49.42 70.08 8.9464 29.294 12.774 62.489 14.3 94.12 1.0065 20.858 0.81142 40.098 0.30003 57.86a314.09 314.09 0 0 0 93.88-167.08c-20.526-38.828-64.549-102.55-148-141.62zm-91.76 110.24c-17.739 0.0472-37.069 2.2874-57.46 6.54-48.456 10.106-101.8 30.716-150.94 53.82-50.604 23.792-96.081 49.777-128.86 69.68a314.09 314.09 0 0 0 217 148.06c46.313-51.652 114.7-145 150.36-275.78-9.3855-1.5838-19.456-2.3482-30.1-2.32zm68.64 16.76c-33.201 118.9-91.96 208.32-139.08 265.7a314.09 314.09 0 0 0 2.5 0.0201 314.09 314.09 0 0 0 171.32-50.84c1.5065-21.556 3.0027-53.793 1.3-89.08-1.4283-29.601-5.2502-60.099-12.58-84.1-6.0518-19.816-14.422-34.014-23.46-41.7z" color="#000000" fill="#fff" fill-rule="evenodd" stroke-width="126.26"/>
    </g>
    <g transform="matrix(.02524 0 0 .02524 135.52 131.72)">
     <g transform="rotate(240 512 512)" stroke-width="1.233">
      <path transform="matrix(0 .38073 -.38073 0 -252.57 -1747.9)" d="m6920.2-1439.8c-386.49 669.43-211.46 568.37-984.45 568.37-772.99-1e-5 -597.96 101.05-984.45-568.37-386.49-669.43-386.49-467.32-1e-4 -1136.7 386.49-669.43 211.46-568.37 984.45-568.37s597.96-101.05 984.45 568.37c386.49 669.43 386.49 467.32 0 1136.7z" color="#000000" fill="#f59f00" fill-rule="evenodd" stroke-width="2005.5"/>
     </g>
     <rect x="289.81" y="213.29" width="448.82" height="597.94" color="#000000" fill="#fff" fill-rule="evenodd" stroke-width="763.55"/>
     <path d="m358.48 301.33v23.019h311.19v-23.019zm265.37 75.795a37.049 37.049 0 0 0-37.05 37.05 37.049 37.049 0 0 0 5.1792 18.891l-58.796 60.01a37.049 37.049 0 0 0-20.834-6.4155 37.049 37.049 0 0 0-33.755 21.782l-37.598-11.433a37.049 37.049 0 0 0 0.0269-1.2678 37.049 37.049 0 0 0-37.05-37.05 37.049 37.049 0 0 0-37.05 37.05 37.049 37.049 0 0 0 37.05 37.05 37.049 37.049 0 0 0 29.11-14.13l43.106 13.11a37.049 37.049 0 0 0 36.16 28.989 37.049 37.049 0 0 0 37.05-37.05 37.049 37.049 0 0 0-2.0636-12.184l61.984-63.274a37.049 37.049 0 0 0 14.53 2.9717 37.049 37.049 0 0 0 37.046-37.05 37.049 37.049 0 0 0-37.046-37.05zm-265.37 234.04v23.019h311.19v-23.019zm0 87.363v23.019h311.19v-23.019z" color="#000000" color-rendering="auto" dominant-baseline="auto" fill="#fab005" fill-rule="evenodd" image-rendering="auto" shape-rendering="auto" solid-color="#000000" stop-color="#000000" style="font-feature-settings:normal;font-variant-alternates:normal;font-variant-caps:normal;font-variant-east-asian:normal;font-variant-ligatures:normal;font-variant-numeric:normal;font-variant-position:normal;font-variation-settings:normal;inline-size:0;isolation:auto;mix-blend-mode:normal;shape-margin:0;shape-padding:0;text-decoration-color:#000000;text-decoration-line:none;text-decoration-style:solid;text-indent:0;text-orientation:mixed;text-transform:none;white-space:normal"/>
    </g>
    <g transform="matrix(.02524 0 0 .02524 168.46 112.92)">
     <g transform="rotate(240 512 512)" stroke-width="1.233">
      <path transform="matrix(0 .38073 -.38073 0 -252.57 -1747.9)" d="m6920.2-1439.8c-386.49 669.43-211.46 568.37-984.45 568.37-772.99-1e-5 -597.96 101.05-984.45-568.37-386.49-669.43-386.49-467.32-1e-4 -1136.7 386.49-669.43 211.46-568.37 984.45-568.37s597.96-101.05 984.45 568.37c386.49 669.43 386.49 467.32 0 1136.7z" color="#000000" fill="#862e9c" fill-rule="evenodd" stroke-width="2005.5"/>
     </g>
     <path d="m341.28 347.28c-90.973 1e-4 -164.71 73.74-164.71 164.71 0 90.972 73.739 164.73 164.71 164.73 56.26 0 125.79-62.963 170.72-111.04 44.924 48.076 114.46 111.04 170.72 111.04 90.973-1e-4 164.73-73.758 164.73-164.73 0-90.973-73.755-164.71-164.73-164.71-56.26-1e-4 -125.79 62.963-170.72 111.04-44.924-48.076-114.46-111.04-170.72-111.04zm0 80.065c46.754-1e-4 119.4 84.647 119.4 84.647s-72.649 84.663-119.4 84.663-84.644-37.908-84.644-84.663 37.893-84.647 84.644-84.647zm341.44 0c46.755 0 84.663 37.893 84.663 84.647s-37.908 84.663-84.663 84.663c-46.754 1e-4 -119.39-84.663-119.39-84.663s72.634-84.647 119.39-84.647z" color="#000000" fill="#fff" fill-rule="evenodd" stroke-width="38.516"/>
    </g>
    <g transform="matrix(.02524 0 0 .02524 49.091 30.712)">
     <g transform="rotate(240 3384.1 25.646)" stroke-width="1.233">
      <path transform="matrix(0 .38073 -.38073 0 -252.57 -1747.9)" d="m6920.2-1439.8c-386.49 669.43-211.46 568.37-984.45 568.37-772.99-1e-5 -597.96 101.05-984.45-568.37-386.49-669.43-386.49-467.32-1e-4 -1136.7 386.49-669.43 211.46-568.37 984.45-568.37s597.96-101.05 984.45 568.37c386.49 669.43 386.49 467.32 0 1136.7z" color="#000000" fill="#d9480f" fill-rule="evenodd" stroke-width="2005.5"/>
     </g>
     <path d="m5076.5 2382.8c12.826 2e-4 23.926 4.6868 33.299 14.059 9.3727 9.3726 14.059 20.472 14.059 33.298s-4.6861 23.925-14.059 33.298c-9.3729 9.3726-20.472 14.059-33.299 14.059-12.826 1e-4 -23.925-4.6863-33.298-14.059-9.3727-9.3731-14.06-20.472-14.06-33.298 1e-4 -12.826 4.6866-23.925 14.06-33.298 9.3724-9.3727 20.472-14.059 33.298-14.059zm45.471-137.59-146.03 146.03c-11.946 11.946-17.918 26.474-17.918 43.586-4e-4 16.789 5.9725 31.479 17.918 44.07l52.303 51.334c11.623 12.268 26.152 18.403 43.586 18.403 17.111 2e-4 31.801-6.134 44.07-18.403l145.55-145.55c-31.64-12.592-59.648-31.075-84.024-55.451s-42.859-52.384-55.451-84.024zm409.03-166.82c5.6655 9.8132 10.471 24.819 14.417 45.019 7.6403 40.544 2.7431 79.857-14.692 117.94-17.435 38.079-43.891 67.361-79.369 87.844-46.55 26.875-95.919 33.321-148.11 19.336-52.19-13.985-91.724-44.252-118.6-90.801-26.875-46.549-33.32-95.919-19.336-148.11 13.985-52.19 44.251-91.724 90.8-118.6 14.594-8.4252 31.078-15.175 49.453-20.248s35.277-7.0313 50.706-5.8748c5.6239 0.4434 9.6704 2.8036 12.14 7.0812s2.4905 8.9623 0.063 14.054l-73.76 127.63 48.811 84.543 96.159-1.6713c0.8224-1.4812 7.2383-13.321 19.248-35.52 12.01-22.199 23.173-42.231 33.491-60.098 10.316-17.867 16.608-27.454 18.873-28.761 3.7741-2.1792 7.4573-2.6281 11.049-1.3468 3.5915 1.2814 6.4767 3.8095 8.6559 7.5836z" fill="#fff" stroke-width="12.626"/>
    </g>
   </g>
  </g>
 </g>
</svg>
