<?xml version="1.0" encoding="UTF-8"?>
<svg class="icon" width="150" height="75" p-id="1137" t="1592727113403" version="1.1" viewBox="0 0 1536 768" 
  xmlns="http://www.w3.org/2000/svg" 
  xmlns:cc="http://creativecommons.org/ns#" 
  xmlns:dc="http://purl.org/dc/elements/1.1/" 
  xmlns:rdf="http://www.w3.org/1999/02/22-rdf-syntax-ns#"
  >
  <metadata>
    <rdf:RDF>
      <cc:Work rdf:about="">
        <dc:format>image/svg+xml</dc:format>
        <dc:type rdf:resource="http://purl.org/dc/dcmitype/StillImage"/>
        <dc:title/>
      </cc:Work>
    </rdf:RDF>
  </metadata>
  <defs>
    <style type="text/css">
    </style>
  </defs>
  <g transform="matrix(9.2754 0 0 9.2754 -205.92 -124.73)">
    <g id="button" transform="matrix(.80709 0 0 .80709 22.221 1.3276)" stroke-width="5.1698">
      <g fill-rule="evenodd" shape-rendering="auto" stroke-width="5.6854">
        <path d="m12.735 18.324c-3.1996 0-5.7971 2.5969-5.7971 5.7965v46.266c0 3.1996 2.5975 5.7965 5.7971 5.7965h179.66c3.1996 0 5.7971-2.5969 5.7971-5.7965v-46.266c0-3.1996-2.5975-5.7965-5.7971-5.7965z" color="#000000" color-rendering="auto" dominant-baseline="auto" fill="#cecfd1" image-rendering="auto" solid-color="#000000" stop-color="#000000" style="font-feature-settings:normal;font-variant-alternates:normal;font-variant-caps:normal;font-variant-east-asian:normal;font-variant-ligatures:normal;font-variant-numeric:normal;font-variant-position:normal;font-variation-settings:normal;inline-size:0;isolation:auto;mix-blend-mode:normal;shape-margin:0;shape-padding:0;text-decoration-color:#000000;text-decoration-line:none;text-decoration-style:solid;text-indent:0;text-orientation:mixed;text-transform:none;white-space:normal"/>
        <path transform="scale(.26458)" d="m499.05 74.387h228.11c9.3383 0 16.779 7.441 16.779 16.779v174.86c0 9.3383-7.441 16.771-16.779 16.771h-228.11z" color="#000000" color-rendering="auto" dominant-baseline="auto" fill="#fff" image-rendering="auto" solid-color="#000000" stop-color="#000000" style="font-feature-settings:normal;font-variant-alternates:normal;font-variant-caps:normal;font-variant-east-asian:normal;font-variant-ligatures:normal;font-variant-numeric:normal;font-variant-position:normal;font-variation-settings:normal;inline-size:0;isolation:auto;mix-blend-mode:normal;shape-margin:0;shape-padding:0;text-decoration-color:#000000;text-decoration-line:none;text-decoration-style:solid;text-indent:0;text-orientation:mixed;text-transform:none;white-space:normal"/>
        <path transform="scale(.26458)" d="m48.131 74.387h445.79v208.41h-445.79c-9.3383 0-16.773-7.4332-16.773-16.771v-174.86c0-9.3383 7.4351-16.779 16.773-16.779z" color="#000000" color-rendering="auto" dominant-baseline="auto" fill="#f8f9fb" image-rendering="auto" solid-color="#000000" stop-color="#000000" style="font-feature-settings:normal;font-variant-alternates:normal;font-variant-caps:normal;font-variant-east-asian:normal;font-variant-ligatures:normal;font-variant-numeric:normal;font-variant-position:normal;font-variation-settings:normal;inline-size:0;isolation:auto;mix-blend-mode:normal;shape-margin:0;shape-padding:0;text-decoration-color:#000000;text-decoration-line:none;text-decoration-style:solid;text-indent:0;text-orientation:mixed;text-transform:none;white-space:normal"/>
      </g>
      <g fill="#25282d">
        <path transform="matrix(.73643 -.076455 .076447 .7361 6.4877 15.189)" d="m55.605 62.153-10.108-6.8076-11.302 4.5574 3.351-11.717-7.8268-9.3406 12.179-0.4336 6.4648-10.33 4.1758 11.449 11.822 2.9562-9.5978 7.5092z" color="#000000" fill-rule="evenodd" stroke-width="4.3672"/>
        <text x="63.790398" y="56.211864" font-family="Roboto" font-size="24.685px" letter-spacing="0px" stroke-width="1.3678px" word-spacing="0px" style="line-height:125%" xml:space="preserve">
          <tspan x="63.790398" y="56.211864" fill="#25282d" font-family="Roboto" stroke-width="1.3678px">Star</tspan>
        </text>
        <path d="m158.87 43.626c-2.9124 2e-6 -5.2731 2.3607-5.2731 5.2731s2.3607 5.2736 5.2731 5.2736c1.8011 0 4.0271-2.0157 5.4653-3.5549 1.4382 1.5391 3.6642 3.5549 5.4653 3.5549 2.9124-2e-6 5.2736-2.3613 5.2736-5.2736 0-2.9124-2.3612-5.2731-5.2736-5.2731-1.8011-3e-6 -4.0271 2.0157-5.4653 3.5549-1.4382-1.5391-3.6642-3.5549-5.4653-3.5549zm0 2.5632c1.4968-6e-6 3.8226 2.7099 3.8226 2.7099s-2.3258 2.7104-3.8226 2.7104c-1.4968-2e-6 -2.7098-1.2136-2.7098-2.7104s1.2131-2.7099 2.7098-2.7099zm10.931 0c1.4968 0 2.7104 1.2131 2.7104 2.7099s-1.2136 2.7104-2.7104 2.7104c-1.4968 3e-6 -3.822-2.7104-3.822-2.7104s2.3253-2.7099 3.822-2.7099z" color="#000000" fill-rule="evenodd" stroke-width="4.3672"/>
      </g>
    </g>
    <g id="hand" transform="matrix(.80709 0 0 .80709 19.843 -2.6925)" stroke-width="1.6366">
      <path d="m83.024 102.14 0.27543-0.47706c1.6413-2.8429 0.66366-6.4909-2.179-8.1321-0.64204-0.37068-1.3252-0.60657-2.0172-0.71886 0.87194-2.6241-0.18752-5.595-2.6741-7.0306-0.67526-0.38986-1.3959-0.63025-2.1242-0.73454 0.62596-2.5251-0.49865-5.3625-2.8801-6.7374-0.64112-0.37015-1.3309-0.60311-2.0336-0.71096l3.574-6.1903c1.6413-2.8429 0.66366-6.4909-2.179-8.1321-2.8427-1.6412-6.4908-0.66389-8.1321 2.179l-8.7655 15.182c-0.23704-1.6733-0.74217-3.304-1.7027-4.5487-1.0719-1.3888-2.5906-2.1736-4.3926-2.2697-3.3144-0.17642-6.1835 2.3536-6.3961 5.6401l-1.0785 16.658c-0.0243 0.46013-0.50706 11.319 7.3505 15.856l9.1654 5.2917c7.2269 4.1725 16.519 1.6566 20.714-5.6097l5.4818-9.5112z" fill="#25282d"/>
      <path d="m58.82 113.83-9.1654-5.2917c-5.6601-3.2679-5.3845-11.889-5.3717-12.204l1.0756-16.616c0.07415-1.1466 1.0514-1.9957 2.2248-1.9332 0.64682 0.03432 1.0969 0.25965 1.4602 0.72941 1.4483 1.8734 1.1466 6.6977 0.61634 9.2967l-0.40809 1.9821 3.5551 0.65968 13.285-23.011c0.54716-0.94771 1.763-1.2735 2.7107-0.72633 0.94771 0.54716 1.2735 1.763 0.72633 2.7107l-11.443 19.82 0.03116 0.01799 3.437 1.9844 5.0271-8.7072c0.5539-0.95939 1.9171-1.3373 2.8603-0.79274 0.97658 0.56383 1.3694 1.8615 0.8409 2.7769l-5.424 9.3946 3.437 1.9844 3.4396-5.9575c0.54716-0.94771 1.763-1.2735 2.7107-0.72633 0.94771 0.54716 1.2735 1.763 0.72633 2.7107l-4.3656 7.5615 3.437 1.9844 2.1828-3.7807c0.54716-0.94771 1.763-1.2735 2.7107-0.72633 0.94771 0.54716 1.2735 1.763 0.72633 2.7107l-1.4191 2.4579 8e-3 5e-3 -4.3403 7.5309c-3.1005 5.3697-9.9604 7.2337-15.292 4.1556z" fill="#fff"/>
      <animateTransform 
        attributeName="transform" 
        type="translate" 
        from="0" 
        to="110" 
        additive="sum"
        dur="7s"
        begin="0s"
        values="0; 110; 70; 110; 90; 110; 100; 100"
        keyTimes="0; 0.02; 0.04; 0.06; 0.08; 0.10; 0.12; 1"
        keySplines=".42 0 1 1;4
                    0 0 .59 1;
                    .42 0 1 1;
                    0 0 .59 1;
                    .42 0 1 1;
                    0 0 .59 1;
                    .42 0 1 1;
                    0 0 .59 1;"
        repeatCount="indefinite"
        />
    </g>
  </g> 
</svg>
