<?xml version="1.0" encoding="UTF-8"?>
<svg class="icon" width="132" height="132" p-id="1137" t="1592727113403" version="1.1" viewBox="0 0 1351.7 1351.7" xmlns="http://www.w3.org/2000/svg" xmlns:cc="http://creativecommons.org/ns#" xmlns:dc="http://purl.org/dc/elements/1.1/" xmlns:rdf="http://www.w3.org/1999/02/22-rdf-syntax-ns#">
 <metadata>
  <rdf:RDF>
   <cc:Work rdf:about="">
    <dc:format>image/svg+xml</dc:format>
    <dc:type rdf:resource="http://purl.org/dc/dcmitype/StillImage"/>
    <dc:title/>
   </cc:Work>
  </rdf:RDF>
 </metadata>
 <defs>
  <style type="text/css"></style>
 </defs>
 <g transform="matrix(1.3422 0 0 1.3422 -11.402 -11.372)">
  <g transform="rotate(240 512 512)" stroke-width=".74504">
   <path transform="matrix(0 .38073 -.38073 0 -252.57 -1747.9)" d="m6920.2-1439.8c-386.49 669.43-211.46 568.37-984.45 568.37-772.99-1e-5 -597.96 101.05-984.45-568.37-386.49-669.43-386.49-467.32-1e-4 -1136.7 386.49-669.43 211.46-568.37 984.45-568.37s597.96-101.05 984.45 568.37c386.49 669.43 386.49 467.32 0 1136.7z" color="#000000" fill="#f59f00" fill-rule="evenodd" stroke-width="1211.8"/>
  </g>
  <rect x="289.81" y="213.29" width="448.82" height="597.94" color="#000000" fill="#fff" fill-rule="evenodd" stroke-width="461.36"/>
  <path d="m358.48 301.33v23.019h311.19v-23.019zm265.37 75.795a37.049 37.049 0 0 0-37.05 37.05 37.049 37.049 0 0 0 5.1792 18.891l-58.796 60.01a37.049 37.049 0 0 0-20.834-6.4155 37.049 37.049 0 0 0-33.755 21.782l-37.598-11.433a37.049 37.049 0 0 0 0.0269-1.2678 37.049 37.049 0 0 0-37.05-37.05 37.049 37.049 0 0 0-37.05 37.05 37.049 37.049 0 0 0 37.05 37.05 37.049 37.049 0 0 0 29.11-14.13l43.106 13.11a37.049 37.049 0 0 0 36.16 28.989 37.049 37.049 0 0 0 37.05-37.05 37.049 37.049 0 0 0-2.0636-12.184l61.984-63.274a37.049 37.049 0 0 0 14.53 2.9717 37.049 37.049 0 0 0 37.046-37.05 37.049 37.049 0 0 0-37.046-37.05zm-265.37 234.04v23.019h311.19v-23.019zm0 87.363v23.019h311.19v-23.019z" color="#000000" color-rendering="auto" dominant-baseline="auto" fill="#fab005" fill-rule="evenodd" image-rendering="auto" shape-rendering="auto" solid-color="#000000" stop-color="#000000" stroke-width=".55508" style="font-feature-settings:normal;font-variant-alternates:normal;font-variant-caps:normal;font-variant-east-asian:normal;font-variant-ligatures:normal;font-variant-numeric:normal;font-variant-position:normal;font-variation-settings:normal;inline-size:0;isolation:auto;mix-blend-mode:normal;shape-margin:0;shape-padding:0;text-decoration-color:#000000;text-decoration-line:none;text-decoration-style:solid;text-indent:0;text-orientation:mixed;text-transform:none;white-space:normal"/>
 </g>
</svg>
