<?xml version="1.0" encoding="UTF-8"?>
<!DOCTYPE svg PUBLIC "-//W3C//DTD SVG 1.1//EN" "http://www.w3.org/Graphics/SVG/1.1/DTD/svg11.dtd">
<svg width="212mm" height="119mm" viewBox="0 0 21200 11900" version="1.1" xmlns="http://www.w3.org/2000/svg" xmlns:xlink="http://www.w3.org/1999/xlink" stroke-width="28.222" stroke-linejoin="round" xml:space="preserve">
 <path fill="rgb(255,255,255)" stroke="none" d="M 10600,11939 L 0,11939 0,0 21200,0 21200,11939 10600,11939 Z"/>
 <path fill="none" stroke="rgb(179,179,179)" stroke-linejoin="round" d="M 8685,9686 L 2443,9686 2443,2972 14926,2972 14926,9686 8685,9686 Z"/>
 <path fill="none" stroke="rgb(179,179,179)" stroke-linejoin="round" d="M 14926,9685 L 2443,9685"/>
 <path fill="none" stroke="rgb(179,179,179)" stroke-linejoin="round" d="M 14926,8845 L 2443,8845"/>
 <path fill="none" stroke="rgb(179,179,179)" stroke-linejoin="round" d="M 14926,8006 L 2443,8006"/>
 <path fill="none" stroke="rgb(179,179,179)" stroke-linejoin="round" d="M 14926,7166 L 2443,7166"/>
 <path fill="none" stroke="rgb(179,179,179)" stroke-linejoin="round" d="M 14926,6327 L 2443,6327"/>
 <path fill="none" stroke="rgb(179,179,179)" stroke-linejoin="round" d="M 14926,5489 L 2443,5489"/>
 <path fill="none" stroke="rgb(179,179,179)" stroke-linejoin="round" d="M 14926,4649 L 2443,4649"/>
 <path fill="none" stroke="rgb(179,179,179)" stroke-linejoin="round" d="M 14926,3810 L 2443,3810"/>
 <path fill="none" stroke="rgb(179,179,179)" stroke-linejoin="round" d="M 14926,2971 L 2443,2971"/>
 <path fill="none" stroke="rgb(179,179,179)" stroke-linejoin="round" d="M 2443,9835 L 2443,9685"/>
 <path fill="none" stroke="rgb(179,179,179)" stroke-linejoin="round" d="M 2443,9835 L 2443,9685"/>
 <path fill="none" stroke="rgb(179,179,179)" stroke-linejoin="round" d="M 3830,9835 L 3830,9685"/>
 <path fill="none" stroke="rgb(179,179,179)" stroke-linejoin="round" d="M 3830,9835 L 3830,9685"/>
 <path fill="none" stroke="rgb(179,179,179)" stroke-linejoin="round" d="M 5217,9835 L 5217,9685"/>
 <path fill="none" stroke="rgb(179,179,179)" stroke-linejoin="round" d="M 5217,9835 L 5217,9685"/>
 <path fill="none" stroke="rgb(179,179,179)" stroke-linejoin="round" d="M 6604,9835 L 6604,9685"/>
 <path fill="none" stroke="rgb(179,179,179)" stroke-linejoin="round" d="M 6604,9835 L 6604,9685"/>
 <path fill="none" stroke="rgb(179,179,179)" stroke-linejoin="round" d="M 7991,9835 L 7991,9685"/>
 <path fill="none" stroke="rgb(179,179,179)" stroke-linejoin="round" d="M 7991,9835 L 7991,9685"/>
 <path fill="none" stroke="rgb(179,179,179)" stroke-linejoin="round" d="M 9378,9835 L 9378,9685"/>
 <path fill="none" stroke="rgb(179,179,179)" stroke-linejoin="round" d="M 9378,9835 L 9378,9685"/>
 <path fill="none" stroke="rgb(179,179,179)" stroke-linejoin="round" d="M 10764,9835 L 10764,9685"/>
 <path fill="none" stroke="rgb(179,179,179)" stroke-linejoin="round" d="M 10764,9835 L 10764,9685"/>
 <path fill="none" stroke="rgb(179,179,179)" stroke-linejoin="round" d="M 12151,9835 L 12151,9685"/>
 <path fill="none" stroke="rgb(179,179,179)" stroke-linejoin="round" d="M 12151,9835 L 12151,9685"/>
 <path fill="none" stroke="rgb(179,179,179)" stroke-linejoin="round" d="M 13538,9835 L 13538,9685"/>
 <path fill="none" stroke="rgb(179,179,179)" stroke-linejoin="round" d="M 13538,9835 L 13538,9685"/>
 <path fill="none" stroke="rgb(179,179,179)" stroke-linejoin="round" d="M 14926,9835 L 14926,9685"/>
 <path fill="none" stroke="rgb(179,179,179)" stroke-linejoin="round" d="M 14926,9835 L 14926,9685"/>
 <path fill="none" stroke="rgb(179,179,179)" stroke-linejoin="round" d="M 2443,9685 L 14926,9685"/>
 <path fill="none" stroke="rgb(179,179,179)" stroke-linejoin="round" d="M 2293,9685 L 2443,9685"/>
 <path fill="none" stroke="rgb(179,179,179)" stroke-linejoin="round" d="M 2293,9685 L 2443,9685"/>
 <path fill="none" stroke="rgb(179,179,179)" stroke-linejoin="round" d="M 2293,8845 L 2443,8845"/>
 <path fill="none" stroke="rgb(179,179,179)" stroke-linejoin="round" d="M 2293,8845 L 2443,8845"/>
 <path fill="none" stroke="rgb(179,179,179)" stroke-linejoin="round" d="M 2293,8006 L 2443,8006"/>
 <path fill="none" stroke="rgb(179,179,179)" stroke-linejoin="round" d="M 2293,8006 L 2443,8006"/>
 <path fill="none" stroke="rgb(179,179,179)" stroke-linejoin="round" d="M 2293,7166 L 2443,7166"/>
 <path fill="none" stroke="rgb(179,179,179)" stroke-linejoin="round" d="M 2293,7166 L 2443,7166"/>
 <path fill="none" stroke="rgb(179,179,179)" stroke-linejoin="round" d="M 2293,6327 L 2443,6327"/>
 <path fill="none" stroke="rgb(179,179,179)" stroke-linejoin="round" d="M 2293,6327 L 2443,6327"/>
 <path fill="none" stroke="rgb(179,179,179)" stroke-linejoin="round" d="M 2293,5489 L 2443,5489"/>
 <path fill="none" stroke="rgb(179,179,179)" stroke-linejoin="round" d="M 2293,5489 L 2443,5489"/>
 <path fill="none" stroke="rgb(179,179,179)" stroke-linejoin="round" d="M 2293,4649 L 2443,4649"/>
 <path fill="none" stroke="rgb(179,179,179)" stroke-linejoin="round" d="M 2293,4649 L 2443,4649"/>
 <path fill="none" stroke="rgb(179,179,179)" stroke-linejoin="round" d="M 2293,3810 L 2443,3810"/>
 <path fill="none" stroke="rgb(179,179,179)" stroke-linejoin="round" d="M 2293,3810 L 2443,3810"/>
 <path fill="none" stroke="rgb(179,179,179)" stroke-linejoin="round" d="M 2293,2971 L 2443,2971"/>
 <path fill="none" stroke="rgb(179,179,179)" stroke-linejoin="round" d="M 2293,2971 L 2443,2971"/>
 <path fill="none" stroke="rgb(179,179,179)" stroke-linejoin="round" d="M 2443,9685 L 2443,2971"/>
 <path fill="none" stroke="rgb(234,117,0)" stroke-width="80" stroke-linejoin="round" d="M 2443,9624 L 3830,9630 5217,9632 6604,9626 7991,9630 9378,9628 10764,9626 12151,9628 13538,9626 14926,9632"/>
 <path fill="rgb(234,117,0)" stroke="none" d="M 2318,9499 L 2443,9749 2568,9499 2318,9499 Z"/>
 <path fill="none" stroke="rgb(234,117,0)" stroke-linejoin="round" d="M 2318,9499 L 2443,9749 2568,9499 2318,9499 Z"/>
 <path fill="rgb(234,117,0)" stroke="none" d="M 3705,9505 L 3830,9755 3955,9505 3705,9505 Z"/>
 <path fill="none" stroke="rgb(234,117,0)" stroke-linejoin="round" d="M 3705,9505 L 3830,9755 3955,9505 3705,9505 Z"/>
 <path fill="rgb(234,117,0)" stroke="none" d="M 5092,9507 L 5217,9757 5342,9507 5092,9507 Z"/>
 <path fill="none" stroke="rgb(234,117,0)" stroke-linejoin="round" d="M 5092,9507 L 5217,9757 5342,9507 5092,9507 Z"/>
 <path fill="rgb(234,117,0)" stroke="none" d="M 6479,9501 L 6604,9751 6729,9501 6479,9501 Z"/>
 <path fill="none" stroke="rgb(234,117,0)" stroke-linejoin="round" d="M 6479,9501 L 6604,9751 6729,9501 6479,9501 Z"/>
 <path fill="rgb(234,117,0)" stroke="none" d="M 7866,9505 L 7991,9755 8116,9505 7866,9505 Z"/>
 <path fill="none" stroke="rgb(234,117,0)" stroke-linejoin="round" d="M 7866,9505 L 7991,9755 8116,9505 7866,9505 Z"/>
 <path fill="rgb(234,117,0)" stroke="none" d="M 9253,9503 L 9378,9753 9503,9503 9253,9503 Z"/>
 <path fill="none" stroke="rgb(234,117,0)" stroke-linejoin="round" d="M 9253,9503 L 9378,9753 9503,9503 9253,9503 Z"/>
 <path fill="rgb(234,117,0)" stroke="none" d="M 10639,9501 L 10764,9751 10889,9501 10639,9501 Z"/>
 <path fill="none" stroke="rgb(234,117,0)" stroke-linejoin="round" d="M 10639,9501 L 10764,9751 10889,9501 10639,9501 Z"/>
 <path fill="rgb(234,117,0)" stroke="none" d="M 12026,9503 L 12151,9753 12276,9503 12026,9503 Z"/>
 <path fill="none" stroke="rgb(234,117,0)" stroke-linejoin="round" d="M 12026,9503 L 12151,9753 12276,9503 12026,9503 Z"/>
 <path fill="rgb(234,117,0)" stroke="none" d="M 13413,9501 L 13538,9751 13663,9501 13413,9501 Z"/>
 <path fill="none" stroke="rgb(234,117,0)" stroke-linejoin="round" d="M 13413,9501 L 13538,9751 13663,9501 13413,9501 Z"/>
 <path fill="rgb(234,117,0)" stroke="none" d="M 14801,9507 L 14926,9757 15051,9507 14801,9507 Z"/>
 <path fill="none" stroke="rgb(234,117,0)" stroke-linejoin="round" d="M 14801,9507 L 14926,9757 15051,9507 14801,9507 Z"/>
 <path fill="none" stroke="rgb(87,157,28)" stroke-width="80" stroke-linejoin="round" d="M 2443,7439 L 3830,9277 5217,9336 6604,9531 7991,9527 9378,9527 10764,9523 12151,9527 13538,9527 14926,9527"/>
 <path fill="rgb(87,157,28)" stroke="none" d="M 2318,7564 L 2568,7564 2443,7314 2318,7564 Z"/>
 <path fill="none" stroke="rgb(87,157,28)" stroke-linejoin="round" d="M 2318,7564 L 2568,7564 2443,7314 2318,7564 Z"/>
 <path fill="rgb(87,157,28)" stroke="none" d="M 3705,9402 L 3955,9402 3830,9152 3705,9402 Z"/>
 <path fill="none" stroke="rgb(87,157,28)" stroke-linejoin="round" d="M 3705,9402 L 3955,9402 3830,9152 3705,9402 Z"/>
 <path fill="rgb(87,157,28)" stroke="none" d="M 5092,9461 L 5342,9461 5217,9211 5092,9461 Z"/>
 <path fill="none" stroke="rgb(87,157,28)" stroke-linejoin="round" d="M 5092,9461 L 5342,9461 5217,9211 5092,9461 Z"/>
 <path fill="rgb(87,157,28)" stroke="none" d="M 6479,9656 L 6729,9656 6604,9406 6479,9656 Z"/>
 <path fill="none" stroke="rgb(87,157,28)" stroke-linejoin="round" d="M 6479,9656 L 6729,9656 6604,9406 6479,9656 Z"/>
 <path fill="rgb(87,157,28)" stroke="none" d="M 7866,9652 L 8116,9652 7991,9402 7866,9652 Z"/>
 <path fill="none" stroke="rgb(87,157,28)" stroke-linejoin="round" d="M 7866,9652 L 8116,9652 7991,9402 7866,9652 Z"/>
 <path fill="rgb(87,157,28)" stroke="none" d="M 9253,9652 L 9503,9652 9378,9402 9253,9652 Z"/>
 <path fill="none" stroke="rgb(87,157,28)" stroke-linejoin="round" d="M 9253,9652 L 9503,9652 9378,9402 9253,9652 Z"/>
 <path fill="rgb(87,157,28)" stroke="none" d="M 10639,9648 L 10889,9648 10764,9398 10639,9648 Z"/>
 <path fill="none" stroke="rgb(87,157,28)" stroke-linejoin="round" d="M 10639,9648 L 10889,9648 10764,9398 10639,9648 Z"/>
 <path fill="rgb(87,157,28)" stroke="none" d="M 12026,9652 L 12276,9652 12151,9402 12026,9652 Z"/>
 <path fill="none" stroke="rgb(87,157,28)" stroke-linejoin="round" d="M 12026,9652 L 12276,9652 12151,9402 12026,9652 Z"/>
 <path fill="rgb(87,157,28)" stroke="none" d="M 13413,9652 L 13663,9652 13538,9402 13413,9652 Z"/>
 <path fill="none" stroke="rgb(87,157,28)" stroke-linejoin="round" d="M 13413,9652 L 13663,9652 13538,9402 13413,9652 Z"/>
 <path fill="rgb(87,157,28)" stroke="none" d="M 14801,9652 L 15051,9652 14926,9402 14801,9652 Z"/>
 <path fill="none" stroke="rgb(87,157,28)" stroke-linejoin="round" d="M 14801,9652 L 15051,9652 14926,9402 14801,9652 Z"/>
 <path fill="none" stroke="rgb(126,0,33)" stroke-width="80" stroke-linejoin="round" d="M 2443,8608 L 3830,8476 5217,8537 6604,8532 7991,8541 9378,8474 10764,8432 12151,8503 13538,8375 14926,8530"/>
 <path fill="rgb(126,0,33)" stroke="none" d="M 2318,8483 L 2318,8733 2568,8608 2318,8483 Z"/>
 <path fill="none" stroke="rgb(126,0,33)" stroke-linejoin="round" d="M 2318,8483 L 2318,8733 2568,8608 2318,8483 Z"/>
 <path fill="rgb(126,0,33)" stroke="none" d="M 3705,8351 L 3705,8601 3955,8476 3705,8351 Z"/>
 <path fill="none" stroke="rgb(126,0,33)" stroke-linejoin="round" d="M 3705,8351 L 3705,8601 3955,8476 3705,8351 Z"/>
 <path fill="rgb(126,0,33)" stroke="none" d="M 5092,8412 L 5092,8662 5342,8537 5092,8412 Z"/>
 <path fill="none" stroke="rgb(126,0,33)" stroke-linejoin="round" d="M 5092,8412 L 5092,8662 5342,8537 5092,8412 Z"/>
 <path fill="rgb(126,0,33)" stroke="none" d="M 6479,8407 L 6479,8657 6729,8532 6479,8407 Z"/>
 <path fill="none" stroke="rgb(126,0,33)" stroke-linejoin="round" d="M 6479,8407 L 6479,8657 6729,8532 6479,8407 Z"/>
 <path fill="rgb(126,0,33)" stroke="none" d="M 7866,8416 L 7866,8666 8116,8541 7866,8416 Z"/>
 <path fill="none" stroke="rgb(126,0,33)" stroke-linejoin="round" d="M 7866,8416 L 7866,8666 8116,8541 7866,8416 Z"/>
 <path fill="rgb(126,0,33)" stroke="none" d="M 9253,8349 L 9253,8599 9503,8474 9253,8349 Z"/>
 <path fill="none" stroke="rgb(126,0,33)" stroke-linejoin="round" d="M 9253,8349 L 9253,8599 9503,8474 9253,8349 Z"/>
 <path fill="rgb(126,0,33)" stroke="none" d="M 10639,8307 L 10639,8557 10889,8432 10639,8307 Z"/>
 <path fill="none" stroke="rgb(126,0,33)" stroke-linejoin="round" d="M 10639,8307 L 10639,8557 10889,8432 10639,8307 Z"/>
 <path fill="rgb(126,0,33)" stroke="none" d="M 12026,8378 L 12026,8628 12276,8503 12026,8378 Z"/>
 <path fill="none" stroke="rgb(126,0,33)" stroke-linejoin="round" d="M 12026,8378 L 12026,8628 12276,8503 12026,8378 Z"/>
 <path fill="rgb(126,0,33)" stroke="none" d="M 13413,8250 L 13413,8500 13663,8375 13413,8250 Z"/>
 <path fill="none" stroke="rgb(126,0,33)" stroke-linejoin="round" d="M 13413,8250 L 13413,8500 13663,8375 13413,8250 Z"/>
 <path fill="rgb(126,0,33)" stroke="none" d="M 14801,8405 L 14801,8655 15051,8530 14801,8405 Z"/>
 <path fill="none" stroke="rgb(126,0,33)" stroke-linejoin="round" d="M 14801,8405 L 14801,8655 15051,8530 14801,8405 Z"/>
 <path fill="none" stroke="rgb(255,222,89)" stroke-width="80" stroke-linejoin="round" d="M 2443,3915 L 3830,4748 5217,6105 6604,6570 7991,6317 9378,6283 10764,6484 12151,6369 13538,6377 14926,6279"/>
 <path fill="rgb(255,222,89)" stroke="none" d="M 2318,3915 L 2568,4040 2568,3790 2318,3915 Z"/>
 <path fill="none" stroke="rgb(255,222,89)" stroke-linejoin="round" d="M 2318,3915 L 2568,4040 2568,3790 2318,3915 Z"/>
 <path fill="rgb(255,222,89)" stroke="none" d="M 3705,4748 L 3955,4873 3955,4623 3705,4748 Z"/>
 <path fill="none" stroke="rgb(255,222,89)" stroke-linejoin="round" d="M 3705,4748 L 3955,4873 3955,4623 3705,4748 Z"/>
 <path fill="rgb(255,222,89)" stroke="none" d="M 5092,6105 L 5342,6230 5342,5980 5092,6105 Z"/>
 <path fill="none" stroke="rgb(255,222,89)" stroke-linejoin="round" d="M 5092,6105 L 5342,6230 5342,5980 5092,6105 Z"/>
 <path fill="rgb(255,222,89)" stroke="none" d="M 6479,6570 L 6729,6695 6729,6445 6479,6570 Z"/>
 <path fill="none" stroke="rgb(255,222,89)" stroke-linejoin="round" d="M 6479,6570 L 6729,6695 6729,6445 6479,6570 Z"/>
 <path fill="rgb(255,222,89)" stroke="none" d="M 7866,6317 L 8116,6442 8116,6192 7866,6317 Z"/>
 <path fill="none" stroke="rgb(255,222,89)" stroke-linejoin="round" d="M 7866,6317 L 8116,6442 8116,6192 7866,6317 Z"/>
 <path fill="rgb(255,222,89)" stroke="none" d="M 9253,6283 L 9503,6408 9503,6158 9253,6283 Z"/>
 <path fill="none" stroke="rgb(255,222,89)" stroke-linejoin="round" d="M 9253,6283 L 9503,6408 9503,6158 9253,6283 Z"/>
 <path fill="rgb(255,222,89)" stroke="none" d="M 10639,6484 L 10889,6609 10889,6359 10639,6484 Z"/>
 <path fill="none" stroke="rgb(255,222,89)" stroke-linejoin="round" d="M 10639,6484 L 10889,6609 10889,6359 10639,6484 Z"/>
 <path fill="rgb(255,222,89)" stroke="none" d="M 12026,6369 L 12276,6494 12276,6244 12026,6369 Z"/>
 <path fill="none" stroke="rgb(255,222,89)" stroke-linejoin="round" d="M 12026,6369 L 12276,6494 12276,6244 12026,6369 Z"/>
 <path fill="rgb(255,222,89)" stroke="none" d="M 13413,6377 L 13663,6502 13663,6252 13413,6377 Z"/>
 <path fill="none" stroke="rgb(255,222,89)" stroke-linejoin="round" d="M 13413,6377 L 13663,6502 13663,6252 13413,6377 Z"/>
 <path fill="rgb(255,222,89)" stroke="none" d="M 14801,6279 L 15051,6404 15051,6154 14801,6279 Z"/>
 <path fill="none" stroke="rgb(255,222,89)" stroke-linejoin="round" d="M 14801,6279 L 15051,6404 15051,6154 14801,6279 Z"/>
 <text class="TextShape"><tspan class="TextParagraph" font-family="Liberation Sans, sans-serif" font-size="353px" font-weight="400"><tspan class="TextPosition" x="2350" y="10253"><tspan fill="rgb(0,0,0)" stroke="none">1</tspan></tspan></tspan></text>
 <text class="TextShape"><tspan class="TextParagraph" font-family="Liberation Sans, sans-serif" font-size="353px" font-weight="400"><tspan class="TextPosition" x="3737" y="10253"><tspan fill="rgb(0,0,0)" stroke="none">2</tspan></tspan></tspan></text>
 <text class="TextShape"><tspan class="TextParagraph" font-family="Liberation Sans, sans-serif" font-size="353px" font-weight="400"><tspan class="TextPosition" x="5124" y="10253"><tspan fill="rgb(0,0,0)" stroke="none">3</tspan></tspan></tspan></text>
 <text class="TextShape"><tspan class="TextParagraph" font-family="Liberation Sans, sans-serif" font-size="353px" font-weight="400"><tspan class="TextPosition" x="6511" y="10253"><tspan fill="rgb(0,0,0)" stroke="none">4</tspan></tspan></tspan></text>
 <text class="TextShape"><tspan class="TextParagraph" font-family="Liberation Sans, sans-serif" font-size="353px" font-weight="400"><tspan class="TextPosition" x="7898" y="10253"><tspan fill="rgb(0,0,0)" stroke="none">5</tspan></tspan></tspan></text>
 <text class="TextShape"><tspan class="TextParagraph" font-family="Liberation Sans, sans-serif" font-size="353px" font-weight="400"><tspan class="TextPosition" x="9285" y="10253"><tspan fill="rgb(0,0,0)" stroke="none">6</tspan></tspan></tspan></text>
 <text class="TextShape"><tspan class="TextParagraph" font-family="Liberation Sans, sans-serif" font-size="353px" font-weight="400"><tspan class="TextPosition" x="10672" y="10253"><tspan fill="rgb(0,0,0)" stroke="none">7</tspan></tspan></tspan></text>
 <text class="TextShape"><tspan class="TextParagraph" font-family="Liberation Sans, sans-serif" font-size="353px" font-weight="400"><tspan class="TextPosition" x="12059" y="10253"><tspan fill="rgb(0,0,0)" stroke="none">8</tspan></tspan></tspan></text>
 <text class="TextShape"><tspan class="TextParagraph" font-family="Liberation Sans, sans-serif" font-size="353px" font-weight="400"><tspan class="TextPosition" x="13446" y="10253"><tspan fill="rgb(0,0,0)" stroke="none">9</tspan></tspan></tspan></text>
 <text class="TextShape"><tspan class="TextParagraph" font-family="Liberation Sans, sans-serif" font-size="353px" font-weight="400"><tspan class="TextPosition" x="14742" y="10253"><tspan fill="rgb(0,0,0)" stroke="none">10</tspan></tspan></tspan></text>
 <text class="TextShape"><tspan class="TextParagraph" font-family="Liberation Sans, sans-serif" font-size="353px" font-weight="400"><tspan class="TextPosition" x="2008" y="9806"><tspan fill="rgb(0,0,0)" stroke="none">0</tspan></tspan></tspan></text>
 <text class="TextShape"><tspan class="TextParagraph" font-family="Liberation Sans, sans-serif" font-size="353px" font-weight="400"><tspan class="TextPosition" x="1823" y="8966"><tspan fill="rgb(0,0,0)" stroke="none">20</tspan></tspan></tspan></text>
 <text class="TextShape"><tspan class="TextParagraph" font-family="Liberation Sans, sans-serif" font-size="353px" font-weight="400"><tspan class="TextPosition" x="1823" y="8127"><tspan fill="rgb(0,0,0)" stroke="none">40</tspan></tspan></tspan></text>
 <text class="TextShape"><tspan class="TextParagraph" font-family="Liberation Sans, sans-serif" font-size="353px" font-weight="400"><tspan class="TextPosition" x="1823" y="7287"><tspan fill="rgb(0,0,0)" stroke="none">60</tspan></tspan></tspan></text>
 <text class="TextShape"><tspan class="TextParagraph" font-family="Liberation Sans, sans-serif" font-size="353px" font-weight="400"><tspan class="TextPosition" x="1823" y="6448"><tspan fill="rgb(0,0,0)" stroke="none">80</tspan></tspan></tspan></text>
 <text class="TextShape"><tspan class="TextParagraph" font-family="Liberation Sans, sans-serif" font-size="353px" font-weight="400"><tspan class="TextPosition" x="1637" y="5609"><tspan fill="rgb(0,0,0)" stroke="none">100</tspan></tspan></tspan></text>
 <text class="TextShape"><tspan class="TextParagraph" font-family="Liberation Sans, sans-serif" font-size="353px" font-weight="400"><tspan class="TextPosition" x="1637" y="4769"><tspan fill="rgb(0,0,0)" stroke="none">120</tspan></tspan></tspan></text>
 <text class="TextShape"><tspan class="TextParagraph" font-family="Liberation Sans, sans-serif" font-size="353px" font-weight="400"><tspan class="TextPosition" x="1637" y="3930"><tspan fill="rgb(0,0,0)" stroke="none">140</tspan></tspan></tspan></text>
 <text class="TextShape"><tspan class="TextParagraph" font-family="Liberation Sans, sans-serif" font-size="353px" font-weight="400"><tspan class="TextPosition" x="1637" y="3091"><tspan fill="rgb(0,0,0)" stroke="none">160</tspan></tspan></tspan></text>
 <text class="TextShape"><tspan class="TextParagraph" font-family="Liberation Sans, sans-serif" font-size="706px" font-weight="400"><tspan class="TextPosition" x="4184" y="1220"><tspan fill="rgb(0,0,0)" stroke="none">Mobile Chrome Performance Rust vs JS</tspan></tspan></tspan></text>
 <text class="TextShape"><tspan class="TextParagraph" font-family="Liberation Sans, sans-serif" font-size="423px" font-weight="400"><tspan class="TextPosition" x="7359" y="2327"><tspan fill="rgb(0,0,0)" stroke="none">Chrome on Android 86.0.4240.198</tspan></tspan></tspan></text>
 <path fill="none" stroke="rgb(234,117,0)" stroke-width="80" stroke-linejoin="round" d="M 15909,4887 L 16709,4887"/>
 <path fill="rgb(234,117,0)" stroke="none" d="M 16140,4718 L 16309,5056 16478,4718 16140,4718 Z"/>
 <path fill="none" stroke="rgb(234,117,0)" stroke-linejoin="round" d="M 16140,4718 L 16309,5056 16478,4718 16140,4718 Z"/>
 <path fill="none" stroke="rgb(87,157,28)" stroke-width="80" stroke-linejoin="round" d="M 15909,5609 L 16709,5609"/>
 <path fill="rgb(87,157,28)" stroke="none" d="M 16140,5778 L 16478,5778 16309,5440 16140,5778 Z"/>
 <path fill="none" stroke="rgb(87,157,28)" stroke-linejoin="round" d="M 16140,5778 L 16478,5778 16309,5440 16140,5778 Z"/>
 <path fill="none" stroke="rgb(126,0,33)" stroke-width="80" stroke-linejoin="round" d="M 15909,6330 L 16709,6330"/>
 <path fill="rgb(126,0,33)" stroke="none" d="M 16140,6161 L 16140,6499 16478,6330 16140,6161 Z"/>
 <path fill="none" stroke="rgb(126,0,33)" stroke-linejoin="round" d="M 16140,6161 L 16140,6499 16478,6330 16140,6161 Z"/>
 <path fill="none" stroke="rgb(255,222,89)" stroke-width="80" stroke-linejoin="round" d="M 15909,7052 L 16709,7052"/>
 <path fill="rgb(255,222,89)" stroke="none" d="M 16140,7052 L 16478,7221 16478,6883 16140,7052 Z"/>
 <path fill="none" stroke="rgb(255,222,89)" stroke-linejoin="round" d="M 16140,7052 L 16478,7221 16478,6883 16140,7052 Z"/>
 <text class="TextShape"><tspan class="TextParagraph" font-family="Liberation Sans, sans-serif" font-size="564px" font-weight="400"><tspan class="TextPosition" x="16833" y="5085"><tspan fill="rgb(0,0,0)" stroke="none">Rust 3k nodes</tspan></tspan></tspan></text>
 <text class="TextShape"><tspan class="TextParagraph" font-family="Liberation Sans, sans-serif" font-size="564px" font-weight="400"><tspan class="TextPosition" x="16833" y="5807"><tspan fill="rgb(0,0,0)" stroke="none">JS 3k nodes</tspan></tspan></tspan></text>
 <text class="TextShape"><tspan class="TextParagraph" font-family="Liberation Sans, sans-serif" font-size="564px" font-weight="400"><tspan class="TextPosition" x="16833" y="6528"><tspan fill="rgb(0,0,0)" stroke="none">Rust 10k nodes</tspan></tspan></tspan></text>
 <text class="TextShape"><tspan class="TextParagraph" font-family="Liberation Sans, sans-serif" font-size="564px" font-weight="400"><tspan class="TextPosition" x="16833" y="7250"><tspan fill="rgb(0,0,0)" stroke="none">JS 10k nodes</tspan></tspan></tspan></text>
 <text class="TextShape"><tspan class="TextParagraph" font-family="Liberation Sans, sans-serif" font-size="564px" font-weight="400"><tspan class="TextPosition" x="6656" y="11245"><tspan fill="rgb(0,0,0)" stroke="none">Simluation Day</tspan></tspan></tspan></text>
 <text class="TextShape" transform="rotate(-90 933 7745)"><tspan class="TextParagraph" font-family="Liberation Sans, sans-serif" font-size="564px" font-weight="400"><tspan class="TextPosition" x="933" y="7745"><tspan fill="rgb(0,0,0)" stroke="none">Time [ms]</tspan></tspan></tspan></text>
</svg>