<?xml version="1.0" encoding="UTF-8"?>
<!DOCTYPE svg PUBLIC "-//W3C//DTD SVG 1.1//EN" "http://www.w3.org/Graphics/SVG/1.1/DTD/svg11.dtd">
<svg width="212mm" height="119mm" viewBox="0 0 21200 11900" version="1.1" xmlns="http://www.w3.org/2000/svg" xmlns:xlink="http://www.w3.org/1999/xlink" stroke-width="28.222" stroke-linejoin="round" xml:space="preserve">
 <path fill="rgb(255,255,255)" stroke="none" d="M 10600,11939 L 0,11939 0,0 21200,0 21200,11939 10600,11939 Z"/>
 <path fill="none" stroke="rgb(179,179,179)" stroke-linejoin="round" d="M 8778,9686 L 2443,9686 2443,2951 15112,2951 15112,9686 8778,9686 Z"/>
 <path fill="none" stroke="rgb(179,179,179)" stroke-linejoin="round" d="M 15111,9685 L 2443,9685"/>
 <path fill="none" stroke="rgb(179,179,179)" stroke-linejoin="round" d="M 15111,8337 L 2443,8337"/>
 <path fill="none" stroke="rgb(179,179,179)" stroke-linejoin="round" d="M 15111,6990 L 2443,6990"/>
 <path fill="none" stroke="rgb(179,179,179)" stroke-linejoin="round" d="M 15111,5644 L 2443,5644"/>
 <path fill="none" stroke="rgb(179,179,179)" stroke-linejoin="round" d="M 15111,4297 L 2443,4297"/>
 <path fill="none" stroke="rgb(179,179,179)" stroke-linejoin="round" d="M 15111,2950 L 2443,2950"/>
 <path fill="none" stroke="rgb(179,179,179)" stroke-linejoin="round" d="M 2443,9835 L 2443,9685"/>
 <path fill="none" stroke="rgb(179,179,179)" stroke-linejoin="round" d="M 2443,9835 L 2443,9685"/>
 <path fill="none" stroke="rgb(179,179,179)" stroke-linejoin="round" d="M 3850,9835 L 3850,9685"/>
 <path fill="none" stroke="rgb(179,179,179)" stroke-linejoin="round" d="M 3850,9835 L 3850,9685"/>
 <path fill="none" stroke="rgb(179,179,179)" stroke-linejoin="round" d="M 5258,9835 L 5258,9685"/>
 <path fill="none" stroke="rgb(179,179,179)" stroke-linejoin="round" d="M 5258,9835 L 5258,9685"/>
 <path fill="none" stroke="rgb(179,179,179)" stroke-linejoin="round" d="M 6666,9835 L 6666,9685"/>
 <path fill="none" stroke="rgb(179,179,179)" stroke-linejoin="round" d="M 6666,9835 L 6666,9685"/>
 <path fill="none" stroke="rgb(179,179,179)" stroke-linejoin="round" d="M 8074,9835 L 8074,9685"/>
 <path fill="none" stroke="rgb(179,179,179)" stroke-linejoin="round" d="M 8074,9835 L 8074,9685"/>
 <path fill="none" stroke="rgb(179,179,179)" stroke-linejoin="round" d="M 9481,9835 L 9481,9685"/>
 <path fill="none" stroke="rgb(179,179,179)" stroke-linejoin="round" d="M 9481,9835 L 9481,9685"/>
 <path fill="none" stroke="rgb(179,179,179)" stroke-linejoin="round" d="M 10888,9835 L 10888,9685"/>
 <path fill="none" stroke="rgb(179,179,179)" stroke-linejoin="round" d="M 10888,9835 L 10888,9685"/>
 <path fill="none" stroke="rgb(179,179,179)" stroke-linejoin="round" d="M 12296,9835 L 12296,9685"/>
 <path fill="none" stroke="rgb(179,179,179)" stroke-linejoin="round" d="M 12296,9835 L 12296,9685"/>
 <path fill="none" stroke="rgb(179,179,179)" stroke-linejoin="round" d="M 13704,9835 L 13704,9685"/>
 <path fill="none" stroke="rgb(179,179,179)" stroke-linejoin="round" d="M 13704,9835 L 13704,9685"/>
 <path fill="none" stroke="rgb(179,179,179)" stroke-linejoin="round" d="M 15111,9835 L 15111,9685"/>
 <path fill="none" stroke="rgb(179,179,179)" stroke-linejoin="round" d="M 15111,9835 L 15111,9685"/>
 <path fill="none" stroke="rgb(179,179,179)" stroke-linejoin="round" d="M 2443,9685 L 15111,9685"/>
 <path fill="none" stroke="rgb(179,179,179)" stroke-linejoin="round" d="M 2293,9685 L 2443,9685"/>
 <path fill="none" stroke="rgb(179,179,179)" stroke-linejoin="round" d="M 2293,9685 L 2443,9685"/>
 <path fill="none" stroke="rgb(179,179,179)" stroke-linejoin="round" d="M 2293,8337 L 2443,8337"/>
 <path fill="none" stroke="rgb(179,179,179)" stroke-linejoin="round" d="M 2293,8337 L 2443,8337"/>
 <path fill="none" stroke="rgb(179,179,179)" stroke-linejoin="round" d="M 2293,6990 L 2443,6990"/>
 <path fill="none" stroke="rgb(179,179,179)" stroke-linejoin="round" d="M 2293,6990 L 2443,6990"/>
 <path fill="none" stroke="rgb(179,179,179)" stroke-linejoin="round" d="M 2293,5644 L 2443,5644"/>
 <path fill="none" stroke="rgb(179,179,179)" stroke-linejoin="round" d="M 2293,5644 L 2443,5644"/>
 <path fill="none" stroke="rgb(179,179,179)" stroke-linejoin="round" d="M 2293,4297 L 2443,4297"/>
 <path fill="none" stroke="rgb(179,179,179)" stroke-linejoin="round" d="M 2293,4297 L 2443,4297"/>
 <path fill="none" stroke="rgb(179,179,179)" stroke-linejoin="round" d="M 2293,2950 L 2443,2950"/>
 <path fill="none" stroke="rgb(179,179,179)" stroke-linejoin="round" d="M 2293,2950 L 2443,2950"/>
 <path fill="none" stroke="rgb(179,179,179)" stroke-linejoin="round" d="M 2443,9685 L 2443,2950"/>
 <path fill="none" stroke="rgb(234,117,0)" stroke-width="80" stroke-linejoin="round" d="M 2443,9488 L 3850,9506 5258,9506 6666,9501 8074,9509 9481,9501 10888,9493 12296,9507 13704,9508 15111,9511"/>
 <path fill="rgb(234,117,0)" stroke="none" d="M 2318,9363 L 2443,9613 2568,9363 2318,9363 Z"/>
 <path fill="none" stroke="rgb(234,117,0)" stroke-linejoin="round" d="M 2318,9363 L 2443,9613 2568,9363 2318,9363 Z"/>
 <path fill="rgb(234,117,0)" stroke="none" d="M 3725,9381 L 3850,9631 3975,9381 3725,9381 Z"/>
 <path fill="none" stroke="rgb(234,117,0)" stroke-linejoin="round" d="M 3725,9381 L 3850,9631 3975,9381 3725,9381 Z"/>
 <path fill="rgb(234,117,0)" stroke="none" d="M 5133,9381 L 5258,9631 5383,9381 5133,9381 Z"/>
 <path fill="none" stroke="rgb(234,117,0)" stroke-linejoin="round" d="M 5133,9381 L 5258,9631 5383,9381 5133,9381 Z"/>
 <path fill="rgb(234,117,0)" stroke="none" d="M 6541,9376 L 6666,9626 6791,9376 6541,9376 Z"/>
 <path fill="none" stroke="rgb(234,117,0)" stroke-linejoin="round" d="M 6541,9376 L 6666,9626 6791,9376 6541,9376 Z"/>
 <path fill="rgb(234,117,0)" stroke="none" d="M 7949,9384 L 8074,9634 8199,9384 7949,9384 Z"/>
 <path fill="none" stroke="rgb(234,117,0)" stroke-linejoin="round" d="M 7949,9384 L 8074,9634 8199,9384 7949,9384 Z"/>
 <path fill="rgb(234,117,0)" stroke="none" d="M 9356,9376 L 9481,9626 9606,9376 9356,9376 Z"/>
 <path fill="none" stroke="rgb(234,117,0)" stroke-linejoin="round" d="M 9356,9376 L 9481,9626 9606,9376 9356,9376 Z"/>
 <path fill="rgb(234,117,0)" stroke="none" d="M 10763,9368 L 10888,9618 11013,9368 10763,9368 Z"/>
 <path fill="none" stroke="rgb(234,117,0)" stroke-linejoin="round" d="M 10763,9368 L 10888,9618 11013,9368 10763,9368 Z"/>
 <path fill="rgb(234,117,0)" stroke="none" d="M 12171,9382 L 12296,9632 12421,9382 12171,9382 Z"/>
 <path fill="none" stroke="rgb(234,117,0)" stroke-linejoin="round" d="M 12171,9382 L 12296,9632 12421,9382 12171,9382 Z"/>
 <path fill="rgb(234,117,0)" stroke="none" d="M 13579,9383 L 13704,9633 13829,9383 13579,9383 Z"/>
 <path fill="none" stroke="rgb(234,117,0)" stroke-linejoin="round" d="M 13579,9383 L 13704,9633 13829,9383 13579,9383 Z"/>
 <path fill="rgb(234,117,0)" stroke="none" d="M 14986,9386 L 15111,9636 15236,9386 14986,9386 Z"/>
 <path fill="none" stroke="rgb(234,117,0)" stroke-linejoin="round" d="M 14986,9386 L 15111,9636 15236,9386 14986,9386 Z"/>
 <path fill="none" stroke="rgb(87,157,28)" stroke-width="80" stroke-linejoin="round" d="M 2443,8191 L 3850,8309 5258,8630 6666,9616 8074,9608 9481,9618 10888,9614 12296,9618 13704,9616 15111,9614"/>
 <path fill="rgb(87,157,28)" stroke="none" d="M 2318,8316 L 2568,8316 2443,8066 2318,8316 Z"/>
 <path fill="none" stroke="rgb(87,157,28)" stroke-linejoin="round" d="M 2318,8316 L 2568,8316 2443,8066 2318,8316 Z"/>
 <path fill="rgb(87,157,28)" stroke="none" d="M 3725,8434 L 3975,8434 3850,8184 3725,8434 Z"/>
 <path fill="none" stroke="rgb(87,157,28)" stroke-linejoin="round" d="M 3725,8434 L 3975,8434 3850,8184 3725,8434 Z"/>
 <path fill="rgb(87,157,28)" stroke="none" d="M 5133,8755 L 5383,8755 5258,8505 5133,8755 Z"/>
 <path fill="none" stroke="rgb(87,157,28)" stroke-linejoin="round" d="M 5133,8755 L 5383,8755 5258,8505 5133,8755 Z"/>
 <path fill="rgb(87,157,28)" stroke="none" d="M 6541,9741 L 6791,9741 6666,9491 6541,9741 Z"/>
 <path fill="none" stroke="rgb(87,157,28)" stroke-linejoin="round" d="M 6541,9741 L 6791,9741 6666,9491 6541,9741 Z"/>
 <path fill="rgb(87,157,28)" stroke="none" d="M 7949,9733 L 8199,9733 8074,9483 7949,9733 Z"/>
 <path fill="none" stroke="rgb(87,157,28)" stroke-linejoin="round" d="M 7949,9733 L 8199,9733 8074,9483 7949,9733 Z"/>
 <path fill="rgb(87,157,28)" stroke="none" d="M 9356,9743 L 9606,9743 9481,9493 9356,9743 Z"/>
 <path fill="none" stroke="rgb(87,157,28)" stroke-linejoin="round" d="M 9356,9743 L 9606,9743 9481,9493 9356,9743 Z"/>
 <path fill="rgb(87,157,28)" stroke="none" d="M 10763,9739 L 11013,9739 10888,9489 10763,9739 Z"/>
 <path fill="none" stroke="rgb(87,157,28)" stroke-linejoin="round" d="M 10763,9739 L 11013,9739 10888,9489 10763,9739 Z"/>
 <path fill="rgb(87,157,28)" stroke="none" d="M 12171,9743 L 12421,9743 12296,9493 12171,9743 Z"/>
 <path fill="none" stroke="rgb(87,157,28)" stroke-linejoin="round" d="M 12171,9743 L 12421,9743 12296,9493 12171,9743 Z"/>
 <path fill="rgb(87,157,28)" stroke="none" d="M 13579,9741 L 13829,9741 13704,9491 13579,9741 Z"/>
 <path fill="none" stroke="rgb(87,157,28)" stroke-linejoin="round" d="M 13579,9741 L 13829,9741 13704,9491 13579,9741 Z"/>
 <path fill="rgb(87,157,28)" stroke="none" d="M 14986,9739 L 15236,9739 15111,9489 14986,9739 Z"/>
 <path fill="none" stroke="rgb(87,157,28)" stroke-linejoin="round" d="M 14986,9739 L 15236,9739 15111,9489 14986,9739 Z"/>
 <path fill="none" stroke="rgb(126,0,33)" stroke-width="80" stroke-linejoin="round" d="M 2443,5999 L 3850,5688 5258,5790 6666,5808 8074,5647 9481,5992 10888,6269 12296,6144 13704,6337 15111,6633"/>
 <path fill="rgb(126,0,33)" stroke="none" d="M 2318,5875 L 2318,6124 2568,5999 2318,5875 Z"/>
 <path fill="none" stroke="rgb(126,0,33)" stroke-linejoin="round" d="M 2318,5875 L 2318,6124 2568,5999 2318,5875 Z"/>
 <path fill="rgb(126,0,33)" stroke="none" d="M 3725,5563 L 3725,5813 3975,5688 3725,5563 Z"/>
 <path fill="none" stroke="rgb(126,0,33)" stroke-linejoin="round" d="M 3725,5563 L 3725,5813 3975,5688 3725,5563 Z"/>
 <path fill="rgb(126,0,33)" stroke="none" d="M 5133,5665 L 5133,5915 5383,5790 5133,5665 Z"/>
 <path fill="none" stroke="rgb(126,0,33)" stroke-linejoin="round" d="M 5133,5665 L 5133,5915 5383,5790 5133,5665 Z"/>
 <path fill="rgb(126,0,33)" stroke="none" d="M 6541,5683 L 6541,5933 6791,5808 6541,5683 Z"/>
 <path fill="none" stroke="rgb(126,0,33)" stroke-linejoin="round" d="M 6541,5683 L 6541,5933 6791,5808 6541,5683 Z"/>
 <path fill="rgb(126,0,33)" stroke="none" d="M 7949,5522 L 7949,5772 8199,5647 7949,5522 Z"/>
 <path fill="none" stroke="rgb(126,0,33)" stroke-linejoin="round" d="M 7949,5522 L 7949,5772 8199,5647 7949,5522 Z"/>
 <path fill="rgb(126,0,33)" stroke="none" d="M 9356,5868 L 9356,6117 9606,5992 9356,5868 Z"/>
 <path fill="none" stroke="rgb(126,0,33)" stroke-linejoin="round" d="M 9356,5868 L 9356,6117 9606,5992 9356,5868 Z"/>
 <path fill="rgb(126,0,33)" stroke="none" d="M 10763,6144 L 10763,6394 11013,6269 10763,6144 Z"/>
 <path fill="none" stroke="rgb(126,0,33)" stroke-linejoin="round" d="M 10763,6144 L 10763,6394 11013,6269 10763,6144 Z"/>
 <path fill="rgb(126,0,33)" stroke="none" d="M 12171,6019 L 12171,6269 12421,6144 12171,6019 Z"/>
 <path fill="none" stroke="rgb(126,0,33)" stroke-linejoin="round" d="M 12171,6019 L 12171,6269 12421,6144 12171,6019 Z"/>
 <path fill="rgb(126,0,33)" stroke="none" d="M 13579,6212 L 13579,6462 13829,6337 13579,6212 Z"/>
 <path fill="none" stroke="rgb(126,0,33)" stroke-linejoin="round" d="M 13579,6212 L 13579,6462 13829,6337 13579,6212 Z"/>
 <path fill="rgb(126,0,33)" stroke="none" d="M 14986,6508 L 14986,6758 15236,6633 14986,6508 Z"/>
 <path fill="none" stroke="rgb(126,0,33)" stroke-linejoin="round" d="M 14986,6508 L 14986,6758 15236,6633 14986,6508 Z"/>
 <path fill="none" stroke="rgb(255,222,89)" stroke-width="80" stroke-linejoin="round" d="M 2443,3587 L 3850,7330 5258,6037 6666,6744 8074,7922 9481,7087 10888,8365 12296,8460 13704,8587 15111,8751"/>
 <path fill="rgb(255,222,89)" stroke="none" d="M 2318,3587 L 2568,3712 2568,3462 2318,3587 Z"/>
 <path fill="none" stroke="rgb(255,222,89)" stroke-linejoin="round" d="M 2318,3587 L 2568,3712 2568,3462 2318,3587 Z"/>
 <path fill="rgb(255,222,89)" stroke="none" d="M 3725,7330 L 3975,7455 3975,7205 3725,7330 Z"/>
 <path fill="none" stroke="rgb(255,222,89)" stroke-linejoin="round" d="M 3725,7330 L 3975,7455 3975,7205 3725,7330 Z"/>
 <path fill="rgb(255,222,89)" stroke="none" d="M 5133,6037 L 5383,6162 5383,5913 5133,6037 Z"/>
 <path fill="none" stroke="rgb(255,222,89)" stroke-linejoin="round" d="M 5133,6037 L 5383,6162 5383,5913 5133,6037 Z"/>
 <path fill="rgb(255,222,89)" stroke="none" d="M 6541,6744 L 6791,6869 6791,6619 6541,6744 Z"/>
 <path fill="none" stroke="rgb(255,222,89)" stroke-linejoin="round" d="M 6541,6744 L 6791,6869 6791,6619 6541,6744 Z"/>
 <path fill="rgb(255,222,89)" stroke="none" d="M 7949,7922 L 8199,8047 8199,7797 7949,7922 Z"/>
 <path fill="none" stroke="rgb(255,222,89)" stroke-linejoin="round" d="M 7949,7922 L 8199,8047 8199,7797 7949,7922 Z"/>
 <path fill="rgb(255,222,89)" stroke="none" d="M 9356,7087 L 9606,7212 9606,6962 9356,7087 Z"/>
 <path fill="none" stroke="rgb(255,222,89)" stroke-linejoin="round" d="M 9356,7087 L 9606,7212 9606,6962 9356,7087 Z"/>
 <path fill="rgb(255,222,89)" stroke="none" d="M 10763,8365 L 11013,8490 11013,8240 10763,8365 Z"/>
 <path fill="none" stroke="rgb(255,222,89)" stroke-linejoin="round" d="M 10763,8365 L 11013,8490 11013,8240 10763,8365 Z"/>
 <path fill="rgb(255,222,89)" stroke="none" d="M 12171,8460 L 12421,8585 12421,8335 12171,8460 Z"/>
 <path fill="none" stroke="rgb(255,222,89)" stroke-linejoin="round" d="M 12171,8460 L 12421,8585 12421,8335 12171,8460 Z"/>
 <path fill="rgb(255,222,89)" stroke="none" d="M 13579,8587 L 13829,8712 13829,8462 13579,8587 Z"/>
 <path fill="none" stroke="rgb(255,222,89)" stroke-linejoin="round" d="M 13579,8587 L 13829,8712 13829,8462 13579,8587 Z"/>
 <path fill="rgb(255,222,89)" stroke="none" d="M 14986,8751 L 15236,8876 15236,8626 14986,8751 Z"/>
 <path fill="none" stroke="rgb(255,222,89)" stroke-linejoin="round" d="M 14986,8751 L 15236,8876 15236,8626 14986,8751 Z"/>
 <text class="TextShape"><tspan class="TextParagraph" font-family="Liberation Sans, sans-serif" font-size="353px" font-weight="400"><tspan class="TextPosition" x="2350" y="10253"><tspan fill="rgb(0,0,0)" stroke="none">1</tspan></tspan></tspan></text>
 <text class="TextShape"><tspan class="TextParagraph" font-family="Liberation Sans, sans-serif" font-size="353px" font-weight="400"><tspan class="TextPosition" x="3757" y="10253"><tspan fill="rgb(0,0,0)" stroke="none">2</tspan></tspan></tspan></text>
 <text class="TextShape"><tspan class="TextParagraph" font-family="Liberation Sans, sans-serif" font-size="353px" font-weight="400"><tspan class="TextPosition" x="5165" y="10253"><tspan fill="rgb(0,0,0)" stroke="none">3</tspan></tspan></tspan></text>
 <text class="TextShape"><tspan class="TextParagraph" font-family="Liberation Sans, sans-serif" font-size="353px" font-weight="400"><tspan class="TextPosition" x="6573" y="10253"><tspan fill="rgb(0,0,0)" stroke="none">4</tspan></tspan></tspan></text>
 <text class="TextShape"><tspan class="TextParagraph" font-family="Liberation Sans, sans-serif" font-size="353px" font-weight="400"><tspan class="TextPosition" x="7981" y="10253"><tspan fill="rgb(0,0,0)" stroke="none">5</tspan></tspan></tspan></text>
 <text class="TextShape"><tspan class="TextParagraph" font-family="Liberation Sans, sans-serif" font-size="353px" font-weight="400"><tspan class="TextPosition" x="9388" y="10253"><tspan fill="rgb(0,0,0)" stroke="none">6</tspan></tspan></tspan></text>
 <text class="TextShape"><tspan class="TextParagraph" font-family="Liberation Sans, sans-serif" font-size="353px" font-weight="400"><tspan class="TextPosition" x="10796" y="10253"><tspan fill="rgb(0,0,0)" stroke="none">7</tspan></tspan></tspan></text>
 <text class="TextShape"><tspan class="TextParagraph" font-family="Liberation Sans, sans-serif" font-size="353px" font-weight="400"><tspan class="TextPosition" x="12204" y="10253"><tspan fill="rgb(0,0,0)" stroke="none">8</tspan></tspan></tspan></text>
 <text class="TextShape"><tspan class="TextParagraph" font-family="Liberation Sans, sans-serif" font-size="353px" font-weight="400"><tspan class="TextPosition" x="13612" y="10253"><tspan fill="rgb(0,0,0)" stroke="none">9</tspan></tspan></tspan></text>
 <text class="TextShape"><tspan class="TextParagraph" font-family="Liberation Sans, sans-serif" font-size="353px" font-weight="400"><tspan class="TextPosition" x="14927" y="10253"><tspan fill="rgb(0,0,0)" stroke="none">10</tspan></tspan></tspan></text>
 <text class="TextShape"><tspan class="TextParagraph" font-family="Liberation Sans, sans-serif" font-size="353px" font-weight="400"><tspan class="TextPosition" x="2008" y="9806"><tspan fill="rgb(0,0,0)" stroke="none">0</tspan></tspan></tspan></text>
 <text class="TextShape"><tspan class="TextParagraph" font-family="Liberation Sans, sans-serif" font-size="353px" font-weight="400"><tspan class="TextPosition" x="2008" y="8458"><tspan fill="rgb(0,0,0)" stroke="none">5</tspan></tspan></tspan></text>
 <text class="TextShape"><tspan class="TextParagraph" font-family="Liberation Sans, sans-serif" font-size="353px" font-weight="400"><tspan class="TextPosition" x="1823" y="7111"><tspan fill="rgb(0,0,0)" stroke="none">10</tspan></tspan></tspan></text>
 <text class="TextShape"><tspan class="TextParagraph" font-family="Liberation Sans, sans-serif" font-size="353px" font-weight="400"><tspan class="TextPosition" x="1823" y="5764"><tspan fill="rgb(0,0,0)" stroke="none">15</tspan></tspan></tspan></text>
 <text class="TextShape"><tspan class="TextParagraph" font-family="Liberation Sans, sans-serif" font-size="353px" font-weight="400"><tspan class="TextPosition" x="1823" y="4417"><tspan fill="rgb(0,0,0)" stroke="none">20</tspan></tspan></tspan></text>
 <text class="TextShape"><tspan class="TextParagraph" font-family="Liberation Sans, sans-serif" font-size="353px" font-weight="400"><tspan class="TextPosition" x="1823" y="3070"><tspan fill="rgb(0,0,0)" stroke="none">25</tspan></tspan></tspan></text>
 <text class="TextShape"><tspan class="TextParagraph" font-family="Liberation Sans, sans-serif" font-size="706px" font-weight="400"><tspan class="TextPosition" x="3535" y="1220"><tspan fill="rgb(0,0,0)" stroke="none">Desktop Chromium Performance Rust vs JS</tspan></tspan></tspan></text>
 <text class="TextShape"><tspan class="TextParagraph" font-family="Liberation Sans, sans-serif" font-size="388px" font-weight="400"><tspan class="TextPosition" x="6366" y="2316"><tspan fill="rgb(0,0,0)" stroke="none">Chromium Version 87.0.4280.66 on Ubuntu 20.04</tspan></tspan></tspan></text>
 <path fill="none" stroke="rgb(234,117,0)" stroke-width="80" stroke-linejoin="round" d="M 15909,4887 L 16709,4887"/>
 <path fill="rgb(234,117,0)" stroke="none" d="M 16140,4718 L 16309,5056 16478,4718 16140,4718 Z"/>
 <path fill="none" stroke="rgb(234,117,0)" stroke-linejoin="round" d="M 16140,4718 L 16309,5056 16478,4718 16140,4718 Z"/>
 <path fill="none" stroke="rgb(87,157,28)" stroke-width="80" stroke-linejoin="round" d="M 15909,5609 L 16709,5609"/>
 <path fill="rgb(87,157,28)" stroke="none" d="M 16140,5778 L 16478,5778 16309,5440 16140,5778 Z"/>
 <path fill="none" stroke="rgb(87,157,28)" stroke-linejoin="round" d="M 16140,5778 L 16478,5778 16309,5440 16140,5778 Z"/>
 <path fill="none" stroke="rgb(126,0,33)" stroke-width="80" stroke-linejoin="round" d="M 15909,6330 L 16709,6330"/>
 <path fill="rgb(126,0,33)" stroke="none" d="M 16140,6161 L 16140,6499 16478,6330 16140,6161 Z"/>
 <path fill="none" stroke="rgb(126,0,33)" stroke-linejoin="round" d="M 16140,6161 L 16140,6499 16478,6330 16140,6161 Z"/>
 <path fill="none" stroke="rgb(255,222,89)" stroke-width="80" stroke-linejoin="round" d="M 15909,7052 L 16709,7052"/>
 <path fill="rgb(255,222,89)" stroke="none" d="M 16140,7052 L 16478,7221 16478,6883 16140,7052 Z"/>
 <path fill="none" stroke="rgb(255,222,89)" stroke-linejoin="round" d="M 16140,7052 L 16478,7221 16478,6883 16140,7052 Z"/>
 <text class="TextShape"><tspan class="TextParagraph" font-family="Liberation Sans, sans-serif" font-size="564px" font-weight="400"><tspan class="TextPosition" x="16833" y="5085"><tspan fill="rgb(0,0,0)" stroke="none">Rust 3k nodes</tspan></tspan></tspan></text>
 <text class="TextShape"><tspan class="TextParagraph" font-family="Liberation Sans, sans-serif" font-size="564px" font-weight="400"><tspan class="TextPosition" x="16833" y="5807"><tspan fill="rgb(0,0,0)" stroke="none">JS 3k nodes</tspan></tspan></tspan></text>
 <text class="TextShape"><tspan class="TextParagraph" font-family="Liberation Sans, sans-serif" font-size="564px" font-weight="400"><tspan class="TextPosition" x="16833" y="6528"><tspan fill="rgb(0,0,0)" stroke="none">Rust 10k nodes</tspan></tspan></tspan></text>
 <text class="TextShape"><tspan class="TextParagraph" font-family="Liberation Sans, sans-serif" font-size="564px" font-weight="400"><tspan class="TextPosition" x="16833" y="7250"><tspan fill="rgb(0,0,0)" stroke="none">JS 10k nodes</tspan></tspan></tspan></text>
 <text class="TextShape"><tspan class="TextParagraph" font-family="Liberation Sans, sans-serif" font-size="564px" font-weight="400"><tspan class="TextPosition" x="6656" y="11245"><tspan fill="rgb(0,0,0)" stroke="none">Simluation Day</tspan></tspan></tspan></text>
 <text class="TextShape" transform="rotate(-90 935 7745)"><tspan class="TextParagraph" font-family="Liberation Sans, sans-serif" font-size="564px" font-weight="400"><tspan class="TextPosition" x="935" y="7745"><tspan fill="rgb(0,0,0)" stroke="none">Time [ms]</tspan></tspan></tspan></text>
</svg>