<?xml version="1.0" encoding="UTF-8"?>
<svg class="icon" width="800" height="132" p-id="1137" t="1592727113403" version="1.1" viewBox="0 0 8192 1351.7" xmlns="http://www.w3.org/2000/svg" xmlns:cc="http://creativecommons.org/ns#" xmlns:dc="http://purl.org/dc/elements/1.1/" xmlns:rdf="http://www.w3.org/1999/02/22-rdf-syntax-ns#">
 <metadata>
  <rdf:RDF>
   <cc:Work rdf:about="">
    <dc:format>image/svg+xml</dc:format>
    <dc:type rdf:resource="http://purl.org/dc/dcmitype/StillImage"/>
    <dc:title/>
   </cc:Work>
  </rdf:RDF>
 </metadata>
 <defs>
  <style type="text/css"></style>
 </defs>
 <g transform="matrix(1.3429 0 0 1.3429 -2942.4 -2372.2)">
  <g transform="rotate(240 3384.1 25.646)" stroke-width=".74468">
   <path transform="matrix(0 .38073 -.38073 0 -252.57 -1747.9)" d="m6920.2-1439.8c-386.49 669.43-211.46 568.37-984.45 568.37-772.99-1e-5 -597.96 101.05-984.45-568.37-386.49-669.43-386.49-467.32-1e-4 -1136.7 386.49-669.43 211.46-568.37 984.45-568.37s597.96-101.05 984.45 568.37c386.49 669.43 386.49 467.32 0 1136.7z" color="#000000" fill="#d9480f" fill-rule="evenodd" stroke-width="1211.2"/>
  </g>
  <path d="m5076.5 2382.8c12.826 2e-4 23.926 4.6868 33.299 14.059 9.3727 9.3726 14.059 20.472 14.059 33.298 0 12.826-4.6861 23.925-14.059 33.298-9.3729 9.3726-20.472 14.059-33.299 14.059-12.826 1e-4 -23.925-4.6863-33.298-14.059-9.3727-9.3731-14.06-20.472-14.06-33.298 1e-4 -12.826 4.6866-23.925 14.06-33.298 9.3724-9.3727 20.472-14.059 33.298-14.059zm45.471-137.59-146.03 146.03c-11.946 11.946-17.918 26.474-17.918 43.586-4e-4 16.789 5.9725 31.479 17.918 44.07l52.303 51.334c11.623 12.268 26.152 18.403 43.586 18.403 17.111 2e-4 31.801-6.134 44.07-18.403l145.55-145.55c-31.64-12.592-59.648-31.075-84.024-55.451-24.376-24.376-42.859-52.384-55.451-84.024zm409.03-166.82c5.6655 9.8132 10.471 24.819 14.417 45.019 7.6403 40.544 2.7431 79.857-14.692 117.94-17.435 38.079-43.891 67.361-79.369 87.844-46.55 26.875-95.919 33.321-148.11 19.336-52.19-13.985-91.724-44.252-118.6-90.801-26.875-46.549-33.32-95.919-19.336-148.11 13.985-52.19 44.251-91.724 90.8-118.6 14.594-8.4252 31.078-15.175 49.453-20.248s35.277-7.0313 50.706-5.8748c5.6239 0.4434 9.6704 2.8036 12.14 7.0812 2.4696 4.2776 2.4905 8.9623 0.063 14.054l-73.76 127.63 48.811 84.543 96.159-1.6713c0.8224-1.4812 7.2383-13.321 19.248-35.52 12.01-22.199 23.173-42.231 33.491-60.098 10.316-17.867 16.608-27.454 18.873-28.761 3.7741-2.1792 7.4573-2.6281 11.049-1.3468 3.5915 1.2814 6.4767 3.8095 8.6559 7.5836z" fill="#fff" stroke-width="7.6255"/>
 </g>
</svg>
