<?xml version="1.0" encoding="UTF-8"?>
<svg class="icon" width="800" height="132" p-id="1137" t="1592727113403" version="1.1" viewBox="0 0 8192 1351.7" xmlns="http://www.w3.org/2000/svg" xmlns:cc="http://creativecommons.org/ns#" xmlns:dc="http://purl.org/dc/elements/1.1/" xmlns:rdf="http://www.w3.org/1999/02/22-rdf-syntax-ns#">
 <metadata>
  <rdf:RDF>
   <cc:Work rdf:about="">
    <dc:format>image/svg+xml</dc:format>
    <dc:type rdf:resource="http://purl.org/dc/dcmitype/StillImage"/>
    <dc:title/>
   </cc:Work>
  </rdf:RDF>
 </metadata>
 <defs>
  <style type="text/css"></style>
 </defs>
 <g transform="matrix(1.3422 0 0 1.3422 155.8 15.136)" fill-rule="evenodd">
  <path transform="matrix(.32972 -.19036 .19036 .32972 1360.7 2284.3)" d="m6920.2-1439.8c-386.49 669.43-211.46 568.37-984.45 568.37-772.99-1e-5 -597.96 101.05-984.45-568.37-386.49-669.43-386.49-467.32-1e-4 -1136.7 386.49-669.43 211.46-568.37 984.45-568.37s597.96-101.05 984.45 568.37c386.49 669.43 386.49 467.32 0 1136.7z" color="#000000" fill="#5f3dc4" stroke-width="1211.8"/>
  <g transform="matrix(-.3577 -.61956 .61956 -.3577 2805.5 1004.1)" fill="#fff" stroke-width="480.46">
   <circle cx="293.73" cy="662.63" r="154.91" color="#000000"/>
   <circle cx="751.23" cy="641.67" r="154.91" color="#000000"/>
   <circle cx="540.63" cy="238.91" r="154.91" color="#000000"/>
  </g>
 </g>
</svg>
